<?xml version="1.0" encoding="utf-8" standalone="no"?>
<!DOCTYPE svg PUBLIC "-//W3C//DTD SVG 1.1//EN"
  "http://www.w3.org/Graphics/SVG/1.1/DTD/svg11.dtd">
<!-- Created with matplotlib (https://matplotlib.org/) -->
<svg height="432pt" version="1.1" viewBox="0 0 1152 432" width="1152pt" xmlns="http://www.w3.org/2000/svg" xmlns:xlink="http://www.w3.org/1999/xlink">
 <defs>
  <style type="text/css">
*{stroke-linecap:butt;stroke-linejoin:round;}
  </style>
 </defs>
 <g id="figure_1">
  <g id="patch_1">
   <path d="M 0 432 
L 1152 432 
L 1152 0 
L 0 0 
z
" style="fill:#ffffff;"/>
  </g>
  <g id="axes_1">
   <g id="patch_2">
    <path d="M 60.05 387.2 
L 567.1 387.2 
L 567.1 50.916 
L 60.05 50.916 
z
" style="fill:#e5e5e5;"/>
   </g>
   <g id="matplotlib.axis_1">
    <g id="xtick_1">
     <g id="line2d_1">
      <path clip-path="url(#p72e3bef84e)" d="M 81.83741 387.2 
L 81.83741 50.916 
" style="fill:none;stroke:#ffffff;stroke-linecap:square;stroke-width:0.8;"/>
     </g>
     <g id="line2d_2">
      <defs>
       <path d="M 0 0 
L 0 3.5 
" id="mc64405eeff" style="stroke:#555555;stroke-width:0.8;"/>
      </defs>
      <g>
       <use style="fill:#555555;stroke:#555555;stroke-width:0.8;" x="81.83741" xlink:href="#mc64405eeff" y="387.2"/>
      </g>
     </g>
     <g id="text_1">
      <!-- 0.60 -->
      <defs>
       <path d="M 31.78125 66.40625 
Q 24.171875 66.40625 20.328125 58.90625 
Q 16.5 51.421875 16.5 36.375 
Q 16.5 21.390625 20.328125 13.890625 
Q 24.171875 6.390625 31.78125 6.390625 
Q 39.453125 6.390625 43.28125 13.890625 
Q 47.125 21.390625 47.125 36.375 
Q 47.125 51.421875 43.28125 58.90625 
Q 39.453125 66.40625 31.78125 66.40625 
z
M 31.78125 74.21875 
Q 44.046875 74.21875 50.515625 64.515625 
Q 56.984375 54.828125 56.984375 36.375 
Q 56.984375 17.96875 50.515625 8.265625 
Q 44.046875 -1.421875 31.78125 -1.421875 
Q 19.53125 -1.421875 13.0625 8.265625 
Q 6.59375 17.96875 6.59375 36.375 
Q 6.59375 54.828125 13.0625 64.515625 
Q 19.53125 74.21875 31.78125 74.21875 
z
" id="DejaVuSans-48"/>
       <path d="M 10.6875 12.40625 
L 21 12.40625 
L 21 0 
L 10.6875 0 
z
" id="DejaVuSans-46"/>
       <path d="M 33.015625 40.375 
Q 26.375 40.375 22.484375 35.828125 
Q 18.609375 31.296875 18.609375 23.390625 
Q 18.609375 15.53125 22.484375 10.953125 
Q 26.375 6.390625 33.015625 6.390625 
Q 39.65625 6.390625 43.53125 10.953125 
Q 47.40625 15.53125 47.40625 23.390625 
Q 47.40625 31.296875 43.53125 35.828125 
Q 39.65625 40.375 33.015625 40.375 
z
M 52.59375 71.296875 
L 52.59375 62.3125 
Q 48.875 64.0625 45.09375 64.984375 
Q 41.3125 65.921875 37.59375 65.921875 
Q 27.828125 65.921875 22.671875 59.328125 
Q 17.53125 52.734375 16.796875 39.40625 
Q 19.671875 43.65625 24.015625 45.921875 
Q 28.375 48.1875 33.59375 48.1875 
Q 44.578125 48.1875 50.953125 41.515625 
Q 57.328125 34.859375 57.328125 23.390625 
Q 57.328125 12.15625 50.6875 5.359375 
Q 44.046875 -1.421875 33.015625 -1.421875 
Q 20.359375 -1.421875 13.671875 8.265625 
Q 6.984375 17.96875 6.984375 36.375 
Q 6.984375 53.65625 15.1875 63.9375 
Q 23.390625 74.21875 37.203125 74.21875 
Q 40.921875 74.21875 44.703125 73.484375 
Q 48.484375 72.75 52.59375 71.296875 
z
" id="DejaVuSans-54"/>
      </defs>
      <g style="fill:#555555;" transform="translate(70.704598 401.798437)scale(0.1 -0.1)">
       <use xlink:href="#DejaVuSans-48"/>
       <use x="63.623047" xlink:href="#DejaVuSans-46"/>
       <use x="95.410156" xlink:href="#DejaVuSans-54"/>
       <use x="159.033203" xlink:href="#DejaVuSans-48"/>
      </g>
     </g>
    </g>
    <g id="xtick_2">
     <g id="line2d_3">
      <path clip-path="url(#p72e3bef84e)" d="M 139.912959 387.2 
L 139.912959 50.916 
" style="fill:none;stroke:#ffffff;stroke-linecap:square;stroke-width:0.8;"/>
     </g>
     <g id="line2d_4">
      <g>
       <use style="fill:#555555;stroke:#555555;stroke-width:0.8;" x="139.912959" xlink:href="#mc64405eeff" y="387.2"/>
      </g>
     </g>
     <g id="text_2">
      <!-- 0.65 -->
      <defs>
       <path d="M 10.796875 72.90625 
L 49.515625 72.90625 
L 49.515625 64.59375 
L 19.828125 64.59375 
L 19.828125 46.734375 
Q 21.96875 47.46875 24.109375 47.828125 
Q 26.265625 48.1875 28.421875 48.1875 
Q 40.625 48.1875 47.75 41.5 
Q 54.890625 34.8125 54.890625 23.390625 
Q 54.890625 11.625 47.5625 5.09375 
Q 40.234375 -1.421875 26.90625 -1.421875 
Q 22.3125 -1.421875 17.546875 -0.640625 
Q 12.796875 0.140625 7.71875 1.703125 
L 7.71875 11.625 
Q 12.109375 9.234375 16.796875 8.0625 
Q 21.484375 6.890625 26.703125 6.890625 
Q 35.15625 6.890625 40.078125 11.328125 
Q 45.015625 15.765625 45.015625 23.390625 
Q 45.015625 31 40.078125 35.4375 
Q 35.15625 39.890625 26.703125 39.890625 
Q 22.75 39.890625 18.8125 39.015625 
Q 14.890625 38.140625 10.796875 36.28125 
z
" id="DejaVuSans-53"/>
      </defs>
      <g style="fill:#555555;" transform="translate(128.780146 401.798437)scale(0.1 -0.1)">
       <use xlink:href="#DejaVuSans-48"/>
       <use x="63.623047" xlink:href="#DejaVuSans-46"/>
       <use x="95.410156" xlink:href="#DejaVuSans-54"/>
       <use x="159.033203" xlink:href="#DejaVuSans-53"/>
      </g>
     </g>
    </g>
    <g id="xtick_3">
     <g id="line2d_5">
      <path clip-path="url(#p72e3bef84e)" d="M 197.988507 387.2 
L 197.988507 50.916 
" style="fill:none;stroke:#ffffff;stroke-linecap:square;stroke-width:0.8;"/>
     </g>
     <g id="line2d_6">
      <g>
       <use style="fill:#555555;stroke:#555555;stroke-width:0.8;" x="197.988507" xlink:href="#mc64405eeff" y="387.2"/>
      </g>
     </g>
     <g id="text_3">
      <!-- 0.70 -->
      <defs>
       <path d="M 8.203125 72.90625 
L 55.078125 72.90625 
L 55.078125 68.703125 
L 28.609375 0 
L 18.3125 0 
L 43.21875 64.59375 
L 8.203125 64.59375 
z
" id="DejaVuSans-55"/>
      </defs>
      <g style="fill:#555555;" transform="translate(186.855694 401.798437)scale(0.1 -0.1)">
       <use xlink:href="#DejaVuSans-48"/>
       <use x="63.623047" xlink:href="#DejaVuSans-46"/>
       <use x="95.410156" xlink:href="#DejaVuSans-55"/>
       <use x="159.033203" xlink:href="#DejaVuSans-48"/>
      </g>
     </g>
    </g>
    <g id="xtick_4">
     <g id="line2d_7">
      <path clip-path="url(#p72e3bef84e)" d="M 256.064055 387.2 
L 256.064055 50.916 
" style="fill:none;stroke:#ffffff;stroke-linecap:square;stroke-width:0.8;"/>
     </g>
     <g id="line2d_8">
      <g>
       <use style="fill:#555555;stroke:#555555;stroke-width:0.8;" x="256.064055" xlink:href="#mc64405eeff" y="387.2"/>
      </g>
     </g>
     <g id="text_4">
      <!-- 0.75 -->
      <g style="fill:#555555;" transform="translate(244.931242 401.798437)scale(0.1 -0.1)">
       <use xlink:href="#DejaVuSans-48"/>
       <use x="63.623047" xlink:href="#DejaVuSans-46"/>
       <use x="95.410156" xlink:href="#DejaVuSans-55"/>
       <use x="159.033203" xlink:href="#DejaVuSans-53"/>
      </g>
     </g>
    </g>
    <g id="xtick_5">
     <g id="line2d_9">
      <path clip-path="url(#p72e3bef84e)" d="M 314.139603 387.2 
L 314.139603 50.916 
" style="fill:none;stroke:#ffffff;stroke-linecap:square;stroke-width:0.8;"/>
     </g>
     <g id="line2d_10">
      <g>
       <use style="fill:#555555;stroke:#555555;stroke-width:0.8;" x="314.139603" xlink:href="#mc64405eeff" y="387.2"/>
      </g>
     </g>
     <g id="text_5">
      <!-- 0.80 -->
      <defs>
       <path d="M 31.78125 34.625 
Q 24.75 34.625 20.71875 30.859375 
Q 16.703125 27.09375 16.703125 20.515625 
Q 16.703125 13.921875 20.71875 10.15625 
Q 24.75 6.390625 31.78125 6.390625 
Q 38.8125 6.390625 42.859375 10.171875 
Q 46.921875 13.96875 46.921875 20.515625 
Q 46.921875 27.09375 42.890625 30.859375 
Q 38.875 34.625 31.78125 34.625 
z
M 21.921875 38.8125 
Q 15.578125 40.375 12.03125 44.71875 
Q 8.5 49.078125 8.5 55.328125 
Q 8.5 64.0625 14.71875 69.140625 
Q 20.953125 74.21875 31.78125 74.21875 
Q 42.671875 74.21875 48.875 69.140625 
Q 55.078125 64.0625 55.078125 55.328125 
Q 55.078125 49.078125 51.53125 44.71875 
Q 48 40.375 41.703125 38.8125 
Q 48.828125 37.15625 52.796875 32.3125 
Q 56.78125 27.484375 56.78125 20.515625 
Q 56.78125 9.90625 50.3125 4.234375 
Q 43.84375 -1.421875 31.78125 -1.421875 
Q 19.734375 -1.421875 13.25 4.234375 
Q 6.78125 9.90625 6.78125 20.515625 
Q 6.78125 27.484375 10.78125 32.3125 
Q 14.796875 37.15625 21.921875 38.8125 
z
M 18.3125 54.390625 
Q 18.3125 48.734375 21.84375 45.5625 
Q 25.390625 42.390625 31.78125 42.390625 
Q 38.140625 42.390625 41.71875 45.5625 
Q 45.3125 48.734375 45.3125 54.390625 
Q 45.3125 60.0625 41.71875 63.234375 
Q 38.140625 66.40625 31.78125 66.40625 
Q 25.390625 66.40625 21.84375 63.234375 
Q 18.3125 60.0625 18.3125 54.390625 
z
" id="DejaVuSans-56"/>
      </defs>
      <g style="fill:#555555;" transform="translate(303.006791 401.798437)scale(0.1 -0.1)">
       <use xlink:href="#DejaVuSans-48"/>
       <use x="63.623047" xlink:href="#DejaVuSans-46"/>
       <use x="95.410156" xlink:href="#DejaVuSans-56"/>
       <use x="159.033203" xlink:href="#DejaVuSans-48"/>
      </g>
     </g>
    </g>
    <g id="xtick_6">
     <g id="line2d_11">
      <path clip-path="url(#p72e3bef84e)" d="M 372.215151 387.2 
L 372.215151 50.916 
" style="fill:none;stroke:#ffffff;stroke-linecap:square;stroke-width:0.8;"/>
     </g>
     <g id="line2d_12">
      <g>
       <use style="fill:#555555;stroke:#555555;stroke-width:0.8;" x="372.215151" xlink:href="#mc64405eeff" y="387.2"/>
      </g>
     </g>
     <g id="text_6">
      <!-- 0.85 -->
      <g style="fill:#555555;" transform="translate(361.082339 401.798437)scale(0.1 -0.1)">
       <use xlink:href="#DejaVuSans-48"/>
       <use x="63.623047" xlink:href="#DejaVuSans-46"/>
       <use x="95.410156" xlink:href="#DejaVuSans-56"/>
       <use x="159.033203" xlink:href="#DejaVuSans-53"/>
      </g>
     </g>
    </g>
    <g id="xtick_7">
     <g id="line2d_13">
      <path clip-path="url(#p72e3bef84e)" d="M 430.2907 387.2 
L 430.2907 50.916 
" style="fill:none;stroke:#ffffff;stroke-linecap:square;stroke-width:0.8;"/>
     </g>
     <g id="line2d_14">
      <g>
       <use style="fill:#555555;stroke:#555555;stroke-width:0.8;" x="430.2907" xlink:href="#mc64405eeff" y="387.2"/>
      </g>
     </g>
     <g id="text_7">
      <!-- 0.90 -->
      <defs>
       <path d="M 10.984375 1.515625 
L 10.984375 10.5 
Q 14.703125 8.734375 18.5 7.8125 
Q 22.3125 6.890625 25.984375 6.890625 
Q 35.75 6.890625 40.890625 13.453125 
Q 46.046875 20.015625 46.78125 33.40625 
Q 43.953125 29.203125 39.59375 26.953125 
Q 35.25 24.703125 29.984375 24.703125 
Q 19.046875 24.703125 12.671875 31.3125 
Q 6.296875 37.9375 6.296875 49.421875 
Q 6.296875 60.640625 12.9375 67.421875 
Q 19.578125 74.21875 30.609375 74.21875 
Q 43.265625 74.21875 49.921875 64.515625 
Q 56.59375 54.828125 56.59375 36.375 
Q 56.59375 19.140625 48.40625 8.859375 
Q 40.234375 -1.421875 26.421875 -1.421875 
Q 22.703125 -1.421875 18.890625 -0.6875 
Q 15.09375 0.046875 10.984375 1.515625 
z
M 30.609375 32.421875 
Q 37.25 32.421875 41.125 36.953125 
Q 45.015625 41.5 45.015625 49.421875 
Q 45.015625 57.28125 41.125 61.84375 
Q 37.25 66.40625 30.609375 66.40625 
Q 23.96875 66.40625 20.09375 61.84375 
Q 16.21875 57.28125 16.21875 49.421875 
Q 16.21875 41.5 20.09375 36.953125 
Q 23.96875 32.421875 30.609375 32.421875 
z
" id="DejaVuSans-57"/>
      </defs>
      <g style="fill:#555555;" transform="translate(419.157887 401.798437)scale(0.1 -0.1)">
       <use xlink:href="#DejaVuSans-48"/>
       <use x="63.623047" xlink:href="#DejaVuSans-46"/>
       <use x="95.410156" xlink:href="#DejaVuSans-57"/>
       <use x="159.033203" xlink:href="#DejaVuSans-48"/>
      </g>
     </g>
    </g>
    <g id="xtick_8">
     <g id="line2d_15">
      <path clip-path="url(#p72e3bef84e)" d="M 488.366248 387.2 
L 488.366248 50.916 
" style="fill:none;stroke:#ffffff;stroke-linecap:square;stroke-width:0.8;"/>
     </g>
     <g id="line2d_16">
      <g>
       <use style="fill:#555555;stroke:#555555;stroke-width:0.8;" x="488.366248" xlink:href="#mc64405eeff" y="387.2"/>
      </g>
     </g>
     <g id="text_8">
      <!-- 0.95 -->
      <g style="fill:#555555;" transform="translate(477.233435 401.798437)scale(0.1 -0.1)">
       <use xlink:href="#DejaVuSans-48"/>
       <use x="63.623047" xlink:href="#DejaVuSans-46"/>
       <use x="95.410156" xlink:href="#DejaVuSans-57"/>
       <use x="159.033203" xlink:href="#DejaVuSans-53"/>
      </g>
     </g>
    </g>
    <g id="xtick_9">
     <g id="line2d_17">
      <path clip-path="url(#p72e3bef84e)" d="M 546.441796 387.2 
L 546.441796 50.916 
" style="fill:none;stroke:#ffffff;stroke-linecap:square;stroke-width:0.8;"/>
     </g>
     <g id="line2d_18">
      <g>
       <use style="fill:#555555;stroke:#555555;stroke-width:0.8;" x="546.441796" xlink:href="#mc64405eeff" y="387.2"/>
      </g>
     </g>
     <g id="text_9">
      <!-- 1.00 -->
      <defs>
       <path d="M 12.40625 8.296875 
L 28.515625 8.296875 
L 28.515625 63.921875 
L 10.984375 60.40625 
L 10.984375 69.390625 
L 28.421875 72.90625 
L 38.28125 72.90625 
L 38.28125 8.296875 
L 54.390625 8.296875 
L 54.390625 0 
L 12.40625 0 
z
" id="DejaVuSans-49"/>
      </defs>
      <g style="fill:#555555;" transform="translate(535.308984 401.798437)scale(0.1 -0.1)">
       <use xlink:href="#DejaVuSans-49"/>
       <use x="63.623047" xlink:href="#DejaVuSans-46"/>
       <use x="95.410156" xlink:href="#DejaVuSans-48"/>
       <use x="159.033203" xlink:href="#DejaVuSans-48"/>
      </g>
     </g>
    </g>
    <g id="text_10">
     <!-- Incorporation Rate -->
     <defs>
      <path d="M 9.8125 72.90625 
L 19.671875 72.90625 
L 19.671875 0 
L 9.8125 0 
z
" id="DejaVuSans-73"/>
      <path d="M 54.890625 33.015625 
L 54.890625 0 
L 45.90625 0 
L 45.90625 32.71875 
Q 45.90625 40.484375 42.875 44.328125 
Q 39.84375 48.1875 33.796875 48.1875 
Q 26.515625 48.1875 22.3125 43.546875 
Q 18.109375 38.921875 18.109375 30.90625 
L 18.109375 0 
L 9.078125 0 
L 9.078125 54.6875 
L 18.109375 54.6875 
L 18.109375 46.1875 
Q 21.34375 51.125 25.703125 53.5625 
Q 30.078125 56 35.796875 56 
Q 45.21875 56 50.046875 50.171875 
Q 54.890625 44.34375 54.890625 33.015625 
z
" id="DejaVuSans-110"/>
      <path d="M 48.78125 52.59375 
L 48.78125 44.1875 
Q 44.96875 46.296875 41.140625 47.34375 
Q 37.3125 48.390625 33.40625 48.390625 
Q 24.65625 48.390625 19.8125 42.84375 
Q 14.984375 37.3125 14.984375 27.296875 
Q 14.984375 17.28125 19.8125 11.734375 
Q 24.65625 6.203125 33.40625 6.203125 
Q 37.3125 6.203125 41.140625 7.25 
Q 44.96875 8.296875 48.78125 10.40625 
L 48.78125 2.09375 
Q 45.015625 0.34375 40.984375 -0.53125 
Q 36.96875 -1.421875 32.421875 -1.421875 
Q 20.0625 -1.421875 12.78125 6.34375 
Q 5.515625 14.109375 5.515625 27.296875 
Q 5.515625 40.671875 12.859375 48.328125 
Q 20.21875 56 33.015625 56 
Q 37.15625 56 41.109375 55.140625 
Q 45.0625 54.296875 48.78125 52.59375 
z
" id="DejaVuSans-99"/>
      <path d="M 30.609375 48.390625 
Q 23.390625 48.390625 19.1875 42.75 
Q 14.984375 37.109375 14.984375 27.296875 
Q 14.984375 17.484375 19.15625 11.84375 
Q 23.34375 6.203125 30.609375 6.203125 
Q 37.796875 6.203125 41.984375 11.859375 
Q 46.1875 17.53125 46.1875 27.296875 
Q 46.1875 37.015625 41.984375 42.703125 
Q 37.796875 48.390625 30.609375 48.390625 
z
M 30.609375 56 
Q 42.328125 56 49.015625 48.375 
Q 55.71875 40.765625 55.71875 27.296875 
Q 55.71875 13.875 49.015625 6.21875 
Q 42.328125 -1.421875 30.609375 -1.421875 
Q 18.84375 -1.421875 12.171875 6.21875 
Q 5.515625 13.875 5.515625 27.296875 
Q 5.515625 40.765625 12.171875 48.375 
Q 18.84375 56 30.609375 56 
z
" id="DejaVuSans-111"/>
      <path d="M 41.109375 46.296875 
Q 39.59375 47.171875 37.8125 47.578125 
Q 36.03125 48 33.890625 48 
Q 26.265625 48 22.1875 43.046875 
Q 18.109375 38.09375 18.109375 28.8125 
L 18.109375 0 
L 9.078125 0 
L 9.078125 54.6875 
L 18.109375 54.6875 
L 18.109375 46.1875 
Q 20.953125 51.171875 25.484375 53.578125 
Q 30.03125 56 36.53125 56 
Q 37.453125 56 38.578125 55.875 
Q 39.703125 55.765625 41.0625 55.515625 
z
" id="DejaVuSans-114"/>
      <path d="M 18.109375 8.203125 
L 18.109375 -20.796875 
L 9.078125 -20.796875 
L 9.078125 54.6875 
L 18.109375 54.6875 
L 18.109375 46.390625 
Q 20.953125 51.265625 25.265625 53.625 
Q 29.59375 56 35.59375 56 
Q 45.5625 56 51.78125 48.09375 
Q 58.015625 40.1875 58.015625 27.296875 
Q 58.015625 14.40625 51.78125 6.484375 
Q 45.5625 -1.421875 35.59375 -1.421875 
Q 29.59375 -1.421875 25.265625 0.953125 
Q 20.953125 3.328125 18.109375 8.203125 
z
M 48.6875 27.296875 
Q 48.6875 37.203125 44.609375 42.84375 
Q 40.53125 48.484375 33.40625 48.484375 
Q 26.265625 48.484375 22.1875 42.84375 
Q 18.109375 37.203125 18.109375 27.296875 
Q 18.109375 17.390625 22.1875 11.75 
Q 26.265625 6.109375 33.40625 6.109375 
Q 40.53125 6.109375 44.609375 11.75 
Q 48.6875 17.390625 48.6875 27.296875 
z
" id="DejaVuSans-112"/>
      <path d="M 34.28125 27.484375 
Q 23.390625 27.484375 19.1875 25 
Q 14.984375 22.515625 14.984375 16.5 
Q 14.984375 11.71875 18.140625 8.90625 
Q 21.296875 6.109375 26.703125 6.109375 
Q 34.1875 6.109375 38.703125 11.40625 
Q 43.21875 16.703125 43.21875 25.484375 
L 43.21875 27.484375 
z
M 52.203125 31.203125 
L 52.203125 0 
L 43.21875 0 
L 43.21875 8.296875 
Q 40.140625 3.328125 35.546875 0.953125 
Q 30.953125 -1.421875 24.3125 -1.421875 
Q 15.921875 -1.421875 10.953125 3.296875 
Q 6 8.015625 6 15.921875 
Q 6 25.140625 12.171875 29.828125 
Q 18.359375 34.515625 30.609375 34.515625 
L 43.21875 34.515625 
L 43.21875 35.40625 
Q 43.21875 41.609375 39.140625 45 
Q 35.0625 48.390625 27.6875 48.390625 
Q 23 48.390625 18.546875 47.265625 
Q 14.109375 46.140625 10.015625 43.890625 
L 10.015625 52.203125 
Q 14.9375 54.109375 19.578125 55.046875 
Q 24.21875 56 28.609375 56 
Q 40.484375 56 46.34375 49.84375 
Q 52.203125 43.703125 52.203125 31.203125 
z
" id="DejaVuSans-97"/>
      <path d="M 18.3125 70.21875 
L 18.3125 54.6875 
L 36.8125 54.6875 
L 36.8125 47.703125 
L 18.3125 47.703125 
L 18.3125 18.015625 
Q 18.3125 11.328125 20.140625 9.421875 
Q 21.96875 7.515625 27.59375 7.515625 
L 36.8125 7.515625 
L 36.8125 0 
L 27.59375 0 
Q 17.1875 0 13.234375 3.875 
Q 9.28125 7.765625 9.28125 18.015625 
L 9.28125 47.703125 
L 2.6875 47.703125 
L 2.6875 54.6875 
L 9.28125 54.6875 
L 9.28125 70.21875 
z
" id="DejaVuSans-116"/>
      <path d="M 9.421875 54.6875 
L 18.40625 54.6875 
L 18.40625 0 
L 9.421875 0 
z
M 9.421875 75.984375 
L 18.40625 75.984375 
L 18.40625 64.59375 
L 9.421875 64.59375 
z
" id="DejaVuSans-105"/>
      <path id="DejaVuSans-32"/>
      <path d="M 44.390625 34.1875 
Q 47.5625 33.109375 50.5625 29.59375 
Q 53.5625 26.078125 56.59375 19.921875 
L 66.609375 0 
L 56 0 
L 46.6875 18.703125 
Q 43.0625 26.03125 39.671875 28.421875 
Q 36.28125 30.8125 30.421875 30.8125 
L 19.671875 30.8125 
L 19.671875 0 
L 9.8125 0 
L 9.8125 72.90625 
L 32.078125 72.90625 
Q 44.578125 72.90625 50.734375 67.671875 
Q 56.890625 62.453125 56.890625 51.90625 
Q 56.890625 45.015625 53.6875 40.46875 
Q 50.484375 35.9375 44.390625 34.1875 
z
M 19.671875 64.796875 
L 19.671875 38.921875 
L 32.078125 38.921875 
Q 39.203125 38.921875 42.84375 42.21875 
Q 46.484375 45.515625 46.484375 51.90625 
Q 46.484375 58.296875 42.84375 61.546875 
Q 39.203125 64.796875 32.078125 64.796875 
z
" id="DejaVuSans-82"/>
      <path d="M 56.203125 29.59375 
L 56.203125 25.203125 
L 14.890625 25.203125 
Q 15.484375 15.921875 20.484375 11.0625 
Q 25.484375 6.203125 34.421875 6.203125 
Q 39.59375 6.203125 44.453125 7.46875 
Q 49.3125 8.734375 54.109375 11.28125 
L 54.109375 2.78125 
Q 49.265625 0.734375 44.1875 -0.34375 
Q 39.109375 -1.421875 33.890625 -1.421875 
Q 20.796875 -1.421875 13.15625 6.1875 
Q 5.515625 13.8125 5.515625 26.8125 
Q 5.515625 40.234375 12.765625 48.109375 
Q 20.015625 56 32.328125 56 
Q 43.359375 56 49.78125 48.890625 
Q 56.203125 41.796875 56.203125 29.59375 
z
M 47.21875 32.234375 
Q 47.125 39.59375 43.09375 43.984375 
Q 39.0625 48.390625 32.421875 48.390625 
Q 24.90625 48.390625 20.390625 44.140625 
Q 15.875 39.890625 15.1875 32.171875 
z
" id="DejaVuSans-101"/>
     </defs>
     <g style="fill:#555555;" transform="translate(257.654063 416.99625)scale(0.12 -0.12)">
      <use xlink:href="#DejaVuSans-73"/>
      <use x="29.492188" xlink:href="#DejaVuSans-110"/>
      <use x="92.871094" xlink:href="#DejaVuSans-99"/>
      <use x="147.851562" xlink:href="#DejaVuSans-111"/>
      <use x="209.033203" xlink:href="#DejaVuSans-114"/>
      <use x="250.146484" xlink:href="#DejaVuSans-112"/>
      <use x="313.623047" xlink:href="#DejaVuSans-111"/>
      <use x="374.804688" xlink:href="#DejaVuSans-114"/>
      <use x="415.917969" xlink:href="#DejaVuSans-97"/>
      <use x="477.197266" xlink:href="#DejaVuSans-116"/>
      <use x="516.40625" xlink:href="#DejaVuSans-105"/>
      <use x="544.189453" xlink:href="#DejaVuSans-111"/>
      <use x="605.371094" xlink:href="#DejaVuSans-110"/>
      <use x="668.75" xlink:href="#DejaVuSans-32"/>
      <use x="700.537109" xlink:href="#DejaVuSans-82"/>
      <use x="769.988281" xlink:href="#DejaVuSans-97"/>
      <use x="831.267578" xlink:href="#DejaVuSans-116"/>
      <use x="870.476562" xlink:href="#DejaVuSans-101"/>
     </g>
    </g>
   </g>
   <g id="matplotlib.axis_2">
    <g id="ytick_1">
     <g id="line2d_19">
      <path clip-path="url(#p72e3bef84e)" d="M 60.05 387.2 
L 567.1 387.2 
" style="fill:none;stroke:#ffffff;stroke-linecap:square;stroke-width:0.8;"/>
     </g>
     <g id="line2d_20">
      <defs>
       <path d="M 0 0 
L -3.5 0 
" id="mad71953675" style="stroke:#555555;stroke-width:0.8;"/>
      </defs>
      <g>
       <use style="fill:#555555;stroke:#555555;stroke-width:0.8;" x="60.05" xlink:href="#mad71953675" y="387.2"/>
      </g>
     </g>
     <g id="text_11">
      <!-- 0 -->
      <g style="fill:#555555;" transform="translate(46.6875 390.999219)scale(0.1 -0.1)">
       <use xlink:href="#DejaVuSans-48"/>
      </g>
     </g>
    </g>
    <g id="ytick_2">
     <g id="line2d_21">
      <path clip-path="url(#p72e3bef84e)" d="M 60.05 332.028514 
L 567.1 332.028514 
" style="fill:none;stroke:#ffffff;stroke-linecap:square;stroke-width:0.8;"/>
     </g>
     <g id="line2d_22">
      <g>
       <use style="fill:#555555;stroke:#555555;stroke-width:0.8;" x="60.05" xlink:href="#mad71953675" y="332.028514"/>
      </g>
     </g>
     <g id="text_12">
      <!-- 200 -->
      <defs>
       <path d="M 19.1875 8.296875 
L 53.609375 8.296875 
L 53.609375 0 
L 7.328125 0 
L 7.328125 8.296875 
Q 12.9375 14.109375 22.625 23.890625 
Q 32.328125 33.6875 34.8125 36.53125 
Q 39.546875 41.84375 41.421875 45.53125 
Q 43.3125 49.21875 43.3125 52.78125 
Q 43.3125 58.59375 39.234375 62.25 
Q 35.15625 65.921875 28.609375 65.921875 
Q 23.96875 65.921875 18.8125 64.3125 
Q 13.671875 62.703125 7.8125 59.421875 
L 7.8125 69.390625 
Q 13.765625 71.78125 18.9375 73 
Q 24.125 74.21875 28.421875 74.21875 
Q 39.75 74.21875 46.484375 68.546875 
Q 53.21875 62.890625 53.21875 53.421875 
Q 53.21875 48.921875 51.53125 44.890625 
Q 49.859375 40.875 45.40625 35.40625 
Q 44.1875 33.984375 37.640625 27.21875 
Q 31.109375 20.453125 19.1875 8.296875 
z
" id="DejaVuSans-50"/>
      </defs>
      <g style="fill:#555555;" transform="translate(33.9625 335.827733)scale(0.1 -0.1)">
       <use xlink:href="#DejaVuSans-50"/>
       <use x="63.623047" xlink:href="#DejaVuSans-48"/>
       <use x="127.246094" xlink:href="#DejaVuSans-48"/>
      </g>
     </g>
    </g>
    <g id="ytick_3">
     <g id="line2d_23">
      <path clip-path="url(#p72e3bef84e)" d="M 60.05 276.857028 
L 567.1 276.857028 
" style="fill:none;stroke:#ffffff;stroke-linecap:square;stroke-width:0.8;"/>
     </g>
     <g id="line2d_24">
      <g>
       <use style="fill:#555555;stroke:#555555;stroke-width:0.8;" x="60.05" xlink:href="#mad71953675" y="276.857028"/>
      </g>
     </g>
     <g id="text_13">
      <!-- 400 -->
      <defs>
       <path d="M 37.796875 64.3125 
L 12.890625 25.390625 
L 37.796875 25.390625 
z
M 35.203125 72.90625 
L 47.609375 72.90625 
L 47.609375 25.390625 
L 58.015625 25.390625 
L 58.015625 17.1875 
L 47.609375 17.1875 
L 47.609375 0 
L 37.796875 0 
L 37.796875 17.1875 
L 4.890625 17.1875 
L 4.890625 26.703125 
z
" id="DejaVuSans-52"/>
      </defs>
      <g style="fill:#555555;" transform="translate(33.9625 280.656247)scale(0.1 -0.1)">
       <use xlink:href="#DejaVuSans-52"/>
       <use x="63.623047" xlink:href="#DejaVuSans-48"/>
       <use x="127.246094" xlink:href="#DejaVuSans-48"/>
      </g>
     </g>
    </g>
    <g id="ytick_4">
     <g id="line2d_25">
      <path clip-path="url(#p72e3bef84e)" d="M 60.05 221.685542 
L 567.1 221.685542 
" style="fill:none;stroke:#ffffff;stroke-linecap:square;stroke-width:0.8;"/>
     </g>
     <g id="line2d_26">
      <g>
       <use style="fill:#555555;stroke:#555555;stroke-width:0.8;" x="60.05" xlink:href="#mad71953675" y="221.685542"/>
      </g>
     </g>
     <g id="text_14">
      <!-- 600 -->
      <g style="fill:#555555;" transform="translate(33.9625 225.484761)scale(0.1 -0.1)">
       <use xlink:href="#DejaVuSans-54"/>
       <use x="63.623047" xlink:href="#DejaVuSans-48"/>
       <use x="127.246094" xlink:href="#DejaVuSans-48"/>
      </g>
     </g>
    </g>
    <g id="ytick_5">
     <g id="line2d_27">
      <path clip-path="url(#p72e3bef84e)" d="M 60.05 166.514056 
L 567.1 166.514056 
" style="fill:none;stroke:#ffffff;stroke-linecap:square;stroke-width:0.8;"/>
     </g>
     <g id="line2d_28">
      <g>
       <use style="fill:#555555;stroke:#555555;stroke-width:0.8;" x="60.05" xlink:href="#mad71953675" y="166.514056"/>
      </g>
     </g>
     <g id="text_15">
      <!-- 800 -->
      <g style="fill:#555555;" transform="translate(33.9625 170.313275)scale(0.1 -0.1)">
       <use xlink:href="#DejaVuSans-56"/>
       <use x="63.623047" xlink:href="#DejaVuSans-48"/>
       <use x="127.246094" xlink:href="#DejaVuSans-48"/>
      </g>
     </g>
    </g>
    <g id="ytick_6">
     <g id="line2d_29">
      <path clip-path="url(#p72e3bef84e)" d="M 60.05 111.34257 
L 567.1 111.34257 
" style="fill:none;stroke:#ffffff;stroke-linecap:square;stroke-width:0.8;"/>
     </g>
     <g id="line2d_30">
      <g>
       <use style="fill:#555555;stroke:#555555;stroke-width:0.8;" x="60.05" xlink:href="#mad71953675" y="111.34257"/>
      </g>
     </g>
     <g id="text_16">
      <!-- 1000 -->
      <g style="fill:#555555;" transform="translate(27.6 115.141789)scale(0.1 -0.1)">
       <use xlink:href="#DejaVuSans-49"/>
       <use x="63.623047" xlink:href="#DejaVuSans-48"/>
       <use x="127.246094" xlink:href="#DejaVuSans-48"/>
       <use x="190.869141" xlink:href="#DejaVuSans-48"/>
      </g>
     </g>
    </g>
    <g id="ytick_7">
     <g id="line2d_31">
      <path clip-path="url(#p72e3bef84e)" d="M 60.05 56.171084 
L 567.1 56.171084 
" style="fill:none;stroke:#ffffff;stroke-linecap:square;stroke-width:0.8;"/>
     </g>
     <g id="line2d_32">
      <g>
       <use style="fill:#555555;stroke:#555555;stroke-width:0.8;" x="60.05" xlink:href="#mad71953675" y="56.171084"/>
      </g>
     </g>
     <g id="text_17">
      <!-- 1200 -->
      <g style="fill:#555555;" transform="translate(27.6 59.970303)scale(0.1 -0.1)">
       <use xlink:href="#DejaVuSans-49"/>
       <use x="63.623047" xlink:href="#DejaVuSans-50"/>
       <use x="127.246094" xlink:href="#DejaVuSans-48"/>
       <use x="190.869141" xlink:href="#DejaVuSans-48"/>
      </g>
     </g>
    </g>
    <g id="text_18">
     <!-- Frequency -->
     <defs>
      <path d="M 9.8125 72.90625 
L 51.703125 72.90625 
L 51.703125 64.59375 
L 19.671875 64.59375 
L 19.671875 43.109375 
L 48.578125 43.109375 
L 48.578125 34.8125 
L 19.671875 34.8125 
L 19.671875 0 
L 9.8125 0 
z
" id="DejaVuSans-70"/>
      <path d="M 14.796875 27.296875 
Q 14.796875 17.390625 18.875 11.75 
Q 22.953125 6.109375 30.078125 6.109375 
Q 37.203125 6.109375 41.296875 11.75 
Q 45.40625 17.390625 45.40625 27.296875 
Q 45.40625 37.203125 41.296875 42.84375 
Q 37.203125 48.484375 30.078125 48.484375 
Q 22.953125 48.484375 18.875 42.84375 
Q 14.796875 37.203125 14.796875 27.296875 
z
M 45.40625 8.203125 
Q 42.578125 3.328125 38.25 0.953125 
Q 33.9375 -1.421875 27.875 -1.421875 
Q 17.96875 -1.421875 11.734375 6.484375 
Q 5.515625 14.40625 5.515625 27.296875 
Q 5.515625 40.1875 11.734375 48.09375 
Q 17.96875 56 27.875 56 
Q 33.9375 56 38.25 53.625 
Q 42.578125 51.265625 45.40625 46.390625 
L 45.40625 54.6875 
L 54.390625 54.6875 
L 54.390625 -20.796875 
L 45.40625 -20.796875 
z
" id="DejaVuSans-113"/>
      <path d="M 8.5 21.578125 
L 8.5 54.6875 
L 17.484375 54.6875 
L 17.484375 21.921875 
Q 17.484375 14.15625 20.5 10.265625 
Q 23.53125 6.390625 29.59375 6.390625 
Q 36.859375 6.390625 41.078125 11.03125 
Q 45.3125 15.671875 45.3125 23.6875 
L 45.3125 54.6875 
L 54.296875 54.6875 
L 54.296875 0 
L 45.3125 0 
L 45.3125 8.40625 
Q 42.046875 3.421875 37.71875 1 
Q 33.40625 -1.421875 27.6875 -1.421875 
Q 18.265625 -1.421875 13.375 4.4375 
Q 8.5 10.296875 8.5 21.578125 
z
M 31.109375 56 
z
" id="DejaVuSans-117"/>
      <path d="M 32.171875 -5.078125 
Q 28.375 -14.84375 24.75 -17.8125 
Q 21.140625 -20.796875 15.09375 -20.796875 
L 7.90625 -20.796875 
L 7.90625 -13.28125 
L 13.1875 -13.28125 
Q 16.890625 -13.28125 18.9375 -11.515625 
Q 21 -9.765625 23.484375 -3.21875 
L 25.09375 0.875 
L 2.984375 54.6875 
L 12.5 54.6875 
L 29.59375 11.921875 
L 46.6875 54.6875 
L 56.203125 54.6875 
z
" id="DejaVuSans-121"/>
     </defs>
     <g style="fill:#555555;" transform="translate(21.104375 250.615188)rotate(-90)scale(0.12 -0.12)">
      <use xlink:href="#DejaVuSans-70"/>
      <use x="57.410156" xlink:href="#DejaVuSans-114"/>
      <use x="98.492188" xlink:href="#DejaVuSans-101"/>
      <use x="160.015625" xlink:href="#DejaVuSans-113"/>
      <use x="223.492188" xlink:href="#DejaVuSans-117"/>
      <use x="286.871094" xlink:href="#DejaVuSans-101"/>
      <use x="348.394531" xlink:href="#DejaVuSans-110"/>
      <use x="411.773438" xlink:href="#DejaVuSans-99"/>
      <use x="466.753906" xlink:href="#DejaVuSans-121"/>
     </g>
    </g>
   </g>
   <g id="patch_3">
    <path clip-path="url(#p72e3bef84e)" d="M 86.874303 387.2 
L 96.017839 387.2 
L 96.017839 386.09657 
L 86.874303 386.09657 
z
" style="fill:#988ed5;"/>
   </g>
   <g id="patch_4">
    <path clip-path="url(#p72e3bef84e)" d="M 96.017839 387.2 
L 105.161444 387.2 
L 105.161444 386.09657 
L 96.017839 386.09657 
z
" style="fill:#988ed5;"/>
   </g>
   <g id="patch_5">
    <path clip-path="url(#p72e3bef84e)" d="M 105.161444 387.2 
L 114.30498 387.2 
L 114.30498 386.372428 
L 105.161444 386.372428 
z
" style="fill:#988ed5;"/>
   </g>
   <g id="patch_6">
    <path clip-path="url(#p72e3bef84e)" d="M 114.30498 387.2 
L 123.448515 387.2 
L 123.448515 385.268998 
L 114.30498 385.268998 
z
" style="fill:#988ed5;"/>
   </g>
   <g id="patch_7">
    <path clip-path="url(#p72e3bef84e)" d="M 123.448585 387.2 
L 132.59219 387.2 
L 132.59219 386.648285 
L 123.448585 386.648285 
z
" style="fill:#988ed5;"/>
   </g>
   <g id="patch_8">
    <path clip-path="url(#p72e3bef84e)" d="M 132.592121 387.2 
L 141.735656 387.2 
L 141.735656 386.648285 
L 132.592121 386.648285 
z
" style="fill:#988ed5;"/>
   </g>
   <g id="patch_9">
    <path clip-path="url(#p72e3bef84e)" d="M 141.735656 387.2 
L 150.879192 387.2 
L 150.879192 386.372428 
L 141.735656 386.372428 
z
" style="fill:#988ed5;"/>
   </g>
   <g id="patch_10">
    <path clip-path="url(#p72e3bef84e)" d="M 150.879192 387.2 
L 160.022797 387.2 
L 160.022797 386.924143 
L 150.879192 386.924143 
z
" style="fill:#988ed5;"/>
   </g>
   <g id="patch_11">
    <path clip-path="url(#p72e3bef84e)" d="M 160.022797 387.2 
L 169.166333 387.2 
L 169.166333 386.648285 
L 160.022797 386.648285 
z
" style="fill:#988ed5;"/>
   </g>
   <g id="patch_12">
    <path clip-path="url(#p72e3bef84e)" d="M 169.166333 387.2 
L 178.309869 387.2 
L 178.309869 386.924143 
L 169.166333 386.924143 
z
" style="fill:#988ed5;"/>
   </g>
   <g id="patch_13">
    <path clip-path="url(#p72e3bef84e)" d="M 178.309938 387.2 
L 187.453543 387.2 
L 187.453543 386.648285 
L 178.309938 386.648285 
z
" style="fill:#988ed5;"/>
   </g>
   <g id="patch_14">
    <path clip-path="url(#p72e3bef84e)" d="M 187.453474 387.2 
L 196.59701 387.2 
L 196.59701 384.993141 
L 187.453474 384.993141 
z
" style="fill:#988ed5;"/>
   </g>
   <g id="patch_15">
    <path clip-path="url(#p72e3bef84e)" d="M 196.59701 387.2 
L 205.740546 387.2 
L 205.740546 386.648285 
L 196.59701 386.648285 
z
" style="fill:#988ed5;"/>
   </g>
   <g id="patch_16">
    <path clip-path="url(#p72e3bef84e)" d="M 205.740546 387.2 
L 214.884151 387.2 
L 214.884151 386.924143 
L 205.740546 386.924143 
z
" style="fill:#988ed5;"/>
   </g>
   <g id="patch_17">
    <path clip-path="url(#p72e3bef84e)" d="M 214.884151 387.2 
L 224.027687 387.2 
L 224.027687 385.820713 
L 214.884151 385.820713 
z
" style="fill:#988ed5;"/>
   </g>
   <g id="patch_18">
    <path clip-path="url(#p72e3bef84e)" d="M 224.027687 387.2 
L 233.171223 387.2 
L 233.171223 385.268998 
L 224.027687 385.268998 
z
" style="fill:#988ed5;"/>
   </g>
   <g id="patch_19">
    <path clip-path="url(#p72e3bef84e)" d="M 233.171292 387.2 
L 242.314897 387.2 
L 242.314897 386.648285 
L 233.171292 386.648285 
z
" style="fill:#988ed5;"/>
   </g>
   <g id="patch_20">
    <path clip-path="url(#p72e3bef84e)" d="M 242.314828 387.2 
L 251.458364 387.2 
L 251.458364 386.09657 
L 242.314828 386.09657 
z
" style="fill:#988ed5;"/>
   </g>
   <g id="patch_21">
    <path clip-path="url(#p72e3bef84e)" d="M 251.458364 387.2 
L 260.6019 387.2 
L 260.6019 386.372428 
L 251.458364 386.372428 
z
" style="fill:#988ed5;"/>
   </g>
   <g id="patch_22">
    <path clip-path="url(#p72e3bef84e)" d="M 260.6019 387.2 
L 269.745505 387.2 
L 269.745505 386.372428 
L 260.6019 386.372428 
z
" style="fill:#988ed5;"/>
   </g>
   <g id="patch_23">
    <path clip-path="url(#p72e3bef84e)" d="M 269.745505 387.2 
L 278.88904 387.2 
L 278.88904 386.648285 
L 269.745505 386.648285 
z
" style="fill:#988ed5;"/>
   </g>
   <g id="patch_24">
    <path clip-path="url(#p72e3bef84e)" d="M 278.88904 387.2 
L 288.032576 387.2 
L 288.032576 384.993141 
L 278.88904 384.993141 
z
" style="fill:#988ed5;"/>
   </g>
   <g id="patch_25">
    <path clip-path="url(#p72e3bef84e)" d="M 288.032646 387.2 
L 297.176251 387.2 
L 297.176251 385.820713 
L 288.032646 385.820713 
z
" style="fill:#988ed5;"/>
   </g>
   <g id="patch_26">
    <path clip-path="url(#p72e3bef84e)" d="M 297.176181 387.2 
L 306.319717 387.2 
L 306.319717 386.09657 
L 297.176181 386.09657 
z
" style="fill:#988ed5;"/>
   </g>
   <g id="patch_27">
    <path clip-path="url(#p72e3bef84e)" d="M 306.319717 387.2 
L 315.463253 387.2 
L 315.463253 386.09657 
L 306.319717 386.09657 
z
" style="fill:#988ed5;"/>
   </g>
   <g id="patch_28">
    <path clip-path="url(#p72e3bef84e)" d="M 315.463253 387.2 
L 324.606858 387.2 
L 324.606858 385.544855 
L 315.463253 385.544855 
z
" style="fill:#988ed5;"/>
   </g>
   <g id="patch_29">
    <path clip-path="url(#p72e3bef84e)" d="M 324.606858 387.2 
L 333.750394 387.2 
L 333.750394 386.372428 
L 324.606858 386.372428 
z
" style="fill:#988ed5;"/>
   </g>
   <g id="patch_30">
    <path clip-path="url(#p72e3bef84e)" d="M 333.750463 387.2 
L 342.894068 387.2 
L 342.894068 386.372428 
L 333.750463 386.372428 
z
" style="fill:#988ed5;"/>
   </g>
   <g id="patch_31">
    <path clip-path="url(#p72e3bef84e)" d="M 342.893999 387.2 
L 352.037535 387.2 
L 352.037535 384.717283 
L 342.893999 384.717283 
z
" style="fill:#988ed5;"/>
   </g>
   <g id="patch_32">
    <path clip-path="url(#p72e3bef84e)" d="M 352.037535 387.2 
L 361.181071 387.2 
L 361.181071 384.165568 
L 352.037535 384.165568 
z
" style="fill:#988ed5;"/>
   </g>
   <g id="patch_33">
    <path clip-path="url(#p72e3bef84e)" d="M 361.181071 387.2 
L 370.324676 387.2 
L 370.324676 386.09657 
L 361.181071 386.09657 
z
" style="fill:#988ed5;"/>
   </g>
   <g id="patch_34">
    <path clip-path="url(#p72e3bef84e)" d="M 370.324676 387.2 
L 379.468212 387.2 
L 379.468212 384.441426 
L 370.324676 384.441426 
z
" style="fill:#988ed5;"/>
   </g>
   <g id="patch_35">
    <path clip-path="url(#p72e3bef84e)" d="M 379.468212 387.2 
L 388.611748 387.2 
L 388.611748 383.889711 
L 379.468212 383.889711 
z
" style="fill:#988ed5;"/>
   </g>
   <g id="patch_36">
    <path clip-path="url(#p72e3bef84e)" d="M 388.611817 387.2 
L 397.755422 387.2 
L 397.755422 383.062139 
L 388.611817 383.062139 
z
" style="fill:#988ed5;"/>
   </g>
   <g id="patch_37">
    <path clip-path="url(#p72e3bef84e)" d="M 397.755353 387.2 
L 406.898889 387.2 
L 406.898889 384.717283 
L 397.755353 384.717283 
z
" style="fill:#988ed5;"/>
   </g>
   <g id="patch_38">
    <path clip-path="url(#p72e3bef84e)" d="M 406.898889 387.2 
L 416.042425 387.2 
L 416.042425 383.062139 
L 406.898889 383.062139 
z
" style="fill:#988ed5;"/>
   </g>
   <g id="patch_39">
    <path clip-path="url(#p72e3bef84e)" d="M 416.042425 387.2 
L 425.18603 387.2 
L 425.18603 382.510424 
L 416.042425 382.510424 
z
" style="fill:#988ed5;"/>
   </g>
   <g id="patch_40">
    <path clip-path="url(#p72e3bef84e)" d="M 425.18603 387.2 
L 434.329565 387.2 
L 434.329565 375.338131 
L 425.18603 375.338131 
z
" style="fill:#988ed5;"/>
   </g>
   <g id="patch_41">
    <path clip-path="url(#p72e3bef84e)" d="M 434.329565 387.2 
L 443.473101 387.2 
L 443.473101 376.44156 
L 434.329565 376.44156 
z
" style="fill:#988ed5;"/>
   </g>
   <g id="patch_42">
    <path clip-path="url(#p72e3bef84e)" d="M 443.473171 387.2 
L 452.616776 387.2 
L 452.616776 370.096839 
L 443.473171 370.096839 
z
" style="fill:#988ed5;"/>
   </g>
   <g id="patch_43">
    <path clip-path="url(#p72e3bef84e)" d="M 452.616706 387.2 
L 461.760242 387.2 
L 461.760242 359.3384 
L 452.616706 359.3384 
z
" style="fill:#988ed5;"/>
   </g>
   <g id="patch_44">
    <path clip-path="url(#p72e3bef84e)" d="M 461.760242 387.2 
L 470.903778 387.2 
L 470.903778 344.442098 
L 461.760242 344.442098 
z
" style="fill:#988ed5;"/>
   </g>
   <g id="patch_45">
    <path clip-path="url(#p72e3bef84e)" d="M 470.903778 387.2 
L 480.047383 387.2 
L 480.047383 303.615199 
L 470.903778 303.615199 
z
" style="fill:#988ed5;"/>
   </g>
   <g id="patch_46">
    <path clip-path="url(#p72e3bef84e)" d="M 480.047383 387.2 
L 489.190919 387.2 
L 489.190919 212.306389 
L 480.047383 212.306389 
z
" style="fill:#988ed5;"/>
   </g>
   <g id="patch_47">
    <path clip-path="url(#p72e3bef84e)" d="M 489.190919 387.2 
L 498.334455 387.2 
L 498.334455 66.929524 
L 489.190919 66.929524 
z
" style="fill:#988ed5;"/>
   </g>
   <g id="patch_48">
    <path clip-path="url(#p72e3bef84e)" d="M 498.334524 387.2 
L 507.478129 387.2 
L 507.478129 85.136114 
L 498.334524 85.136114 
z
" style="fill:#988ed5;"/>
   </g>
   <g id="patch_49">
    <path clip-path="url(#p72e3bef84e)" d="M 507.47806 387.2 
L 516.621596 387.2 
L 516.621596 260.305582 
L 507.47806 260.305582 
z
" style="fill:#988ed5;"/>
   </g>
   <g id="patch_50">
    <path clip-path="url(#p72e3bef84e)" d="M 516.621596 387.2 
L 525.765132 387.2 
L 525.765132 375.613988 
L 516.621596 375.613988 
z
" style="fill:#988ed5;"/>
   </g>
   <g id="patch_51">
    <path clip-path="url(#p72e3bef84e)" d="M 525.765132 387.2 
L 534.908737 387.2 
L 534.908737 386.372428 
L 525.765132 386.372428 
z
" style="fill:#988ed5;"/>
   </g>
   <g id="patch_52">
    <path clip-path="url(#p72e3bef84e)" d="M 534.908737 387.2 
L 544.052273 387.2 
L 544.052273 386.09657 
L 534.908737 386.09657 
z
" style="fill:#988ed5;"/>
   </g>
   <g id="patch_53">
    <path clip-path="url(#p72e3bef84e)" d="M 83.097727 387.2 
L 92.257948 387.2 
L 92.257948 386.09657 
L 83.097727 386.09657 
z
" style="fill:#777777;"/>
   </g>
   <g id="patch_54">
    <path clip-path="url(#p72e3bef84e)" d="M 92.258017 387.2 
L 101.418238 387.2 
L 101.418238 384.717283 
L 92.258017 384.717283 
z
" style="fill:#777777;"/>
   </g>
   <g id="patch_55">
    <path clip-path="url(#p72e3bef84e)" d="M 101.418169 387.2 
L 110.578458 387.2 
L 110.578458 386.09657 
L 101.418169 386.09657 
z
" style="fill:#777777;"/>
   </g>
   <g id="patch_56">
    <path clip-path="url(#p72e3bef84e)" d="M 110.578458 387.2 
L 119.738679 387.2 
L 119.738679 384.993141 
L 110.578458 384.993141 
z
" style="fill:#777777;"/>
   </g>
   <g id="patch_57">
    <path clip-path="url(#p72e3bef84e)" d="M 119.738748 387.2 
L 128.898969 387.2 
L 128.898969 385.820713 
L 119.738748 385.820713 
z
" style="fill:#777777;"/>
   </g>
   <g id="patch_58">
    <path clip-path="url(#p72e3bef84e)" d="M 128.8989 387.2 
L 138.05912 387.2 
L 138.05912 383.889711 
L 128.8989 383.889711 
z
" style="fill:#777777;"/>
   </g>
   <g id="patch_59">
    <path clip-path="url(#p72e3bef84e)" d="M 138.05912 387.2 
L 147.21941 387.2 
L 147.21941 383.062139 
L 138.05912 383.062139 
z
" style="fill:#777777;"/>
   </g>
   <g id="patch_60">
    <path clip-path="url(#p72e3bef84e)" d="M 147.219479 387.2 
L 156.3797 387.2 
L 156.3797 383.889711 
L 147.219479 383.889711 
z
" style="fill:#777777;"/>
   </g>
   <g id="patch_61">
    <path clip-path="url(#p72e3bef84e)" d="M 156.379631 387.2 
L 165.539851 387.2 
L 165.539851 381.682851 
L 156.379631 381.682851 
z
" style="fill:#777777;"/>
   </g>
   <g id="patch_62">
    <path clip-path="url(#p72e3bef84e)" d="M 165.539921 387.2 
L 174.700141 387.2 
L 174.700141 382.786281 
L 165.539921 382.786281 
z
" style="fill:#777777;"/>
   </g>
   <g id="patch_63">
    <path clip-path="url(#p72e3bef84e)" d="M 174.700072 387.2 
L 183.860362 387.2 
L 183.860362 382.786281 
L 174.700072 382.786281 
z
" style="fill:#777777;"/>
   </g>
   <g id="patch_64">
    <path clip-path="url(#p72e3bef84e)" d="M 183.860362 387.2 
L 193.020583 387.2 
L 193.020583 383.337996 
L 183.860362 383.337996 
z
" style="fill:#777777;"/>
   </g>
   <g id="patch_65">
    <path clip-path="url(#p72e3bef84e)" d="M 193.020652 387.2 
L 202.180873 387.2 
L 202.180873 383.337996 
L 193.020652 383.337996 
z
" style="fill:#777777;"/>
   </g>
   <g id="patch_66">
    <path clip-path="url(#p72e3bef84e)" d="M 202.180803 387.2 
L 211.341024 387.2 
L 211.341024 382.234566 
L 202.180803 382.234566 
z
" style="fill:#777777;"/>
   </g>
   <g id="patch_67">
    <path clip-path="url(#p72e3bef84e)" d="M 211.341024 387.2 
L 220.501314 387.2 
L 220.501314 379.200135 
L 211.341024 379.200135 
z
" style="fill:#777777;"/>
   </g>
   <g id="patch_68">
    <path clip-path="url(#p72e3bef84e)" d="M 220.501383 387.2 
L 229.661604 387.2 
L 229.661604 379.751849 
L 220.501383 379.751849 
z
" style="fill:#777777;"/>
   </g>
   <g id="patch_69">
    <path clip-path="url(#p72e3bef84e)" d="M 229.661534 387.2 
L 238.821755 387.2 
L 238.821755 378.64842 
L 229.661534 378.64842 
z
" style="fill:#777777;"/>
   </g>
   <g id="patch_70">
    <path clip-path="url(#p72e3bef84e)" d="M 238.821824 387.2 
L 247.982045 387.2 
L 247.982045 377.820847 
L 238.821824 377.820847 
z
" style="fill:#777777;"/>
   </g>
   <g id="patch_71">
    <path clip-path="url(#p72e3bef84e)" d="M 247.981976 387.2 
L 257.142266 387.2 
L 257.142266 374.234701 
L 247.981976 374.234701 
z
" style="fill:#777777;"/>
   </g>
   <g id="patch_72">
    <path clip-path="url(#p72e3bef84e)" d="M 257.142266 387.2 
L 266.302486 387.2 
L 266.302486 375.889845 
L 257.142266 375.889845 
z
" style="fill:#777777;"/>
   </g>
   <g id="patch_73">
    <path clip-path="url(#p72e3bef84e)" d="M 266.302555 387.2 
L 275.462776 387.2 
L 275.462776 371.476126 
L 266.302555 371.476126 
z
" style="fill:#777777;"/>
   </g>
   <g id="patch_74">
    <path clip-path="url(#p72e3bef84e)" d="M 275.462707 387.2 
L 284.622927 387.2 
L 284.622927 367.338265 
L 275.462707 367.338265 
z
" style="fill:#777777;"/>
   </g>
   <g id="patch_75">
    <path clip-path="url(#p72e3bef84e)" d="M 284.622927 387.2 
L 293.783217 387.2 
L 293.783217 366.510693 
L 284.622927 366.510693 
z
" style="fill:#777777;"/>
   </g>
   <g id="patch_76">
    <path clip-path="url(#p72e3bef84e)" d="M 293.783287 387.2 
L 302.943507 387.2 
L 302.943507 363.752118 
L 293.783287 363.752118 
z
" style="fill:#777777;"/>
   </g>
   <g id="patch_77">
    <path clip-path="url(#p72e3bef84e)" d="M 302.943438 387.2 
L 312.103659 387.2 
L 312.103659 353.269536 
L 302.943438 353.269536 
z
" style="fill:#777777;"/>
   </g>
   <g id="patch_78">
    <path clip-path="url(#p72e3bef84e)" d="M 312.103728 387.2 
L 321.263949 387.2 
L 321.263949 353.269536 
L 312.103728 353.269536 
z
" style="fill:#777777;"/>
   </g>
   <g id="patch_79">
    <path clip-path="url(#p72e3bef84e)" d="M 321.263879 387.2 
L 330.4241 387.2 
L 330.4241 341.131809 
L 321.263879 341.131809 
z
" style="fill:#777777;"/>
   </g>
   <g id="patch_80">
    <path clip-path="url(#p72e3bef84e)" d="M 330.4241 387.2 
L 339.58439 387.2 
L 339.58439 324.580363 
L 330.4241 324.580363 
z
" style="fill:#777777;"/>
   </g>
   <g id="patch_81">
    <path clip-path="url(#p72e3bef84e)" d="M 339.584459 387.2 
L 348.74468 387.2 
L 348.74468 313.546066 
L 339.584459 313.546066 
z
" style="fill:#777777;"/>
   </g>
   <g id="patch_82">
    <path clip-path="url(#p72e3bef84e)" d="M 348.74461 387.2 
L 357.904831 387.2 
L 357.904831 299.20148 
L 348.74461 299.20148 
z
" style="fill:#777777;"/>
   </g>
   <g id="patch_83">
    <path clip-path="url(#p72e3bef84e)" d="M 357.9049 387.2 
L 367.065121 387.2 
L 367.065121 278.512173 
L 357.9049 278.512173 
z
" style="fill:#777777;"/>
   </g>
   <g id="patch_84">
    <path clip-path="url(#p72e3bef84e)" d="M 367.065052 387.2 
L 376.225342 387.2 
L 376.225342 252.857432 
L 367.065052 252.857432 
z
" style="fill:#777777;"/>
   </g>
   <g id="patch_85">
    <path clip-path="url(#p72e3bef84e)" d="M 376.225342 387.2 
L 385.385562 387.2 
L 385.385562 237.409416 
L 376.225342 237.409416 
z
" style="fill:#777777;"/>
   </g>
   <g id="patch_86">
    <path clip-path="url(#p72e3bef84e)" d="M 385.385631 387.2 
L 394.545852 387.2 
L 394.545852 207.340956 
L 385.385631 207.340956 
z
" style="fill:#777777;"/>
   </g>
   <g id="patch_87">
    <path clip-path="url(#p72e3bef84e)" d="M 394.545783 387.2 
L 403.706003 387.2 
L 403.706003 210.651245 
L 394.545783 210.651245 
z
" style="fill:#777777;"/>
   </g>
   <g id="patch_88">
    <path clip-path="url(#p72e3bef84e)" d="M 403.706003 387.2 
L 412.866293 387.2 
L 412.866293 207.616813 
L 403.706003 207.616813 
z
" style="fill:#777777;"/>
   </g>
   <g id="patch_89">
    <path clip-path="url(#p72e3bef84e)" d="M 412.866363 387.2 
L 422.026583 387.2 
L 422.026583 248.71957 
L 412.866363 248.71957 
z
" style="fill:#777777;"/>
   </g>
   <g id="patch_90">
    <path clip-path="url(#p72e3bef84e)" d="M 422.026514 387.2 
L 431.186735 387.2 
L 431.186735 272.443309 
L 422.026514 272.443309 
z
" style="fill:#777777;"/>
   </g>
   <g id="patch_91">
    <path clip-path="url(#p72e3bef84e)" d="M 431.186804 387.2 
L 440.347025 387.2 
L 440.347025 320.718359 
L 431.186804 320.718359 
z
" style="fill:#777777;"/>
   </g>
   <g id="patch_92">
    <path clip-path="url(#p72e3bef84e)" d="M 440.346955 387.2 
L 449.507245 387.2 
L 449.507245 346.097243 
L 440.346955 346.097243 
z
" style="fill:#777777;"/>
   </g>
   <g id="patch_93">
    <path clip-path="url(#p72e3bef84e)" d="M 449.507245 387.2 
L 458.667466 387.2 
L 458.667466 365.68312 
L 449.507245 365.68312 
z
" style="fill:#777777;"/>
   </g>
   <g id="patch_94">
    <path clip-path="url(#p72e3bef84e)" d="M 458.667535 387.2 
L 467.827756 387.2 
L 467.827756 380.027707 
L 458.667535 380.027707 
z
" style="fill:#777777;"/>
   </g>
   <g id="patch_95">
    <path clip-path="url(#p72e3bef84e)" d="M 467.827686 387.2 
L 476.987907 387.2 
L 476.987907 383.613853 
L 467.827686 383.613853 
z
" style="fill:#777777;"/>
   </g>
   <g id="patch_96">
    <path clip-path="url(#p72e3bef84e)" d="M 476.987907 387.2 
L 486.148197 387.2 
L 486.148197 384.993141 
L 476.987907 384.993141 
z
" style="fill:#777777;"/>
   </g>
   <g id="patch_97">
    <path clip-path="url(#p72e3bef84e)" d="M 486.148266 387.2 
L 495.308487 387.2 
L 495.308487 386.09657 
L 486.148266 386.09657 
z
" style="fill:#777777;"/>
   </g>
   <g id="patch_98">
    <path clip-path="url(#p72e3bef84e)" d="M 495.308418 387.2 
L 504.468638 387.2 
L 504.468638 385.544855 
L 495.308418 385.544855 
z
" style="fill:#777777;"/>
   </g>
   <g id="patch_99">
    <path clip-path="url(#p72e3bef84e)" d="M 504.468707 387.2 
L 513.628928 387.2 
L 513.628928 386.372428 
L 504.468707 386.372428 
z
" style="fill:#777777;"/>
   </g>
   <g id="patch_100">
    <path clip-path="url(#p72e3bef84e)" d="M 513.628859 387.2 
L 522.789149 387.2 
L 522.789149 381.131137 
L 513.628859 381.131137 
z
" style="fill:#777777;"/>
   </g>
   <g id="patch_101">
    <path clip-path="url(#p72e3bef84e)" d="M 522.789149 387.2 
L 531.949369 387.2 
L 531.949369 377.820847 
L 522.789149 377.820847 
z
" style="fill:#777777;"/>
   </g>
   <g id="patch_102">
    <path clip-path="url(#p72e3bef84e)" d="M 531.949439 387.2 
L 541.109659 387.2 
L 541.109659 373.682986 
L 531.949439 373.682986 
z
" style="fill:#777777;"/>
   </g>
   <g id="patch_103">
    <path d="M 60.05 387.2 
L 60.05 50.916 
" style="fill:none;stroke:#ffffff;stroke-linecap:square;stroke-linejoin:miter;"/>
   </g>
   <g id="patch_104">
    <path d="M 567.1 387.2 
L 567.1 50.916 
" style="fill:none;stroke:#ffffff;stroke-linecap:square;stroke-linejoin:miter;"/>
   </g>
   <g id="patch_105">
    <path d="M 60.05 387.2 
L 567.1 387.2 
" style="fill:none;stroke:#ffffff;stroke-linecap:square;stroke-linejoin:miter;"/>
   </g>
   <g id="patch_106">
    <path d="M 60.05 50.916 
L 567.1 50.916 
" style="fill:none;stroke:#ffffff;stroke-linecap:square;stroke-linejoin:miter;"/>
   </g>
   <g id="text_19">
    <!-- A) -->
    <defs>
     <path d="M 34.1875 63.1875 
L 20.796875 26.90625 
L 47.609375 26.90625 
z
M 28.609375 72.90625 
L 39.796875 72.90625 
L 67.578125 0 
L 57.328125 0 
L 50.6875 18.703125 
L 17.828125 18.703125 
L 11.1875 0 
L 0.78125 0 
z
" id="DejaVuSans-65"/>
     <path d="M 8.015625 75.875 
L 15.828125 75.875 
Q 23.140625 64.359375 26.78125 53.3125 
Q 30.421875 42.28125 30.421875 31.390625 
Q 30.421875 20.453125 26.78125 9.375 
Q 23.140625 -1.703125 15.828125 -13.1875 
L 8.015625 -13.1875 
Q 14.5 -2 17.703125 9.0625 
Q 20.90625 20.125 20.90625 31.390625 
Q 20.90625 42.671875 17.703125 53.65625 
Q 14.5 64.65625 8.015625 75.875 
z
" id="DejaVuSans-41"/>
    </defs>
    <g transform="translate(0.75125 21.7026)scale(0.16 -0.16)">
     <use xlink:href="#DejaVuSans-65"/>
     <use x="68.408203" xlink:href="#DejaVuSans-41"/>
    </g>
   </g>
   <g id="text_20">
    <!-- Medium -->
    <defs>
     <path d="M 9.8125 72.90625 
L 24.515625 72.90625 
L 43.109375 23.296875 
L 61.8125 72.90625 
L 76.515625 72.90625 
L 76.515625 0 
L 66.890625 0 
L 66.890625 64.015625 
L 48.09375 14.015625 
L 38.1875 14.015625 
L 19.390625 64.015625 
L 19.390625 0 
L 9.8125 0 
z
" id="DejaVuSans-77"/>
     <path d="M 45.40625 46.390625 
L 45.40625 75.984375 
L 54.390625 75.984375 
L 54.390625 0 
L 45.40625 0 
L 45.40625 8.203125 
Q 42.578125 3.328125 38.25 0.953125 
Q 33.9375 -1.421875 27.875 -1.421875 
Q 17.96875 -1.421875 11.734375 6.484375 
Q 5.515625 14.40625 5.515625 27.296875 
Q 5.515625 40.1875 11.734375 48.09375 
Q 17.96875 56 27.875 56 
Q 33.9375 56 38.25 53.625 
Q 42.578125 51.265625 45.40625 46.390625 
z
M 14.796875 27.296875 
Q 14.796875 17.390625 18.875 11.75 
Q 22.953125 6.109375 30.078125 6.109375 
Q 37.203125 6.109375 41.296875 11.75 
Q 45.40625 17.390625 45.40625 27.296875 
Q 45.40625 37.203125 41.296875 42.84375 
Q 37.203125 48.484375 30.078125 48.484375 
Q 22.953125 48.484375 18.875 42.84375 
Q 14.796875 37.203125 14.796875 27.296875 
z
" id="DejaVuSans-100"/>
     <path d="M 52 44.1875 
Q 55.375 50.25 60.0625 53.125 
Q 64.75 56 71.09375 56 
Q 79.640625 56 84.28125 50.015625 
Q 88.921875 44.046875 88.921875 33.015625 
L 88.921875 0 
L 79.890625 0 
L 79.890625 32.71875 
Q 79.890625 40.578125 77.09375 44.375 
Q 74.3125 48.1875 68.609375 48.1875 
Q 61.625 48.1875 57.5625 43.546875 
Q 53.515625 38.921875 53.515625 30.90625 
L 53.515625 0 
L 44.484375 0 
L 44.484375 32.71875 
Q 44.484375 40.625 41.703125 44.40625 
Q 38.921875 48.1875 33.109375 48.1875 
Q 26.21875 48.1875 22.15625 43.53125 
Q 18.109375 38.875 18.109375 30.90625 
L 18.109375 0 
L 9.078125 0 
L 9.078125 54.6875 
L 18.109375 54.6875 
L 18.109375 46.1875 
Q 21.1875 51.21875 25.484375 53.609375 
Q 29.78125 56 35.6875 56 
Q 41.65625 56 45.828125 52.96875 
Q 50 49.953125 52 44.1875 
z
" id="DejaVuSans-109"/>
    </defs>
    <g transform="translate(284.785125 44.916)scale(0.144 -0.144)">
     <use xlink:href="#DejaVuSans-77"/>
     <use x="86.279297" xlink:href="#DejaVuSans-101"/>
     <use x="147.802734" xlink:href="#DejaVuSans-100"/>
     <use x="211.279297" xlink:href="#DejaVuSans-105"/>
     <use x="239.0625" xlink:href="#DejaVuSans-117"/>
     <use x="302.441406" xlink:href="#DejaVuSans-109"/>
    </g>
   </g>
   <g id="legend_1">
    <g id="patch_107">
     <path d="M 521.151562 88.27225 
L 560.1 88.27225 
Q 562.1 88.27225 562.1 86.27225 
L 562.1 57.916 
Q 562.1 55.916 560.1 55.916 
L 521.151562 55.916 
Q 519.151562 55.916 519.151562 57.916 
L 519.151562 86.27225 
Q 519.151562 88.27225 521.151562 88.27225 
z
" style="fill:#e5e5e5;opacity:0.8;stroke:#cccccc;stroke-linejoin:miter;stroke-width:0.5;"/>
    </g>
    <g id="patch_108">
     <path d="M 523.151562 67.514438 
L 543.151562 67.514438 
L 543.151562 60.514438 
L 523.151562 60.514438 
z
" style="fill:#988ed5;"/>
    </g>
    <g id="text_21">
     <!-- R -->
     <g transform="translate(551.151562 67.514438)scale(0.1 -0.1)">
      <use xlink:href="#DejaVuSans-82"/>
     </g>
    </g>
    <g id="patch_109">
     <path d="M 523.151562 82.192563 
L 543.151562 82.192563 
L 543.151562 75.192563 
L 523.151562 75.192563 
z
" style="fill:#777777;"/>
    </g>
    <g id="text_22">
     <!-- K -->
     <defs>
      <path d="M 9.8125 72.90625 
L 19.671875 72.90625 
L 19.671875 42.09375 
L 52.390625 72.90625 
L 65.09375 72.90625 
L 28.90625 38.921875 
L 67.671875 0 
L 54.6875 0 
L 19.671875 35.109375 
L 19.671875 0 
L 9.8125 0 
z
" id="DejaVuSans-75"/>
     </defs>
     <g transform="translate(551.151562 82.192563)scale(0.1 -0.1)">
      <use xlink:href="#DejaVuSans-75"/>
     </g>
    </g>
   </g>
  </g>
  <g id="axes_2">
   <g id="patch_110">
    <path d="M 630.65 387.2 
L 1137.7 387.2 
L 1137.7 50.916 
L 630.65 50.916 
z
" style="fill:#e5e5e5;"/>
   </g>
   <g id="matplotlib.axis_3">
    <g id="xtick_10">
     <g id="line2d_33">
      <path clip-path="url(#p3faf064058)" d="M 652.125327 387.2 
L 652.125327 50.916 
" style="fill:none;stroke:#ffffff;stroke-linecap:square;stroke-width:0.8;"/>
     </g>
     <g id="line2d_34">
      <g>
       <use style="fill:#555555;stroke:#555555;stroke-width:0.8;" x="652.125327" xlink:href="#mc64405eeff" y="387.2"/>
      </g>
     </g>
     <g id="text_23">
      <!-- 0.60 -->
      <g style="fill:#555555;" transform="translate(640.992515 401.798437)scale(0.1 -0.1)">
       <use xlink:href="#DejaVuSans-48"/>
       <use x="63.623047" xlink:href="#DejaVuSans-46"/>
       <use x="95.410156" xlink:href="#DejaVuSans-54"/>
       <use x="159.033203" xlink:href="#DejaVuSans-48"/>
      </g>
     </g>
    </g>
    <g id="xtick_11">
     <g id="line2d_35">
      <path clip-path="url(#p3faf064058)" d="M 710.128917 387.2 
L 710.128917 50.916 
" style="fill:none;stroke:#ffffff;stroke-linecap:square;stroke-width:0.8;"/>
     </g>
     <g id="line2d_36">
      <g>
       <use style="fill:#555555;stroke:#555555;stroke-width:0.8;" x="710.128917" xlink:href="#mc64405eeff" y="387.2"/>
      </g>
     </g>
     <g id="text_24">
      <!-- 0.65 -->
      <g style="fill:#555555;" transform="translate(698.996105 401.798437)scale(0.1 -0.1)">
       <use xlink:href="#DejaVuSans-48"/>
       <use x="63.623047" xlink:href="#DejaVuSans-46"/>
       <use x="95.410156" xlink:href="#DejaVuSans-54"/>
       <use x="159.033203" xlink:href="#DejaVuSans-53"/>
      </g>
     </g>
    </g>
    <g id="xtick_12">
     <g id="line2d_37">
      <path clip-path="url(#p3faf064058)" d="M 768.132507 387.2 
L 768.132507 50.916 
" style="fill:none;stroke:#ffffff;stroke-linecap:square;stroke-width:0.8;"/>
     </g>
     <g id="line2d_38">
      <g>
       <use style="fill:#555555;stroke:#555555;stroke-width:0.8;" x="768.132507" xlink:href="#mc64405eeff" y="387.2"/>
      </g>
     </g>
     <g id="text_25">
      <!-- 0.70 -->
      <g style="fill:#555555;" transform="translate(756.999695 401.798437)scale(0.1 -0.1)">
       <use xlink:href="#DejaVuSans-48"/>
       <use x="63.623047" xlink:href="#DejaVuSans-46"/>
       <use x="95.410156" xlink:href="#DejaVuSans-55"/>
       <use x="159.033203" xlink:href="#DejaVuSans-48"/>
      </g>
     </g>
    </g>
    <g id="xtick_13">
     <g id="line2d_39">
      <path clip-path="url(#p3faf064058)" d="M 826.136097 387.2 
L 826.136097 50.916 
" style="fill:none;stroke:#ffffff;stroke-linecap:square;stroke-width:0.8;"/>
     </g>
     <g id="line2d_40">
      <g>
       <use style="fill:#555555;stroke:#555555;stroke-width:0.8;" x="826.136097" xlink:href="#mc64405eeff" y="387.2"/>
      </g>
     </g>
     <g id="text_26">
      <!-- 0.75 -->
      <g style="fill:#555555;" transform="translate(815.003285 401.798437)scale(0.1 -0.1)">
       <use xlink:href="#DejaVuSans-48"/>
       <use x="63.623047" xlink:href="#DejaVuSans-46"/>
       <use x="95.410156" xlink:href="#DejaVuSans-55"/>
       <use x="159.033203" xlink:href="#DejaVuSans-53"/>
      </g>
     </g>
    </g>
    <g id="xtick_14">
     <g id="line2d_41">
      <path clip-path="url(#p3faf064058)" d="M 884.139687 387.2 
L 884.139687 50.916 
" style="fill:none;stroke:#ffffff;stroke-linecap:square;stroke-width:0.8;"/>
     </g>
     <g id="line2d_42">
      <g>
       <use style="fill:#555555;stroke:#555555;stroke-width:0.8;" x="884.139687" xlink:href="#mc64405eeff" y="387.2"/>
      </g>
     </g>
     <g id="text_27">
      <!-- 0.80 -->
      <g style="fill:#555555;" transform="translate(873.006875 401.798437)scale(0.1 -0.1)">
       <use xlink:href="#DejaVuSans-48"/>
       <use x="63.623047" xlink:href="#DejaVuSans-46"/>
       <use x="95.410156" xlink:href="#DejaVuSans-56"/>
       <use x="159.033203" xlink:href="#DejaVuSans-48"/>
      </g>
     </g>
    </g>
    <g id="xtick_15">
     <g id="line2d_43">
      <path clip-path="url(#p3faf064058)" d="M 942.143277 387.2 
L 942.143277 50.916 
" style="fill:none;stroke:#ffffff;stroke-linecap:square;stroke-width:0.8;"/>
     </g>
     <g id="line2d_44">
      <g>
       <use style="fill:#555555;stroke:#555555;stroke-width:0.8;" x="942.143277" xlink:href="#mc64405eeff" y="387.2"/>
      </g>
     </g>
     <g id="text_28">
      <!-- 0.85 -->
      <g style="fill:#555555;" transform="translate(931.010465 401.798437)scale(0.1 -0.1)">
       <use xlink:href="#DejaVuSans-48"/>
       <use x="63.623047" xlink:href="#DejaVuSans-46"/>
       <use x="95.410156" xlink:href="#DejaVuSans-56"/>
       <use x="159.033203" xlink:href="#DejaVuSans-53"/>
      </g>
     </g>
    </g>
    <g id="xtick_16">
     <g id="line2d_45">
      <path clip-path="url(#p3faf064058)" d="M 1000.146867 387.2 
L 1000.146867 50.916 
" style="fill:none;stroke:#ffffff;stroke-linecap:square;stroke-width:0.8;"/>
     </g>
     <g id="line2d_46">
      <g>
       <use style="fill:#555555;stroke:#555555;stroke-width:0.8;" x="1000.146867" xlink:href="#mc64405eeff" y="387.2"/>
      </g>
     </g>
     <g id="text_29">
      <!-- 0.90 -->
      <g style="fill:#555555;" transform="translate(989.014055 401.798437)scale(0.1 -0.1)">
       <use xlink:href="#DejaVuSans-48"/>
       <use x="63.623047" xlink:href="#DejaVuSans-46"/>
       <use x="95.410156" xlink:href="#DejaVuSans-57"/>
       <use x="159.033203" xlink:href="#DejaVuSans-48"/>
      </g>
     </g>
    </g>
    <g id="xtick_17">
     <g id="line2d_47">
      <path clip-path="url(#p3faf064058)" d="M 1058.150457 387.2 
L 1058.150457 50.916 
" style="fill:none;stroke:#ffffff;stroke-linecap:square;stroke-width:0.8;"/>
     </g>
     <g id="line2d_48">
      <g>
       <use style="fill:#555555;stroke:#555555;stroke-width:0.8;" x="1058.150457" xlink:href="#mc64405eeff" y="387.2"/>
      </g>
     </g>
     <g id="text_30">
      <!-- 0.95 -->
      <g style="fill:#555555;" transform="translate(1047.017645 401.798437)scale(0.1 -0.1)">
       <use xlink:href="#DejaVuSans-48"/>
       <use x="63.623047" xlink:href="#DejaVuSans-46"/>
       <use x="95.410156" xlink:href="#DejaVuSans-57"/>
       <use x="159.033203" xlink:href="#DejaVuSans-53"/>
      </g>
     </g>
    </g>
    <g id="xtick_18">
     <g id="line2d_49">
      <path clip-path="url(#p3faf064058)" d="M 1116.154047 387.2 
L 1116.154047 50.916 
" style="fill:none;stroke:#ffffff;stroke-linecap:square;stroke-width:0.8;"/>
     </g>
     <g id="line2d_50">
      <g>
       <use style="fill:#555555;stroke:#555555;stroke-width:0.8;" x="1116.154047" xlink:href="#mc64405eeff" y="387.2"/>
      </g>
     </g>
     <g id="text_31">
      <!-- 1.00 -->
      <g style="fill:#555555;" transform="translate(1105.021235 401.798437)scale(0.1 -0.1)">
       <use xlink:href="#DejaVuSans-49"/>
       <use x="63.623047" xlink:href="#DejaVuSans-46"/>
       <use x="95.410156" xlink:href="#DejaVuSans-48"/>
       <use x="159.033203" xlink:href="#DejaVuSans-48"/>
      </g>
     </g>
    </g>
    <g id="text_32">
     <!-- Incorporation Rate -->
     <g style="fill:#555555;" transform="translate(828.254062 416.99625)scale(0.12 -0.12)">
      <use xlink:href="#DejaVuSans-73"/>
      <use x="29.492188" xlink:href="#DejaVuSans-110"/>
      <use x="92.871094" xlink:href="#DejaVuSans-99"/>
      <use x="147.851562" xlink:href="#DejaVuSans-111"/>
      <use x="209.033203" xlink:href="#DejaVuSans-114"/>
      <use x="250.146484" xlink:href="#DejaVuSans-112"/>
      <use x="313.623047" xlink:href="#DejaVuSans-111"/>
      <use x="374.804688" xlink:href="#DejaVuSans-114"/>
      <use x="415.917969" xlink:href="#DejaVuSans-97"/>
      <use x="477.197266" xlink:href="#DejaVuSans-116"/>
      <use x="516.40625" xlink:href="#DejaVuSans-105"/>
      <use x="544.189453" xlink:href="#DejaVuSans-111"/>
      <use x="605.371094" xlink:href="#DejaVuSans-110"/>
      <use x="668.75" xlink:href="#DejaVuSans-32"/>
      <use x="700.537109" xlink:href="#DejaVuSans-82"/>
      <use x="769.988281" xlink:href="#DejaVuSans-97"/>
      <use x="831.267578" xlink:href="#DejaVuSans-116"/>
      <use x="870.476562" xlink:href="#DejaVuSans-101"/>
     </g>
    </g>
   </g>
   <g id="matplotlib.axis_4">
    <g id="ytick_8">
     <g id="line2d_51">
      <path clip-path="url(#p3faf064058)" d="M 630.65 387.2 
L 1137.7 387.2 
" style="fill:none;stroke:#ffffff;stroke-linecap:square;stroke-width:0.8;"/>
     </g>
     <g id="line2d_52">
      <g>
       <use style="fill:#555555;stroke:#555555;stroke-width:0.8;" x="630.65" xlink:href="#mad71953675" y="387.2"/>
      </g>
     </g>
     <g id="text_33">
      <!-- 0 -->
      <g style="fill:#555555;" transform="translate(617.2875 390.999219)scale(0.1 -0.1)">
       <use xlink:href="#DejaVuSans-48"/>
      </g>
     </g>
    </g>
    <g id="ytick_9">
     <g id="line2d_53">
      <path clip-path="url(#p3faf064058)" d="M 630.65 347.365364 
L 1137.7 347.365364 
" style="fill:none;stroke:#ffffff;stroke-linecap:square;stroke-width:0.8;"/>
     </g>
     <g id="line2d_54">
      <g>
       <use style="fill:#555555;stroke:#555555;stroke-width:0.8;" x="630.65" xlink:href="#mad71953675" y="347.365364"/>
      </g>
     </g>
     <g id="text_34">
      <!-- 200 -->
      <g style="fill:#555555;" transform="translate(604.5625 351.164582)scale(0.1 -0.1)">
       <use xlink:href="#DejaVuSans-50"/>
       <use x="63.623047" xlink:href="#DejaVuSans-48"/>
       <use x="127.246094" xlink:href="#DejaVuSans-48"/>
      </g>
     </g>
    </g>
    <g id="ytick_10">
     <g id="line2d_55">
      <path clip-path="url(#p3faf064058)" d="M 630.65 307.530727 
L 1137.7 307.530727 
" style="fill:none;stroke:#ffffff;stroke-linecap:square;stroke-width:0.8;"/>
     </g>
     <g id="line2d_56">
      <g>
       <use style="fill:#555555;stroke:#555555;stroke-width:0.8;" x="630.65" xlink:href="#mad71953675" y="307.530727"/>
      </g>
     </g>
     <g id="text_35">
      <!-- 400 -->
      <g style="fill:#555555;" transform="translate(604.5625 311.329946)scale(0.1 -0.1)">
       <use xlink:href="#DejaVuSans-52"/>
       <use x="63.623047" xlink:href="#DejaVuSans-48"/>
       <use x="127.246094" xlink:href="#DejaVuSans-48"/>
      </g>
     </g>
    </g>
    <g id="ytick_11">
     <g id="line2d_57">
      <path clip-path="url(#p3faf064058)" d="M 630.65 267.696091 
L 1137.7 267.696091 
" style="fill:none;stroke:#ffffff;stroke-linecap:square;stroke-width:0.8;"/>
     </g>
     <g id="line2d_58">
      <g>
       <use style="fill:#555555;stroke:#555555;stroke-width:0.8;" x="630.65" xlink:href="#mad71953675" y="267.696091"/>
      </g>
     </g>
     <g id="text_36">
      <!-- 600 -->
      <g style="fill:#555555;" transform="translate(604.5625 271.49531)scale(0.1 -0.1)">
       <use xlink:href="#DejaVuSans-54"/>
       <use x="63.623047" xlink:href="#DejaVuSans-48"/>
       <use x="127.246094" xlink:href="#DejaVuSans-48"/>
      </g>
     </g>
    </g>
    <g id="ytick_12">
     <g id="line2d_59">
      <path clip-path="url(#p3faf064058)" d="M 630.65 227.861455 
L 1137.7 227.861455 
" style="fill:none;stroke:#ffffff;stroke-linecap:square;stroke-width:0.8;"/>
     </g>
     <g id="line2d_60">
      <g>
       <use style="fill:#555555;stroke:#555555;stroke-width:0.8;" x="630.65" xlink:href="#mad71953675" y="227.861455"/>
      </g>
     </g>
     <g id="text_37">
      <!-- 800 -->
      <g style="fill:#555555;" transform="translate(604.5625 231.660673)scale(0.1 -0.1)">
       <use xlink:href="#DejaVuSans-56"/>
       <use x="63.623047" xlink:href="#DejaVuSans-48"/>
       <use x="127.246094" xlink:href="#DejaVuSans-48"/>
      </g>
     </g>
    </g>
    <g id="ytick_13">
     <g id="line2d_61">
      <path clip-path="url(#p3faf064058)" d="M 630.65 188.026818 
L 1137.7 188.026818 
" style="fill:none;stroke:#ffffff;stroke-linecap:square;stroke-width:0.8;"/>
     </g>
     <g id="line2d_62">
      <g>
       <use style="fill:#555555;stroke:#555555;stroke-width:0.8;" x="630.65" xlink:href="#mad71953675" y="188.026818"/>
      </g>
     </g>
     <g id="text_38">
      <!-- 1000 -->
      <g style="fill:#555555;" transform="translate(598.2 191.826037)scale(0.1 -0.1)">
       <use xlink:href="#DejaVuSans-49"/>
       <use x="63.623047" xlink:href="#DejaVuSans-48"/>
       <use x="127.246094" xlink:href="#DejaVuSans-48"/>
       <use x="190.869141" xlink:href="#DejaVuSans-48"/>
      </g>
     </g>
    </g>
    <g id="ytick_14">
     <g id="line2d_63">
      <path clip-path="url(#p3faf064058)" d="M 630.65 148.192182 
L 1137.7 148.192182 
" style="fill:none;stroke:#ffffff;stroke-linecap:square;stroke-width:0.8;"/>
     </g>
     <g id="line2d_64">
      <g>
       <use style="fill:#555555;stroke:#555555;stroke-width:0.8;" x="630.65" xlink:href="#mad71953675" y="148.192182"/>
      </g>
     </g>
     <g id="text_39">
      <!-- 1200 -->
      <g style="fill:#555555;" transform="translate(598.2 151.991401)scale(0.1 -0.1)">
       <use xlink:href="#DejaVuSans-49"/>
       <use x="63.623047" xlink:href="#DejaVuSans-50"/>
       <use x="127.246094" xlink:href="#DejaVuSans-48"/>
       <use x="190.869141" xlink:href="#DejaVuSans-48"/>
      </g>
     </g>
    </g>
    <g id="ytick_15">
     <g id="line2d_65">
      <path clip-path="url(#p3faf064058)" d="M 630.65 108.357546 
L 1137.7 108.357546 
" style="fill:none;stroke:#ffffff;stroke-linecap:square;stroke-width:0.8;"/>
     </g>
     <g id="line2d_66">
      <g>
       <use style="fill:#555555;stroke:#555555;stroke-width:0.8;" x="630.65" xlink:href="#mad71953675" y="108.357546"/>
      </g>
     </g>
     <g id="text_40">
      <!-- 1400 -->
      <g style="fill:#555555;" transform="translate(598.2 112.156764)scale(0.1 -0.1)">
       <use xlink:href="#DejaVuSans-49"/>
       <use x="63.623047" xlink:href="#DejaVuSans-52"/>
       <use x="127.246094" xlink:href="#DejaVuSans-48"/>
       <use x="190.869141" xlink:href="#DejaVuSans-48"/>
      </g>
     </g>
    </g>
    <g id="ytick_16">
     <g id="line2d_67">
      <path clip-path="url(#p3faf064058)" d="M 630.65 68.522909 
L 1137.7 68.522909 
" style="fill:none;stroke:#ffffff;stroke-linecap:square;stroke-width:0.8;"/>
     </g>
     <g id="line2d_68">
      <g>
       <use style="fill:#555555;stroke:#555555;stroke-width:0.8;" x="630.65" xlink:href="#mad71953675" y="68.522909"/>
      </g>
     </g>
     <g id="text_41">
      <!-- 1600 -->
      <g style="fill:#555555;" transform="translate(598.2 72.322128)scale(0.1 -0.1)">
       <use xlink:href="#DejaVuSans-49"/>
       <use x="63.623047" xlink:href="#DejaVuSans-54"/>
       <use x="127.246094" xlink:href="#DejaVuSans-48"/>
       <use x="190.869141" xlink:href="#DejaVuSans-48"/>
      </g>
     </g>
    </g>
    <g id="text_42">
     <!-- Frequency -->
     <g style="fill:#555555;" transform="translate(591.704375 250.615188)rotate(-90)scale(0.12 -0.12)">
      <use xlink:href="#DejaVuSans-70"/>
      <use x="57.410156" xlink:href="#DejaVuSans-114"/>
      <use x="98.492188" xlink:href="#DejaVuSans-101"/>
      <use x="160.015625" xlink:href="#DejaVuSans-113"/>
      <use x="223.492188" xlink:href="#DejaVuSans-117"/>
      <use x="286.871094" xlink:href="#DejaVuSans-101"/>
      <use x="348.394531" xlink:href="#DejaVuSans-110"/>
      <use x="411.773438" xlink:href="#DejaVuSans-99"/>
      <use x="466.753906" xlink:href="#DejaVuSans-121"/>
     </g>
    </g>
   </g>
   <g id="patch_111">
    <path clip-path="url(#p3faf064058)" d="M 653.697727 387.2 
L 662.91685 387.2 
L 662.91685 387.000827 
L 653.697727 387.000827 
z
" style="fill:#988ed5;"/>
   </g>
   <g id="patch_112">
    <path clip-path="url(#p3faf064058)" d="M 662.91685 387.2 
L 672.135904 387.2 
L 672.135904 386.403307 
L 662.91685 386.403307 
z
" style="fill:#988ed5;"/>
   </g>
   <g id="patch_113">
    <path clip-path="url(#p3faf064058)" d="M 672.135973 387.2 
L 681.355095 387.2 
L 681.355095 386.204134 
L 672.135973 386.204134 
z
" style="fill:#988ed5;"/>
   </g>
   <g id="patch_114">
    <path clip-path="url(#p3faf064058)" d="M 681.355026 387.2 
L 690.57408 387.2 
L 690.57408 386.801654 
L 681.355026 386.801654 
z
" style="fill:#988ed5;"/>
   </g>
   <g id="patch_115">
    <path clip-path="url(#p3faf064058)" d="M 690.57408 387.2 
L 699.793203 387.2 
L 699.793203 387.2 
L 690.57408 387.2 
z
" style="fill:#988ed5;"/>
   </g>
   <g id="patch_116">
    <path clip-path="url(#p3faf064058)" d="M 699.793203 387.2 
L 709.012256 387.2 
L 709.012256 387.000827 
L 699.793203 387.000827 
z
" style="fill:#988ed5;"/>
   </g>
   <g id="patch_117">
    <path clip-path="url(#p3faf064058)" d="M 709.012325 387.2 
L 718.231448 387.2 
L 718.231448 386.60248 
L 709.012325 386.60248 
z
" style="fill:#988ed5;"/>
   </g>
   <g id="patch_118">
    <path clip-path="url(#p3faf064058)" d="M 718.231379 387.2 
L 727.450432 387.2 
L 727.450432 386.60248 
L 718.231379 386.60248 
z
" style="fill:#988ed5;"/>
   </g>
   <g id="patch_119">
    <path clip-path="url(#p3faf064058)" d="M 727.450432 387.2 
L 736.669555 387.2 
L 736.669555 386.60248 
L 727.450432 386.60248 
z
" style="fill:#988ed5;"/>
   </g>
   <g id="patch_120">
    <path clip-path="url(#p3faf064058)" d="M 736.669555 387.2 
L 745.888609 387.2 
L 745.888609 386.004961 
L 736.669555 386.004961 
z
" style="fill:#988ed5;"/>
   </g>
   <g id="patch_121">
    <path clip-path="url(#p3faf064058)" d="M 745.888678 387.2 
L 755.107801 387.2 
L 755.107801 386.004961 
L 745.888678 386.004961 
z
" style="fill:#988ed5;"/>
   </g>
   <g id="patch_122">
    <path clip-path="url(#p3faf064058)" d="M 755.107731 387.2 
L 764.326785 387.2 
L 764.326785 386.60248 
L 755.107731 386.60248 
z
" style="fill:#988ed5;"/>
   </g>
   <g id="patch_123">
    <path clip-path="url(#p3faf064058)" d="M 764.326785 387.2 
L 773.545908 387.2 
L 773.545908 386.801654 
L 764.326785 386.801654 
z
" style="fill:#988ed5;"/>
   </g>
   <g id="patch_124">
    <path clip-path="url(#p3faf064058)" d="M 773.545977 387.2 
L 782.7651 387.2 
L 782.7651 386.204134 
L 773.545977 386.204134 
z
" style="fill:#988ed5;"/>
   </g>
   <g id="patch_125">
    <path clip-path="url(#p3faf064058)" d="M 782.76503 387.2 
L 791.984084 387.2 
L 791.984084 386.004961 
L 782.76503 386.004961 
z
" style="fill:#988ed5;"/>
   </g>
   <g id="patch_126">
    <path clip-path="url(#p3faf064058)" d="M 791.984084 387.2 
L 801.203207 387.2 
L 801.203207 386.60248 
L 791.984084 386.60248 
z
" style="fill:#988ed5;"/>
   </g>
   <g id="patch_127">
    <path clip-path="url(#p3faf064058)" d="M 801.203207 387.2 
L 810.42226 387.2 
L 810.42226 386.204134 
L 801.203207 386.204134 
z
" style="fill:#988ed5;"/>
   </g>
   <g id="patch_128">
    <path clip-path="url(#p3faf064058)" d="M 810.422329 387.2 
L 819.641452 387.2 
L 819.641452 386.60248 
L 810.422329 386.60248 
z
" style="fill:#988ed5;"/>
   </g>
   <g id="patch_129">
    <path clip-path="url(#p3faf064058)" d="M 819.641383 387.2 
L 828.860437 387.2 
L 828.860437 387.000827 
L 819.641383 387.000827 
z
" style="fill:#988ed5;"/>
   </g>
   <g id="patch_130">
    <path clip-path="url(#p3faf064058)" d="M 828.860437 387.2 
L 838.079559 387.2 
L 838.079559 386.004961 
L 828.860437 386.004961 
z
" style="fill:#988ed5;"/>
   </g>
   <g id="patch_131">
    <path clip-path="url(#p3faf064058)" d="M 838.079559 387.2 
L 847.298613 387.2 
L 847.298613 386.403307 
L 838.079559 386.403307 
z
" style="fill:#988ed5;"/>
   </g>
   <g id="patch_132">
    <path clip-path="url(#p3faf064058)" d="M 847.298682 387.2 
L 856.517805 387.2 
L 856.517805 386.004961 
L 847.298682 386.004961 
z
" style="fill:#988ed5;"/>
   </g>
   <g id="patch_133">
    <path clip-path="url(#p3faf064058)" d="M 856.517736 387.2 
L 865.736789 387.2 
L 865.736789 387.000827 
L 856.517736 387.000827 
z
" style="fill:#988ed5;"/>
   </g>
   <g id="patch_134">
    <path clip-path="url(#p3faf064058)" d="M 865.736789 387.2 
L 874.955912 387.2 
L 874.955912 386.004961 
L 865.736789 386.004961 
z
" style="fill:#988ed5;"/>
   </g>
   <g id="patch_135">
    <path clip-path="url(#p3faf064058)" d="M 874.955981 387.2 
L 884.175104 387.2 
L 884.175104 386.004961 
L 874.955981 386.004961 
z
" style="fill:#988ed5;"/>
   </g>
   <g id="patch_136">
    <path clip-path="url(#p3faf064058)" d="M 884.175035 387.2 
L 893.394088 387.2 
L 893.394088 386.403307 
L 884.175035 386.403307 
z
" style="fill:#988ed5;"/>
   </g>
   <g id="patch_137">
    <path clip-path="url(#p3faf064058)" d="M 893.394088 387.2 
L 902.613211 387.2 
L 902.613211 386.004961 
L 893.394088 386.004961 
z
" style="fill:#988ed5;"/>
   </g>
   <g id="patch_138">
    <path clip-path="url(#p3faf064058)" d="M 902.613211 387.2 
L 911.832264 387.2 
L 911.832264 387.2 
L 902.613211 387.2 
z
" style="fill:#988ed5;"/>
   </g>
   <g id="patch_139">
    <path clip-path="url(#p3faf064058)" d="M 911.832334 387.2 
L 921.051456 387.2 
L 921.051456 386.204134 
L 911.832334 386.204134 
z
" style="fill:#988ed5;"/>
   </g>
   <g id="patch_140">
    <path clip-path="url(#p3faf064058)" d="M 921.051387 387.2 
L 930.270441 387.2 
L 930.270441 385.606615 
L 921.051387 385.606615 
z
" style="fill:#988ed5;"/>
   </g>
   <g id="patch_141">
    <path clip-path="url(#p3faf064058)" d="M 930.270441 387.2 
L 939.489563 387.2 
L 939.489563 386.204134 
L 930.270441 386.204134 
z
" style="fill:#988ed5;"/>
   </g>
   <g id="patch_142">
    <path clip-path="url(#p3faf064058)" d="M 939.489563 387.2 
L 948.708617 387.2 
L 948.708617 385.407441 
L 939.489563 385.407441 
z
" style="fill:#988ed5;"/>
   </g>
   <g id="patch_143">
    <path clip-path="url(#p3faf064058)" d="M 948.708686 387.2 
L 957.927809 387.2 
L 957.927809 386.403307 
L 948.708686 386.403307 
z
" style="fill:#988ed5;"/>
   </g>
   <g id="patch_144">
    <path clip-path="url(#p3faf064058)" d="M 957.92774 387.2 
L 967.146793 387.2 
L 967.146793 386.004961 
L 957.92774 386.004961 
z
" style="fill:#988ed5;"/>
   </g>
   <g id="patch_145">
    <path clip-path="url(#p3faf064058)" d="M 967.146793 387.2 
L 976.365916 387.2 
L 976.365916 385.009095 
L 967.146793 385.009095 
z
" style="fill:#988ed5;"/>
   </g>
   <g id="patch_146">
    <path clip-path="url(#p3faf064058)" d="M 976.365916 387.2 
L 985.58497 387.2 
L 985.58497 386.204134 
L 976.365916 386.204134 
z
" style="fill:#988ed5;"/>
   </g>
   <g id="patch_147">
    <path clip-path="url(#p3faf064058)" d="M 985.585039 387.2 
L 994.804161 387.2 
L 994.804161 384.809922 
L 985.585039 384.809922 
z
" style="fill:#988ed5;"/>
   </g>
   <g id="patch_148">
    <path clip-path="url(#p3faf064058)" d="M 994.804092 387.2 
L 1004.023215 387.2 
L 1004.023215 385.407441 
L 994.804092 385.407441 
z
" style="fill:#988ed5;"/>
   </g>
   <g id="patch_149">
    <path clip-path="url(#p3faf064058)" d="M 1004.023215 387.2 
L 1013.242269 387.2 
L 1013.242269 385.407441 
L 1004.023215 385.407441 
z
" style="fill:#988ed5;"/>
   </g>
   <g id="patch_150">
    <path clip-path="url(#p3faf064058)" d="M 1013.242338 387.2 
L 1022.46146 387.2 
L 1022.46146 383.017363 
L 1013.242338 383.017363 
z
" style="fill:#988ed5;"/>
   </g>
   <g id="patch_151">
    <path clip-path="url(#p3faf064058)" d="M 1022.461391 387.2 
L 1031.680445 387.2 
L 1031.680445 383.614883 
L 1022.461391 383.614883 
z
" style="fill:#988ed5;"/>
   </g>
   <g id="patch_152">
    <path clip-path="url(#p3faf064058)" d="M 1031.680445 387.2 
L 1040.899568 387.2 
L 1040.899568 383.41571 
L 1031.680445 383.41571 
z
" style="fill:#988ed5;"/>
   </g>
   <g id="patch_153">
    <path clip-path="url(#p3faf064058)" d="M 1040.899568 387.2 
L 1050.118621 387.2 
L 1050.118621 375.448782 
L 1040.899568 375.448782 
z
" style="fill:#988ed5;"/>
   </g>
   <g id="patch_154">
    <path clip-path="url(#p3faf064058)" d="M 1050.11869 387.2 
L 1059.337813 387.2 
L 1059.337813 373.45705 
L 1050.11869 373.45705 
z
" style="fill:#988ed5;"/>
   </g>
   <g id="patch_155">
    <path clip-path="url(#p3faf064058)" d="M 1059.337744 387.2 
L 1068.556797 387.2 
L 1068.556797 349.954615 
L 1059.337744 349.954615 
z
" style="fill:#988ed5;"/>
   </g>
   <g id="patch_156">
    <path clip-path="url(#p3faf064058)" d="M 1068.556797 387.2 
L 1077.77592 387.2 
L 1077.77592 286.41837 
L 1068.556797 286.41837 
z
" style="fill:#988ed5;"/>
   </g>
   <g id="patch_157">
    <path clip-path="url(#p3faf064058)" d="M 1077.77592 387.2 
L 1086.994974 387.2 
L 1086.994974 67.92539 
L 1077.77592 67.92539 
z
" style="fill:#988ed5;"/>
   </g>
   <g id="patch_158">
    <path clip-path="url(#p3faf064058)" d="M 1086.995043 387.2 
L 1096.214166 387.2 
L 1096.214166 66.929524 
L 1086.995043 66.929524 
z
" style="fill:#988ed5;"/>
   </g>
   <g id="patch_159">
    <path clip-path="url(#p3faf064058)" d="M 1096.214096 387.2 
L 1105.43315 387.2 
L 1105.43315 370.668626 
L 1096.214096 370.668626 
z
" style="fill:#988ed5;"/>
   </g>
   <g id="patch_160">
    <path clip-path="url(#p3faf064058)" d="M 1105.43315 387.2 
L 1114.652273 387.2 
L 1114.652273 386.403307 
L 1105.43315 386.403307 
z
" style="fill:#988ed5;"/>
   </g>
   <g id="patch_161">
    <path clip-path="url(#p3faf064058)" d="M 658.369485 387.2 
L 667.457093 387.2 
L 667.457093 387.000827 
L 658.369485 387.000827 
z
" style="fill:#777777;"/>
   </g>
   <g id="patch_162">
    <path clip-path="url(#p3faf064058)" d="M 667.457024 387.2 
L 676.544631 387.2 
L 676.544631 386.403307 
L 667.457024 386.403307 
z
" style="fill:#777777;"/>
   </g>
   <g id="patch_163">
    <path clip-path="url(#p3faf064058)" d="M 676.5447 387.2 
L 685.632308 387.2 
L 685.632308 386.60248 
L 676.5447 386.60248 
z
" style="fill:#777777;"/>
   </g>
   <g id="patch_164">
    <path clip-path="url(#p3faf064058)" d="M 685.632308 387.2 
L 694.719985 387.2 
L 694.719985 386.204134 
L 685.632308 386.204134 
z
" style="fill:#777777;"/>
   </g>
   <g id="patch_165">
    <path clip-path="url(#p3faf064058)" d="M 694.719916 387.2 
L 703.807523 387.2 
L 703.807523 386.801654 
L 694.719916 386.801654 
z
" style="fill:#777777;"/>
   </g>
   <g id="patch_166">
    <path clip-path="url(#p3faf064058)" d="M 703.807593 387.2 
L 712.8952 387.2 
L 712.8952 386.60248 
L 703.807593 386.60248 
z
" style="fill:#777777;"/>
   </g>
   <g id="patch_167">
    <path clip-path="url(#p3faf064058)" d="M 712.895131 387.2 
L 721.982739 387.2 
L 721.982739 386.004961 
L 712.895131 386.004961 
z
" style="fill:#777777;"/>
   </g>
   <g id="patch_168">
    <path clip-path="url(#p3faf064058)" d="M 721.982808 387.2 
L 731.070416 387.2 
L 731.070416 386.204134 
L 721.982808 386.204134 
z
" style="fill:#777777;"/>
   </g>
   <g id="patch_169">
    <path clip-path="url(#p3faf064058)" d="M 731.070346 387.2 
L 740.157954 387.2 
L 740.157954 386.801654 
L 731.070346 386.801654 
z
" style="fill:#777777;"/>
   </g>
   <g id="patch_170">
    <path clip-path="url(#p3faf064058)" d="M 740.158023 387.2 
L 749.245631 387.2 
L 749.245631 386.204134 
L 740.158023 386.204134 
z
" style="fill:#777777;"/>
   </g>
   <g id="patch_171">
    <path clip-path="url(#p3faf064058)" d="M 749.245631 387.2 
L 758.333308 387.2 
L 758.333308 386.004961 
L 749.245631 386.004961 
z
" style="fill:#777777;"/>
   </g>
   <g id="patch_172">
    <path clip-path="url(#p3faf064058)" d="M 758.333239 387.2 
L 767.420846 387.2 
L 767.420846 387.2 
L 758.333239 387.2 
z
" style="fill:#777777;"/>
   </g>
   <g id="patch_173">
    <path clip-path="url(#p3faf064058)" d="M 767.420915 387.2 
L 776.508523 387.2 
L 776.508523 387.2 
L 767.420915 387.2 
z
" style="fill:#777777;"/>
   </g>
   <g id="patch_174">
    <path clip-path="url(#p3faf064058)" d="M 776.508454 387.2 
L 785.596061 387.2 
L 785.596061 386.403307 
L 776.508454 386.403307 
z
" style="fill:#777777;"/>
   </g>
   <g id="patch_175">
    <path clip-path="url(#p3faf064058)" d="M 785.596131 387.2 
L 794.683738 387.2 
L 794.683738 386.60248 
L 785.596131 386.60248 
z
" style="fill:#777777;"/>
   </g>
   <g id="patch_176">
    <path clip-path="url(#p3faf064058)" d="M 794.683669 387.2 
L 803.771277 387.2 
L 803.771277 386.204134 
L 794.683669 386.204134 
z
" style="fill:#777777;"/>
   </g>
   <g id="patch_177">
    <path clip-path="url(#p3faf064058)" d="M 803.771346 387.2 
L 812.858954 387.2 
L 812.858954 386.60248 
L 803.771346 386.60248 
z
" style="fill:#777777;"/>
   </g>
   <g id="patch_178">
    <path clip-path="url(#p3faf064058)" d="M 812.858954 387.2 
L 821.94663 387.2 
L 821.94663 386.004961 
L 812.858954 386.004961 
z
" style="fill:#777777;"/>
   </g>
   <g id="patch_179">
    <path clip-path="url(#p3faf064058)" d="M 821.946561 387.2 
L 831.034169 387.2 
L 831.034169 386.801654 
L 821.946561 386.801654 
z
" style="fill:#777777;"/>
   </g>
   <g id="patch_180">
    <path clip-path="url(#p3faf064058)" d="M 831.034238 387.2 
L 840.121846 387.2 
L 840.121846 385.805788 
L 831.034238 385.805788 
z
" style="fill:#777777;"/>
   </g>
   <g id="patch_181">
    <path clip-path="url(#p3faf064058)" d="M 840.121777 387.2 
L 849.209384 387.2 
L 849.209384 385.606615 
L 840.121777 385.606615 
z
" style="fill:#777777;"/>
   </g>
   <g id="patch_182">
    <path clip-path="url(#p3faf064058)" d="M 849.209453 387.2 
L 858.297061 387.2 
L 858.297061 385.805788 
L 849.209453 385.805788 
z
" style="fill:#777777;"/>
   </g>
   <g id="patch_183">
    <path clip-path="url(#p3faf064058)" d="M 858.296992 387.2 
L 867.3846 387.2 
L 867.3846 386.004961 
L 858.296992 386.004961 
z
" style="fill:#777777;"/>
   </g>
   <g id="patch_184">
    <path clip-path="url(#p3faf064058)" d="M 867.384669 387.2 
L 876.472276 387.2 
L 876.472276 385.805788 
L 867.384669 385.805788 
z
" style="fill:#777777;"/>
   </g>
   <g id="patch_185">
    <path clip-path="url(#p3faf064058)" d="M 876.472207 387.2 
L 885.559815 387.2 
L 885.559815 385.208268 
L 876.472207 385.208268 
z
" style="fill:#777777;"/>
   </g>
   <g id="patch_186">
    <path clip-path="url(#p3faf064058)" d="M 885.559884 387.2 
L 894.647561 387.2 
L 894.647561 384.411575 
L 885.559884 384.411575 
z
" style="fill:#777777;"/>
   </g>
   <g id="patch_187">
    <path clip-path="url(#p3faf064058)" d="M 894.647561 387.2 
L 903.735168 387.2 
L 903.735168 384.212402 
L 894.647561 384.212402 
z
" style="fill:#777777;"/>
   </g>
   <g id="patch_188">
    <path clip-path="url(#p3faf064058)" d="M 903.735099 387.2 
L 912.822707 387.2 
L 912.822707 384.013229 
L 903.735099 384.013229 
z
" style="fill:#777777;"/>
   </g>
   <g id="patch_189">
    <path clip-path="url(#p3faf064058)" d="M 912.822776 387.2 
L 921.910384 387.2 
L 921.910384 383.614883 
L 912.822776 383.614883 
z
" style="fill:#777777;"/>
   </g>
   <g id="patch_190">
    <path clip-path="url(#p3faf064058)" d="M 921.910315 387.2 
L 930.997922 387.2 
L 930.997922 381.025631 
L 921.910315 381.025631 
z
" style="fill:#777777;"/>
   </g>
   <g id="patch_191">
    <path clip-path="url(#p3faf064058)" d="M 930.997991 387.2 
L 940.085599 387.2 
L 940.085599 380.826458 
L 930.997991 380.826458 
z
" style="fill:#777777;"/>
   </g>
   <g id="patch_192">
    <path clip-path="url(#p3faf064058)" d="M 940.08553 387.2 
L 949.173138 387.2 
L 949.173138 379.631419 
L 940.08553 379.631419 
z
" style="fill:#777777;"/>
   </g>
   <g id="patch_193">
    <path clip-path="url(#p3faf064058)" d="M 949.173207 387.2 
L 958.260884 387.2 
L 958.260884 374.851263 
L 949.173207 374.851263 
z
" style="fill:#777777;"/>
   </g>
   <g id="patch_194">
    <path clip-path="url(#p3faf064058)" d="M 958.260884 387.2 
L 967.348491 387.2 
L 967.348491 375.448782 
L 958.260884 375.448782 
z
" style="fill:#777777;"/>
   </g>
   <g id="patch_195">
    <path clip-path="url(#p3faf064058)" d="M 967.348422 387.2 
L 976.43603 387.2 
L 976.43603 365.689296 
L 967.348422 365.689296 
z
" style="fill:#777777;"/>
   </g>
   <g id="patch_196">
    <path clip-path="url(#p3faf064058)" d="M 976.436099 387.2 
L 985.523707 387.2 
L 985.523707 359.514928 
L 976.436099 359.514928 
z
" style="fill:#777777;"/>
   </g>
   <g id="patch_197">
    <path clip-path="url(#p3faf064058)" d="M 985.523637 387.2 
L 994.611245 387.2 
L 994.611245 344.377766 
L 985.523637 344.377766 
z
" style="fill:#777777;"/>
   </g>
   <g id="patch_198">
    <path clip-path="url(#p3faf064058)" d="M 994.611314 387.2 
L 1003.698922 387.2 
L 1003.698922 334.61828 
L 994.611314 334.61828 
z
" style="fill:#777777;"/>
   </g>
   <g id="patch_199">
    <path clip-path="url(#p3faf064058)" d="M 1003.698853 387.2 
L 1012.78646 387.2 
L 1012.78646 302.750571 
L 1003.698853 302.750571 
z
" style="fill:#777777;"/>
   </g>
   <g id="patch_200">
    <path clip-path="url(#p3faf064058)" d="M 1012.786529 387.2 
L 1021.874206 387.2 
L 1021.874206 269.886996 
L 1012.786529 269.886996 
z
" style="fill:#777777;"/>
   </g>
   <g id="patch_201">
    <path clip-path="url(#p3faf064058)" d="M 1021.874206 387.2 
L 1030.961814 387.2 
L 1030.961814 203.7615 
L 1021.874206 203.7615 
z
" style="fill:#777777;"/>
   </g>
   <g id="patch_202">
    <path clip-path="url(#p3faf064058)" d="M 1030.961745 387.2 
L 1040.049352 387.2 
L 1040.049352 150.980606 
L 1030.961745 150.980606 
z
" style="fill:#777777;"/>
   </g>
   <g id="patch_203">
    <path clip-path="url(#p3faf064058)" d="M 1040.049422 387.2 
L 1049.137029 387.2 
L 1049.137029 124.2914 
L 1040.049422 124.2914 
z
" style="fill:#777777;"/>
   </g>
   <g id="patch_204">
    <path clip-path="url(#p3faf064058)" d="M 1049.13696 387.2 
L 1058.224568 387.2 
L 1058.224568 214.118505 
L 1049.13696 214.118505 
z
" style="fill:#777777;"/>
   </g>
   <g id="patch_205">
    <path clip-path="url(#p3faf064058)" d="M 1058.224637 387.2 
L 1067.312245 387.2 
L 1067.312245 326.651353 
L 1058.224637 326.651353 
z
" style="fill:#777777;"/>
   </g>
   <g id="patch_206">
    <path clip-path="url(#p3faf064058)" d="M 1067.312175 387.2 
L 1076.399783 387.2 
L 1076.399783 379.233073 
L 1067.312175 379.233073 
z
" style="fill:#777777;"/>
   </g>
   <g id="patch_207">
    <path clip-path="url(#p3faf064058)" d="M 1076.399852 387.2 
L 1085.487529 387.2 
L 1085.487529 385.009095 
L 1076.399852 385.009095 
z
" style="fill:#777777;"/>
   </g>
   <g id="patch_208">
    <path clip-path="url(#p3faf064058)" d="M 1085.487529 387.2 
L 1094.575137 387.2 
L 1094.575137 384.610749 
L 1085.487529 384.610749 
z
" style="fill:#777777;"/>
   </g>
   <g id="patch_209">
    <path clip-path="url(#p3faf064058)" d="M 1094.575068 387.2 
L 1103.662675 387.2 
L 1103.662675 383.814056 
L 1094.575068 383.814056 
z
" style="fill:#777777;"/>
   </g>
   <g id="patch_210">
    <path clip-path="url(#p3faf064058)" d="M 1103.662744 387.2 
L 1112.750352 387.2 
L 1112.750352 369.67276 
L 1103.662744 369.67276 
z
" style="fill:#777777;"/>
   </g>
   <g id="patch_211">
    <path d="M 630.65 387.2 
L 630.65 50.916 
" style="fill:none;stroke:#ffffff;stroke-linecap:square;stroke-linejoin:miter;"/>
   </g>
   <g id="patch_212">
    <path d="M 1137.7 387.2 
L 1137.7 50.916 
" style="fill:none;stroke:#ffffff;stroke-linecap:square;stroke-linejoin:miter;"/>
   </g>
   <g id="patch_213">
    <path d="M 630.65 387.2 
L 1137.7 387.2 
" style="fill:none;stroke:#ffffff;stroke-linecap:square;stroke-linejoin:miter;"/>
   </g>
   <g id="patch_214">
    <path d="M 630.65 50.916 
L 1137.7 50.916 
" style="fill:none;stroke:#ffffff;stroke-linecap:square;stroke-linejoin:miter;"/>
   </g>
   <g id="text_43">
    <!-- B) -->
    <defs>
     <path d="M 19.671875 34.8125 
L 19.671875 8.109375 
L 35.5 8.109375 
Q 43.453125 8.109375 47.28125 11.40625 
Q 51.125 14.703125 51.125 21.484375 
Q 51.125 28.328125 47.28125 31.5625 
Q 43.453125 34.8125 35.5 34.8125 
z
M 19.671875 64.796875 
L 19.671875 42.828125 
L 34.28125 42.828125 
Q 41.5 42.828125 45.03125 45.53125 
Q 48.578125 48.25 48.578125 53.8125 
Q 48.578125 59.328125 45.03125 62.0625 
Q 41.5 64.796875 34.28125 64.796875 
z
M 9.8125 72.90625 
L 35.015625 72.90625 
Q 46.296875 72.90625 52.390625 68.21875 
Q 58.5 63.53125 58.5 54.890625 
Q 58.5 48.1875 55.375 44.234375 
Q 52.25 40.28125 46.1875 39.3125 
Q 53.46875 37.75 57.5 32.78125 
Q 61.53125 27.828125 61.53125 20.40625 
Q 61.53125 10.640625 54.890625 5.3125 
Q 48.25 0 35.984375 0 
L 9.8125 0 
z
" id="DejaVuSans-66"/>
    </defs>
    <g transform="translate(571.335 21.7026)scale(0.16 -0.16)">
     <use xlink:href="#DejaVuSans-66"/>
     <use x="68.603516" xlink:href="#DejaVuSans-41"/>
    </g>
   </g>
   <g id="text_44">
    <!-- Heavy -->
    <defs>
     <path d="M 9.8125 72.90625 
L 19.671875 72.90625 
L 19.671875 43.015625 
L 55.515625 43.015625 
L 55.515625 72.90625 
L 65.375 72.90625 
L 65.375 0 
L 55.515625 0 
L 55.515625 34.71875 
L 19.671875 34.71875 
L 19.671875 0 
L 9.8125 0 
z
" id="DejaVuSans-72"/>
     <path d="M 2.984375 54.6875 
L 12.5 54.6875 
L 29.59375 8.796875 
L 46.6875 54.6875 
L 56.203125 54.6875 
L 35.6875 0 
L 23.484375 0 
z
" id="DejaVuSans-118"/>
    </defs>
    <g transform="translate(861.394875 44.916)scale(0.144 -0.144)">
     <use xlink:href="#DejaVuSans-72"/>
     <use x="75.195312" xlink:href="#DejaVuSans-101"/>
     <use x="136.71875" xlink:href="#DejaVuSans-97"/>
     <use x="197.998047" xlink:href="#DejaVuSans-118"/>
     <use x="257.177734" xlink:href="#DejaVuSans-121"/>
    </g>
   </g>
   <g id="legend_2">
    <g id="patch_215">
     <path d="M 637.65 88.27225 
L 676.598437 88.27225 
Q 678.598437 88.27225 678.598437 86.27225 
L 678.598437 57.916 
Q 678.598437 55.916 676.598437 55.916 
L 637.65 55.916 
Q 635.65 55.916 635.65 57.916 
L 635.65 86.27225 
Q 635.65 88.27225 637.65 88.27225 
z
" style="fill:#e5e5e5;opacity:0.8;stroke:#cccccc;stroke-linejoin:miter;stroke-width:0.5;"/>
    </g>
    <g id="patch_216">
     <path d="M 639.65 67.514438 
L 659.65 67.514438 
L 659.65 60.514438 
L 639.65 60.514438 
z
" style="fill:#988ed5;"/>
    </g>
    <g id="text_45">
     <!-- R -->
     <g transform="translate(667.65 67.514438)scale(0.1 -0.1)">
      <use xlink:href="#DejaVuSans-82"/>
     </g>
    </g>
    <g id="patch_217">
     <path d="M 639.65 82.192563 
L 659.65 82.192563 
L 659.65 75.192563 
L 639.65 75.192563 
z
" style="fill:#777777;"/>
    </g>
    <g id="text_46">
     <!-- K -->
     <g transform="translate(667.65 82.192563)scale(0.1 -0.1)">
      <use xlink:href="#DejaVuSans-75"/>
     </g>
    </g>
   </g>
  </g>
  <g id="text_47">
   <!-- BSF -->
   <defs>
    <path d="M 53.515625 70.515625 
L 53.515625 60.890625 
Q 47.90625 63.578125 42.921875 64.890625 
Q 37.9375 66.21875 33.296875 66.21875 
Q 25.25 66.21875 20.875 63.09375 
Q 16.5 59.96875 16.5 54.203125 
Q 16.5 49.359375 19.40625 46.890625 
Q 22.3125 44.4375 30.421875 42.921875 
L 36.375 41.703125 
Q 47.40625 39.59375 52.65625 34.296875 
Q 57.90625 29 57.90625 20.125 
Q 57.90625 9.515625 50.796875 4.046875 
Q 43.703125 -1.421875 29.984375 -1.421875 
Q 24.8125 -1.421875 18.96875 -0.25 
Q 13.140625 0.921875 6.890625 3.21875 
L 6.890625 13.375 
Q 12.890625 10.015625 18.65625 8.296875 
Q 24.421875 6.59375 29.984375 6.59375 
Q 38.421875 6.59375 43.015625 9.90625 
Q 47.609375 13.234375 47.609375 19.390625 
Q 47.609375 24.75 44.3125 27.78125 
Q 41.015625 30.8125 33.5 32.328125 
L 27.484375 33.5 
Q 16.453125 35.6875 11.515625 40.375 
Q 6.59375 45.0625 6.59375 53.421875 
Q 6.59375 63.09375 13.40625 68.65625 
Q 20.21875 74.21875 32.171875 74.21875 
Q 37.3125 74.21875 42.625 73.28125 
Q 47.953125 72.359375 53.515625 70.515625 
z
" id="DejaVuSans-83"/>
   </defs>
   <g transform="translate(558.936563 -29.522813)scale(0.18 -0.18)">
    <use xlink:href="#DejaVuSans-66"/>
    <use x="68.587891" xlink:href="#DejaVuSans-83"/>
    <use x="132.064453" xlink:href="#DejaVuSans-70"/>
   </g>
  </g>
 </g>
 <defs>
  <clipPath id="p72e3bef84e">
   <rect height="336.284" width="507.05" x="60.05" y="50.916"/>
  </clipPath>
  <clipPath id="p3faf064058">
   <rect height="336.284" width="507.05" x="630.65" y="50.916"/>
  </clipPath>
 </defs>
</svg>
