<?xml version="1.0" encoding="utf-8" standalone="no"?>
<!DOCTYPE svg PUBLIC "-//W3C//DTD SVG 1.1//EN"
  "http://www.w3.org/Graphics/SVG/1.1/DTD/svg11.dtd">
<!-- Created with matplotlib (https://matplotlib.org/) -->
<svg height="432pt" version="1.1" viewBox="0 0 1008 432" width="1008pt" xmlns="http://www.w3.org/2000/svg" xmlns:xlink="http://www.w3.org/1999/xlink">
 <defs>
  <style type="text/css">
*{stroke-linecap:butt;stroke-linejoin:round;}
  </style>
 </defs>
 <g id="figure_1">
  <g id="patch_1">
   <path d="M 0 432 
L 1008 432 
L 1008 0 
L 0 0 
z
" style="fill:#ffffff;"/>
  </g>
  <g id="axes_1">
   <g id="patch_2">
    <path d="M 88.3 382.2 
L 495.0375 382.2 
L 495.0375 50.916 
L 88.3 50.916 
z
" style="fill:#e5e5e5;"/>
   </g>
   <g id="matplotlib.axis_1">
    <g id="xtick_1">
     <g id="line2d_1">
      <path clip-path="url(#p40c6bcc3bb)" d="M 106.788068 382.2 
L 106.788068 50.916 
" style="fill:none;stroke:#ffffff;stroke-linecap:square;stroke-width:0.8;"/>
     </g>
     <g id="line2d_2">
      <defs>
       <path d="M 0 0 
L 0 3.5 
" id="m328bb19669" style="stroke:#555555;stroke-width:0.8;"/>
      </defs>
      <g>
       <use style="fill:#555555;stroke:#555555;stroke-width:0.8;" x="106.788068" xlink:href="#m328bb19669" y="382.2"/>
      </g>
     </g>
     <g id="text_1">
      <!-- 0 -->
      <defs>
       <path d="M 31.78125 66.40625 
Q 24.171875 66.40625 20.328125 58.90625 
Q 16.5 51.421875 16.5 36.375 
Q 16.5 21.390625 20.328125 13.890625 
Q 24.171875 6.390625 31.78125 6.390625 
Q 39.453125 6.390625 43.28125 13.890625 
Q 47.125 21.390625 47.125 36.375 
Q 47.125 51.421875 43.28125 58.90625 
Q 39.453125 66.40625 31.78125 66.40625 
z
M 31.78125 74.21875 
Q 44.046875 74.21875 50.515625 64.515625 
Q 56.984375 54.828125 56.984375 36.375 
Q 56.984375 17.96875 50.515625 8.265625 
Q 44.046875 -1.421875 31.78125 -1.421875 
Q 19.53125 -1.421875 13.0625 8.265625 
Q 6.59375 17.96875 6.59375 36.375 
Q 6.59375 54.828125 13.0625 64.515625 
Q 19.53125 74.21875 31.78125 74.21875 
z
" id="DejaVuSans-48"/>
      </defs>
      <g style="fill:#555555;" transform="translate(102.970568 398.318125)scale(0.12 -0.12)">
       <use xlink:href="#DejaVuSans-48"/>
      </g>
     </g>
    </g>
    <g id="xtick_2">
     <g id="line2d_3">
      <path clip-path="url(#p40c6bcc3bb)" d="M 168.236381 382.2 
L 168.236381 50.916 
" style="fill:none;stroke:#ffffff;stroke-linecap:square;stroke-width:0.8;"/>
     </g>
     <g id="line2d_4">
      <g>
       <use style="fill:#555555;stroke:#555555;stroke-width:0.8;" x="168.236381" xlink:href="#m328bb19669" y="382.2"/>
      </g>
     </g>
     <g id="text_2">
      <!-- 2 -->
      <defs>
       <path d="M 19.1875 8.296875 
L 53.609375 8.296875 
L 53.609375 0 
L 7.328125 0 
L 7.328125 8.296875 
Q 12.9375 14.109375 22.625 23.890625 
Q 32.328125 33.6875 34.8125 36.53125 
Q 39.546875 41.84375 41.421875 45.53125 
Q 43.3125 49.21875 43.3125 52.78125 
Q 43.3125 58.59375 39.234375 62.25 
Q 35.15625 65.921875 28.609375 65.921875 
Q 23.96875 65.921875 18.8125 64.3125 
Q 13.671875 62.703125 7.8125 59.421875 
L 7.8125 69.390625 
Q 13.765625 71.78125 18.9375 73 
Q 24.125 74.21875 28.421875 74.21875 
Q 39.75 74.21875 46.484375 68.546875 
Q 53.21875 62.890625 53.21875 53.421875 
Q 53.21875 48.921875 51.53125 44.890625 
Q 49.859375 40.875 45.40625 35.40625 
Q 44.1875 33.984375 37.640625 27.21875 
Q 31.109375 20.453125 19.1875 8.296875 
z
" id="DejaVuSans-50"/>
      </defs>
      <g style="fill:#555555;" transform="translate(164.418881 398.318125)scale(0.12 -0.12)">
       <use xlink:href="#DejaVuSans-50"/>
      </g>
     </g>
    </g>
    <g id="xtick_3">
     <g id="line2d_5">
      <path clip-path="url(#p40c6bcc3bb)" d="M 229.684693 382.2 
L 229.684693 50.916 
" style="fill:none;stroke:#ffffff;stroke-linecap:square;stroke-width:0.8;"/>
     </g>
     <g id="line2d_6">
      <g>
       <use style="fill:#555555;stroke:#555555;stroke-width:0.8;" x="229.684693" xlink:href="#m328bb19669" y="382.2"/>
      </g>
     </g>
     <g id="text_3">
      <!-- 4 -->
      <defs>
       <path d="M 37.796875 64.3125 
L 12.890625 25.390625 
L 37.796875 25.390625 
z
M 35.203125 72.90625 
L 47.609375 72.90625 
L 47.609375 25.390625 
L 58.015625 25.390625 
L 58.015625 17.1875 
L 47.609375 17.1875 
L 47.609375 0 
L 37.796875 0 
L 37.796875 17.1875 
L 4.890625 17.1875 
L 4.890625 26.703125 
z
" id="DejaVuSans-52"/>
      </defs>
      <g style="fill:#555555;" transform="translate(225.867193 398.318125)scale(0.12 -0.12)">
       <use xlink:href="#DejaVuSans-52"/>
      </g>
     </g>
    </g>
    <g id="xtick_4">
     <g id="line2d_7">
      <path clip-path="url(#p40c6bcc3bb)" d="M 291.133005 382.2 
L 291.133005 50.916 
" style="fill:none;stroke:#ffffff;stroke-linecap:square;stroke-width:0.8;"/>
     </g>
     <g id="line2d_8">
      <g>
       <use style="fill:#555555;stroke:#555555;stroke-width:0.8;" x="291.133005" xlink:href="#m328bb19669" y="382.2"/>
      </g>
     </g>
     <g id="text_4">
      <!-- 6 -->
      <defs>
       <path d="M 33.015625 40.375 
Q 26.375 40.375 22.484375 35.828125 
Q 18.609375 31.296875 18.609375 23.390625 
Q 18.609375 15.53125 22.484375 10.953125 
Q 26.375 6.390625 33.015625 6.390625 
Q 39.65625 6.390625 43.53125 10.953125 
Q 47.40625 15.53125 47.40625 23.390625 
Q 47.40625 31.296875 43.53125 35.828125 
Q 39.65625 40.375 33.015625 40.375 
z
M 52.59375 71.296875 
L 52.59375 62.3125 
Q 48.875 64.0625 45.09375 64.984375 
Q 41.3125 65.921875 37.59375 65.921875 
Q 27.828125 65.921875 22.671875 59.328125 
Q 17.53125 52.734375 16.796875 39.40625 
Q 19.671875 43.65625 24.015625 45.921875 
Q 28.375 48.1875 33.59375 48.1875 
Q 44.578125 48.1875 50.953125 41.515625 
Q 57.328125 34.859375 57.328125 23.390625 
Q 57.328125 12.15625 50.6875 5.359375 
Q 44.046875 -1.421875 33.015625 -1.421875 
Q 20.359375 -1.421875 13.671875 8.265625 
Q 6.984375 17.96875 6.984375 36.375 
Q 6.984375 53.65625 15.1875 63.9375 
Q 23.390625 74.21875 37.203125 74.21875 
Q 40.921875 74.21875 44.703125 73.484375 
Q 48.484375 72.75 52.59375 71.296875 
z
" id="DejaVuSans-54"/>
      </defs>
      <g style="fill:#555555;" transform="translate(287.315505 398.318125)scale(0.12 -0.12)">
       <use xlink:href="#DejaVuSans-54"/>
      </g>
     </g>
    </g>
    <g id="xtick_5">
     <g id="line2d_9">
      <path clip-path="url(#p40c6bcc3bb)" d="M 352.581318 382.2 
L 352.581318 50.916 
" style="fill:none;stroke:#ffffff;stroke-linecap:square;stroke-width:0.8;"/>
     </g>
     <g id="line2d_10">
      <g>
       <use style="fill:#555555;stroke:#555555;stroke-width:0.8;" x="352.581318" xlink:href="#m328bb19669" y="382.2"/>
      </g>
     </g>
     <g id="text_5">
      <!-- 8 -->
      <defs>
       <path d="M 31.78125 34.625 
Q 24.75 34.625 20.71875 30.859375 
Q 16.703125 27.09375 16.703125 20.515625 
Q 16.703125 13.921875 20.71875 10.15625 
Q 24.75 6.390625 31.78125 6.390625 
Q 38.8125 6.390625 42.859375 10.171875 
Q 46.921875 13.96875 46.921875 20.515625 
Q 46.921875 27.09375 42.890625 30.859375 
Q 38.875 34.625 31.78125 34.625 
z
M 21.921875 38.8125 
Q 15.578125 40.375 12.03125 44.71875 
Q 8.5 49.078125 8.5 55.328125 
Q 8.5 64.0625 14.71875 69.140625 
Q 20.953125 74.21875 31.78125 74.21875 
Q 42.671875 74.21875 48.875 69.140625 
Q 55.078125 64.0625 55.078125 55.328125 
Q 55.078125 49.078125 51.53125 44.71875 
Q 48 40.375 41.703125 38.8125 
Q 48.828125 37.15625 52.796875 32.3125 
Q 56.78125 27.484375 56.78125 20.515625 
Q 56.78125 9.90625 50.3125 4.234375 
Q 43.84375 -1.421875 31.78125 -1.421875 
Q 19.734375 -1.421875 13.25 4.234375 
Q 6.78125 9.90625 6.78125 20.515625 
Q 6.78125 27.484375 10.78125 32.3125 
Q 14.796875 37.15625 21.921875 38.8125 
z
M 18.3125 54.390625 
Q 18.3125 48.734375 21.84375 45.5625 
Q 25.390625 42.390625 31.78125 42.390625 
Q 38.140625 42.390625 41.71875 45.5625 
Q 45.3125 48.734375 45.3125 54.390625 
Q 45.3125 60.0625 41.71875 63.234375 
Q 38.140625 66.40625 31.78125 66.40625 
Q 25.390625 66.40625 21.84375 63.234375 
Q 18.3125 60.0625 18.3125 54.390625 
z
" id="DejaVuSans-56"/>
      </defs>
      <g style="fill:#555555;" transform="translate(348.763818 398.318125)scale(0.12 -0.12)">
       <use xlink:href="#DejaVuSans-56"/>
      </g>
     </g>
    </g>
    <g id="xtick_6">
     <g id="line2d_11">
      <path clip-path="url(#p40c6bcc3bb)" d="M 414.02963 382.2 
L 414.02963 50.916 
" style="fill:none;stroke:#ffffff;stroke-linecap:square;stroke-width:0.8;"/>
     </g>
     <g id="line2d_12">
      <g>
       <use style="fill:#555555;stroke:#555555;stroke-width:0.8;" x="414.02963" xlink:href="#m328bb19669" y="382.2"/>
      </g>
     </g>
     <g id="text_6">
      <!-- 10 -->
      <defs>
       <path d="M 12.40625 8.296875 
L 28.515625 8.296875 
L 28.515625 63.921875 
L 10.984375 60.40625 
L 10.984375 69.390625 
L 28.421875 72.90625 
L 38.28125 72.90625 
L 38.28125 8.296875 
L 54.390625 8.296875 
L 54.390625 0 
L 12.40625 0 
z
" id="DejaVuSans-49"/>
      </defs>
      <g style="fill:#555555;" transform="translate(406.39463 398.318125)scale(0.12 -0.12)">
       <use xlink:href="#DejaVuSans-49"/>
       <use x="63.623047" xlink:href="#DejaVuSans-48"/>
      </g>
     </g>
    </g>
    <g id="xtick_7">
     <g id="line2d_13">
      <path clip-path="url(#p40c6bcc3bb)" d="M 475.477942 382.2 
L 475.477942 50.916 
" style="fill:none;stroke:#ffffff;stroke-linecap:square;stroke-width:0.8;"/>
     </g>
     <g id="line2d_14">
      <g>
       <use style="fill:#555555;stroke:#555555;stroke-width:0.8;" x="475.477942" xlink:href="#m328bb19669" y="382.2"/>
      </g>
     </g>
     <g id="text_7">
      <!-- 12 -->
      <g style="fill:#555555;" transform="translate(467.842942 398.318125)scale(0.12 -0.12)">
       <use xlink:href="#DejaVuSans-49"/>
       <use x="63.623047" xlink:href="#DejaVuSans-50"/>
      </g>
     </g>
    </g>
    <g id="text_8">
     <!-- Hours -->
     <defs>
      <path d="M 9.8125 72.90625 
L 19.671875 72.90625 
L 19.671875 43.015625 
L 55.515625 43.015625 
L 55.515625 72.90625 
L 65.375 72.90625 
L 65.375 0 
L 55.515625 0 
L 55.515625 34.71875 
L 19.671875 34.71875 
L 19.671875 0 
L 9.8125 0 
z
" id="DejaVuSans-72"/>
      <path d="M 30.609375 48.390625 
Q 23.390625 48.390625 19.1875 42.75 
Q 14.984375 37.109375 14.984375 27.296875 
Q 14.984375 17.484375 19.15625 11.84375 
Q 23.34375 6.203125 30.609375 6.203125 
Q 37.796875 6.203125 41.984375 11.859375 
Q 46.1875 17.53125 46.1875 27.296875 
Q 46.1875 37.015625 41.984375 42.703125 
Q 37.796875 48.390625 30.609375 48.390625 
z
M 30.609375 56 
Q 42.328125 56 49.015625 48.375 
Q 55.71875 40.765625 55.71875 27.296875 
Q 55.71875 13.875 49.015625 6.21875 
Q 42.328125 -1.421875 30.609375 -1.421875 
Q 18.84375 -1.421875 12.171875 6.21875 
Q 5.515625 13.875 5.515625 27.296875 
Q 5.515625 40.765625 12.171875 48.375 
Q 18.84375 56 30.609375 56 
z
" id="DejaVuSans-111"/>
      <path d="M 8.5 21.578125 
L 8.5 54.6875 
L 17.484375 54.6875 
L 17.484375 21.921875 
Q 17.484375 14.15625 20.5 10.265625 
Q 23.53125 6.390625 29.59375 6.390625 
Q 36.859375 6.390625 41.078125 11.03125 
Q 45.3125 15.671875 45.3125 23.6875 
L 45.3125 54.6875 
L 54.296875 54.6875 
L 54.296875 0 
L 45.3125 0 
L 45.3125 8.40625 
Q 42.046875 3.421875 37.71875 1 
Q 33.40625 -1.421875 27.6875 -1.421875 
Q 18.265625 -1.421875 13.375 4.4375 
Q 8.5 10.296875 8.5 21.578125 
z
M 31.109375 56 
z
" id="DejaVuSans-117"/>
      <path d="M 41.109375 46.296875 
Q 39.59375 47.171875 37.8125 47.578125 
Q 36.03125 48 33.890625 48 
Q 26.265625 48 22.1875 43.046875 
Q 18.109375 38.09375 18.109375 28.8125 
L 18.109375 0 
L 9.078125 0 
L 9.078125 54.6875 
L 18.109375 54.6875 
L 18.109375 46.1875 
Q 20.953125 51.171875 25.484375 53.578125 
Q 30.03125 56 36.53125 56 
Q 37.453125 56 38.578125 55.875 
Q 39.703125 55.765625 41.0625 55.515625 
z
" id="DejaVuSans-114"/>
      <path d="M 44.28125 53.078125 
L 44.28125 44.578125 
Q 40.484375 46.53125 36.375 47.5 
Q 32.28125 48.484375 27.875 48.484375 
Q 21.1875 48.484375 17.84375 46.4375 
Q 14.5 44.390625 14.5 40.28125 
Q 14.5 37.15625 16.890625 35.375 
Q 19.28125 33.59375 26.515625 31.984375 
L 29.59375 31.296875 
Q 39.15625 29.25 43.1875 25.515625 
Q 47.21875 21.78125 47.21875 15.09375 
Q 47.21875 7.46875 41.1875 3.015625 
Q 35.15625 -1.421875 24.609375 -1.421875 
Q 20.21875 -1.421875 15.453125 -0.5625 
Q 10.6875 0.296875 5.421875 2 
L 5.421875 11.28125 
Q 10.40625 8.6875 15.234375 7.390625 
Q 20.0625 6.109375 24.8125 6.109375 
Q 31.15625 6.109375 34.5625 8.28125 
Q 37.984375 10.453125 37.984375 14.40625 
Q 37.984375 18.0625 35.515625 20.015625 
Q 33.0625 21.96875 24.703125 23.78125 
L 21.578125 24.515625 
Q 13.234375 26.265625 9.515625 29.90625 
Q 5.8125 33.546875 5.8125 39.890625 
Q 5.8125 47.609375 11.28125 51.796875 
Q 16.75 56 26.8125 56 
Q 31.78125 56 36.171875 55.265625 
Q 40.578125 54.546875 44.28125 53.078125 
z
" id="DejaVuSans-115"/>
     </defs>
     <g style="fill:#555555;" transform="translate(268.23125 416.97125)scale(0.16 -0.16)">
      <use xlink:href="#DejaVuSans-72"/>
      <use x="75.195312" xlink:href="#DejaVuSans-111"/>
      <use x="136.376953" xlink:href="#DejaVuSans-117"/>
      <use x="199.755859" xlink:href="#DejaVuSans-114"/>
      <use x="240.869141" xlink:href="#DejaVuSans-115"/>
     </g>
    </g>
   </g>
   <g id="matplotlib.axis_2">
    <g id="ytick_1">
     <g id="line2d_15">
      <path clip-path="url(#p40c6bcc3bb)" d="M 88.3 371.607595 
L 495.0375 371.607595 
" style="fill:none;stroke:#ffffff;stroke-linecap:square;stroke-width:0.8;"/>
     </g>
     <g id="line2d_16">
      <defs>
       <path d="M 0 0 
L -3.5 0 
" id="m22a4ff953b" style="stroke:#555555;stroke-width:0.8;"/>
      </defs>
      <g>
       <use style="fill:#555555;stroke:#555555;stroke-width:0.8;" x="88.3" xlink:href="#m22a4ff953b" y="371.607595"/>
      </g>
     </g>
     <g id="text_9">
      <!-- 5.0e+05 -->
      <defs>
       <path d="M 10.796875 72.90625 
L 49.515625 72.90625 
L 49.515625 64.59375 
L 19.828125 64.59375 
L 19.828125 46.734375 
Q 21.96875 47.46875 24.109375 47.828125 
Q 26.265625 48.1875 28.421875 48.1875 
Q 40.625 48.1875 47.75 41.5 
Q 54.890625 34.8125 54.890625 23.390625 
Q 54.890625 11.625 47.5625 5.09375 
Q 40.234375 -1.421875 26.90625 -1.421875 
Q 22.3125 -1.421875 17.546875 -0.640625 
Q 12.796875 0.140625 7.71875 1.703125 
L 7.71875 11.625 
Q 12.109375 9.234375 16.796875 8.0625 
Q 21.484375 6.890625 26.703125 6.890625 
Q 35.15625 6.890625 40.078125 11.328125 
Q 45.015625 15.765625 45.015625 23.390625 
Q 45.015625 31 40.078125 35.4375 
Q 35.15625 39.890625 26.703125 39.890625 
Q 22.75 39.890625 18.8125 39.015625 
Q 14.890625 38.140625 10.796875 36.28125 
z
" id="DejaVuSans-53"/>
       <path d="M 10.6875 12.40625 
L 21 12.40625 
L 21 0 
L 10.6875 0 
z
" id="DejaVuSans-46"/>
       <path d="M 56.203125 29.59375 
L 56.203125 25.203125 
L 14.890625 25.203125 
Q 15.484375 15.921875 20.484375 11.0625 
Q 25.484375 6.203125 34.421875 6.203125 
Q 39.59375 6.203125 44.453125 7.46875 
Q 49.3125 8.734375 54.109375 11.28125 
L 54.109375 2.78125 
Q 49.265625 0.734375 44.1875 -0.34375 
Q 39.109375 -1.421875 33.890625 -1.421875 
Q 20.796875 -1.421875 13.15625 6.1875 
Q 5.515625 13.8125 5.515625 26.8125 
Q 5.515625 40.234375 12.765625 48.109375 
Q 20.015625 56 32.328125 56 
Q 43.359375 56 49.78125 48.890625 
Q 56.203125 41.796875 56.203125 29.59375 
z
M 47.21875 32.234375 
Q 47.125 39.59375 43.09375 43.984375 
Q 39.0625 48.390625 32.421875 48.390625 
Q 24.90625 48.390625 20.390625 44.140625 
Q 15.875 39.890625 15.1875 32.171875 
z
" id="DejaVuSans-101"/>
       <path d="M 46 62.703125 
L 46 35.5 
L 73.1875 35.5 
L 73.1875 27.203125 
L 46 27.203125 
L 46 0 
L 37.796875 0 
L 37.796875 27.203125 
L 10.59375 27.203125 
L 10.59375 35.5 
L 37.796875 35.5 
L 37.796875 62.703125 
z
" id="DejaVuSans-43"/>
      </defs>
      <g style="fill:#555555;" transform="translate(29.506875 376.166658)scale(0.12 -0.12)">
       <use xlink:href="#DejaVuSans-53"/>
       <use x="63.623047" xlink:href="#DejaVuSans-46"/>
       <use x="95.410156" xlink:href="#DejaVuSans-48"/>
       <use x="159.033203" xlink:href="#DejaVuSans-101"/>
       <use x="220.556641" xlink:href="#DejaVuSans-43"/>
       <use x="304.345703" xlink:href="#DejaVuSans-48"/>
       <use x="367.96875" xlink:href="#DejaVuSans-53"/>
      </g>
     </g>
    </g>
    <g id="ytick_2">
     <g id="line2d_17">
      <path clip-path="url(#p40c6bcc3bb)" d="M 88.3 333.525956 
L 495.0375 333.525956 
" style="fill:none;stroke:#ffffff;stroke-linecap:square;stroke-width:0.8;"/>
     </g>
     <g id="line2d_18">
      <g>
       <use style="fill:#555555;stroke:#555555;stroke-width:0.8;" x="88.3" xlink:href="#m22a4ff953b" y="333.525956"/>
      </g>
     </g>
     <g id="text_10">
      <!-- 6.0e+05 -->
      <g style="fill:#555555;" transform="translate(29.506875 338.085018)scale(0.12 -0.12)">
       <use xlink:href="#DejaVuSans-54"/>
       <use x="63.623047" xlink:href="#DejaVuSans-46"/>
       <use x="95.410156" xlink:href="#DejaVuSans-48"/>
       <use x="159.033203" xlink:href="#DejaVuSans-101"/>
       <use x="220.556641" xlink:href="#DejaVuSans-43"/>
       <use x="304.345703" xlink:href="#DejaVuSans-48"/>
       <use x="367.96875" xlink:href="#DejaVuSans-53"/>
      </g>
     </g>
    </g>
    <g id="ytick_3">
     <g id="line2d_19">
      <path clip-path="url(#p40c6bcc3bb)" d="M 88.3 295.444316 
L 495.0375 295.444316 
" style="fill:none;stroke:#ffffff;stroke-linecap:square;stroke-width:0.8;"/>
     </g>
     <g id="line2d_20">
      <g>
       <use style="fill:#555555;stroke:#555555;stroke-width:0.8;" x="88.3" xlink:href="#m22a4ff953b" y="295.444316"/>
      </g>
     </g>
     <g id="text_11">
      <!-- 7.0e+05 -->
      <defs>
       <path d="M 8.203125 72.90625 
L 55.078125 72.90625 
L 55.078125 68.703125 
L 28.609375 0 
L 18.3125 0 
L 43.21875 64.59375 
L 8.203125 64.59375 
z
" id="DejaVuSans-55"/>
      </defs>
      <g style="fill:#555555;" transform="translate(29.506875 300.003378)scale(0.12 -0.12)">
       <use xlink:href="#DejaVuSans-55"/>
       <use x="63.623047" xlink:href="#DejaVuSans-46"/>
       <use x="95.410156" xlink:href="#DejaVuSans-48"/>
       <use x="159.033203" xlink:href="#DejaVuSans-101"/>
       <use x="220.556641" xlink:href="#DejaVuSans-43"/>
       <use x="304.345703" xlink:href="#DejaVuSans-48"/>
       <use x="367.96875" xlink:href="#DejaVuSans-53"/>
      </g>
     </g>
    </g>
    <g id="ytick_4">
     <g id="line2d_21">
      <path clip-path="url(#p40c6bcc3bb)" d="M 88.3 257.362676 
L 495.0375 257.362676 
" style="fill:none;stroke:#ffffff;stroke-linecap:square;stroke-width:0.8;"/>
     </g>
     <g id="line2d_22">
      <g>
       <use style="fill:#555555;stroke:#555555;stroke-width:0.8;" x="88.3" xlink:href="#m22a4ff953b" y="257.362676"/>
      </g>
     </g>
     <g id="text_12">
      <!-- 8.0e+05 -->
      <g style="fill:#555555;" transform="translate(29.506875 261.921738)scale(0.12 -0.12)">
       <use xlink:href="#DejaVuSans-56"/>
       <use x="63.623047" xlink:href="#DejaVuSans-46"/>
       <use x="95.410156" xlink:href="#DejaVuSans-48"/>
       <use x="159.033203" xlink:href="#DejaVuSans-101"/>
       <use x="220.556641" xlink:href="#DejaVuSans-43"/>
       <use x="304.345703" xlink:href="#DejaVuSans-48"/>
       <use x="367.96875" xlink:href="#DejaVuSans-53"/>
      </g>
     </g>
    </g>
    <g id="ytick_5">
     <g id="line2d_23">
      <path clip-path="url(#p40c6bcc3bb)" d="M 88.3 219.281036 
L 495.0375 219.281036 
" style="fill:none;stroke:#ffffff;stroke-linecap:square;stroke-width:0.8;"/>
     </g>
     <g id="line2d_24">
      <g>
       <use style="fill:#555555;stroke:#555555;stroke-width:0.8;" x="88.3" xlink:href="#m22a4ff953b" y="219.281036"/>
      </g>
     </g>
     <g id="text_13">
      <!-- 9.0e+05 -->
      <defs>
       <path d="M 10.984375 1.515625 
L 10.984375 10.5 
Q 14.703125 8.734375 18.5 7.8125 
Q 22.3125 6.890625 25.984375 6.890625 
Q 35.75 6.890625 40.890625 13.453125 
Q 46.046875 20.015625 46.78125 33.40625 
Q 43.953125 29.203125 39.59375 26.953125 
Q 35.25 24.703125 29.984375 24.703125 
Q 19.046875 24.703125 12.671875 31.3125 
Q 6.296875 37.9375 6.296875 49.421875 
Q 6.296875 60.640625 12.9375 67.421875 
Q 19.578125 74.21875 30.609375 74.21875 
Q 43.265625 74.21875 49.921875 64.515625 
Q 56.59375 54.828125 56.59375 36.375 
Q 56.59375 19.140625 48.40625 8.859375 
Q 40.234375 -1.421875 26.421875 -1.421875 
Q 22.703125 -1.421875 18.890625 -0.6875 
Q 15.09375 0.046875 10.984375 1.515625 
z
M 30.609375 32.421875 
Q 37.25 32.421875 41.125 36.953125 
Q 45.015625 41.5 45.015625 49.421875 
Q 45.015625 57.28125 41.125 61.84375 
Q 37.25 66.40625 30.609375 66.40625 
Q 23.96875 66.40625 20.09375 61.84375 
Q 16.21875 57.28125 16.21875 49.421875 
Q 16.21875 41.5 20.09375 36.953125 
Q 23.96875 32.421875 30.609375 32.421875 
z
" id="DejaVuSans-57"/>
      </defs>
      <g style="fill:#555555;" transform="translate(29.506875 223.840098)scale(0.12 -0.12)">
       <use xlink:href="#DejaVuSans-57"/>
       <use x="63.623047" xlink:href="#DejaVuSans-46"/>
       <use x="95.410156" xlink:href="#DejaVuSans-48"/>
       <use x="159.033203" xlink:href="#DejaVuSans-101"/>
       <use x="220.556641" xlink:href="#DejaVuSans-43"/>
       <use x="304.345703" xlink:href="#DejaVuSans-48"/>
       <use x="367.96875" xlink:href="#DejaVuSans-53"/>
      </g>
     </g>
    </g>
    <g id="ytick_6">
     <g id="line2d_25">
      <path clip-path="url(#p40c6bcc3bb)" d="M 88.3 181.199396 
L 495.0375 181.199396 
" style="fill:none;stroke:#ffffff;stroke-linecap:square;stroke-width:0.8;"/>
     </g>
     <g id="line2d_26">
      <g>
       <use style="fill:#555555;stroke:#555555;stroke-width:0.8;" x="88.3" xlink:href="#m22a4ff953b" y="181.199396"/>
      </g>
     </g>
     <g id="text_14">
      <!-- 1.0e+06 -->
      <g style="fill:#555555;" transform="translate(29.506875 185.758459)scale(0.12 -0.12)">
       <use xlink:href="#DejaVuSans-49"/>
       <use x="63.623047" xlink:href="#DejaVuSans-46"/>
       <use x="95.410156" xlink:href="#DejaVuSans-48"/>
       <use x="159.033203" xlink:href="#DejaVuSans-101"/>
       <use x="220.556641" xlink:href="#DejaVuSans-43"/>
       <use x="304.345703" xlink:href="#DejaVuSans-48"/>
       <use x="367.96875" xlink:href="#DejaVuSans-54"/>
      </g>
     </g>
    </g>
    <g id="ytick_7">
     <g id="line2d_27">
      <path clip-path="url(#p40c6bcc3bb)" d="M 88.3 143.117756 
L 495.0375 143.117756 
" style="fill:none;stroke:#ffffff;stroke-linecap:square;stroke-width:0.8;"/>
     </g>
     <g id="line2d_28">
      <g>
       <use style="fill:#555555;stroke:#555555;stroke-width:0.8;" x="88.3" xlink:href="#m22a4ff953b" y="143.117756"/>
      </g>
     </g>
     <g id="text_15">
      <!-- 1.1e+06 -->
      <g style="fill:#555555;" transform="translate(29.506875 147.676819)scale(0.12 -0.12)">
       <use xlink:href="#DejaVuSans-49"/>
       <use x="63.623047" xlink:href="#DejaVuSans-46"/>
       <use x="95.410156" xlink:href="#DejaVuSans-49"/>
       <use x="159.033203" xlink:href="#DejaVuSans-101"/>
       <use x="220.556641" xlink:href="#DejaVuSans-43"/>
       <use x="304.345703" xlink:href="#DejaVuSans-48"/>
       <use x="367.96875" xlink:href="#DejaVuSans-54"/>
      </g>
     </g>
    </g>
    <g id="ytick_8">
     <g id="line2d_29">
      <path clip-path="url(#p40c6bcc3bb)" d="M 88.3 105.036116 
L 495.0375 105.036116 
" style="fill:none;stroke:#ffffff;stroke-linecap:square;stroke-width:0.8;"/>
     </g>
     <g id="line2d_30">
      <g>
       <use style="fill:#555555;stroke:#555555;stroke-width:0.8;" x="88.3" xlink:href="#m22a4ff953b" y="105.036116"/>
      </g>
     </g>
     <g id="text_16">
      <!-- 1.2e+06 -->
      <g style="fill:#555555;" transform="translate(29.506875 109.595179)scale(0.12 -0.12)">
       <use xlink:href="#DejaVuSans-49"/>
       <use x="63.623047" xlink:href="#DejaVuSans-46"/>
       <use x="95.410156" xlink:href="#DejaVuSans-50"/>
       <use x="159.033203" xlink:href="#DejaVuSans-101"/>
       <use x="220.556641" xlink:href="#DejaVuSans-43"/>
       <use x="304.345703" xlink:href="#DejaVuSans-48"/>
       <use x="367.96875" xlink:href="#DejaVuSans-54"/>
      </g>
     </g>
    </g>
    <g id="ytick_9">
     <g id="line2d_31">
      <path clip-path="url(#p40c6bcc3bb)" d="M 88.3 66.954476 
L 495.0375 66.954476 
" style="fill:none;stroke:#ffffff;stroke-linecap:square;stroke-width:0.8;"/>
     </g>
     <g id="line2d_32">
      <g>
       <use style="fill:#555555;stroke:#555555;stroke-width:0.8;" x="88.3" xlink:href="#m22a4ff953b" y="66.954476"/>
      </g>
     </g>
     <g id="text_17">
      <!-- 1.3e+06 -->
      <defs>
       <path d="M 40.578125 39.3125 
Q 47.65625 37.796875 51.625 33 
Q 55.609375 28.21875 55.609375 21.1875 
Q 55.609375 10.40625 48.1875 4.484375 
Q 40.765625 -1.421875 27.09375 -1.421875 
Q 22.515625 -1.421875 17.65625 -0.515625 
Q 12.796875 0.390625 7.625 2.203125 
L 7.625 11.71875 
Q 11.71875 9.328125 16.59375 8.109375 
Q 21.484375 6.890625 26.8125 6.890625 
Q 36.078125 6.890625 40.9375 10.546875 
Q 45.796875 14.203125 45.796875 21.1875 
Q 45.796875 27.640625 41.28125 31.265625 
Q 36.765625 34.90625 28.71875 34.90625 
L 20.21875 34.90625 
L 20.21875 43.015625 
L 29.109375 43.015625 
Q 36.375 43.015625 40.234375 45.921875 
Q 44.09375 48.828125 44.09375 54.296875 
Q 44.09375 59.90625 40.109375 62.90625 
Q 36.140625 65.921875 28.71875 65.921875 
Q 24.65625 65.921875 20.015625 65.03125 
Q 15.375 64.15625 9.8125 62.3125 
L 9.8125 71.09375 
Q 15.4375 72.65625 20.34375 73.4375 
Q 25.25 74.21875 29.59375 74.21875 
Q 40.828125 74.21875 47.359375 69.109375 
Q 53.90625 64.015625 53.90625 55.328125 
Q 53.90625 49.265625 50.4375 45.09375 
Q 46.96875 40.921875 40.578125 39.3125 
z
" id="DejaVuSans-51"/>
      </defs>
      <g style="fill:#555555;" transform="translate(29.506875 71.513539)scale(0.12 -0.12)">
       <use xlink:href="#DejaVuSans-49"/>
       <use x="63.623047" xlink:href="#DejaVuSans-46"/>
       <use x="95.410156" xlink:href="#DejaVuSans-51"/>
       <use x="159.033203" xlink:href="#DejaVuSans-101"/>
       <use x="220.556641" xlink:href="#DejaVuSans-43"/>
       <use x="304.345703" xlink:href="#DejaVuSans-48"/>
       <use x="367.96875" xlink:href="#DejaVuSans-54"/>
      </g>
     </g>
    </g>
    <g id="text_18">
     <!-- Parasite Count/ ml Culture -->
     <defs>
      <path d="M 19.671875 64.796875 
L 19.671875 37.40625 
L 32.078125 37.40625 
Q 38.96875 37.40625 42.71875 40.96875 
Q 46.484375 44.53125 46.484375 51.125 
Q 46.484375 57.671875 42.71875 61.234375 
Q 38.96875 64.796875 32.078125 64.796875 
z
M 9.8125 72.90625 
L 32.078125 72.90625 
Q 44.34375 72.90625 50.609375 67.359375 
Q 56.890625 61.8125 56.890625 51.125 
Q 56.890625 40.328125 50.609375 34.8125 
Q 44.34375 29.296875 32.078125 29.296875 
L 19.671875 29.296875 
L 19.671875 0 
L 9.8125 0 
z
" id="DejaVuSans-80"/>
      <path d="M 34.28125 27.484375 
Q 23.390625 27.484375 19.1875 25 
Q 14.984375 22.515625 14.984375 16.5 
Q 14.984375 11.71875 18.140625 8.90625 
Q 21.296875 6.109375 26.703125 6.109375 
Q 34.1875 6.109375 38.703125 11.40625 
Q 43.21875 16.703125 43.21875 25.484375 
L 43.21875 27.484375 
z
M 52.203125 31.203125 
L 52.203125 0 
L 43.21875 0 
L 43.21875 8.296875 
Q 40.140625 3.328125 35.546875 0.953125 
Q 30.953125 -1.421875 24.3125 -1.421875 
Q 15.921875 -1.421875 10.953125 3.296875 
Q 6 8.015625 6 15.921875 
Q 6 25.140625 12.171875 29.828125 
Q 18.359375 34.515625 30.609375 34.515625 
L 43.21875 34.515625 
L 43.21875 35.40625 
Q 43.21875 41.609375 39.140625 45 
Q 35.0625 48.390625 27.6875 48.390625 
Q 23 48.390625 18.546875 47.265625 
Q 14.109375 46.140625 10.015625 43.890625 
L 10.015625 52.203125 
Q 14.9375 54.109375 19.578125 55.046875 
Q 24.21875 56 28.609375 56 
Q 40.484375 56 46.34375 49.84375 
Q 52.203125 43.703125 52.203125 31.203125 
z
" id="DejaVuSans-97"/>
      <path d="M 9.421875 54.6875 
L 18.40625 54.6875 
L 18.40625 0 
L 9.421875 0 
z
M 9.421875 75.984375 
L 18.40625 75.984375 
L 18.40625 64.59375 
L 9.421875 64.59375 
z
" id="DejaVuSans-105"/>
      <path d="M 18.3125 70.21875 
L 18.3125 54.6875 
L 36.8125 54.6875 
L 36.8125 47.703125 
L 18.3125 47.703125 
L 18.3125 18.015625 
Q 18.3125 11.328125 20.140625 9.421875 
Q 21.96875 7.515625 27.59375 7.515625 
L 36.8125 7.515625 
L 36.8125 0 
L 27.59375 0 
Q 17.1875 0 13.234375 3.875 
Q 9.28125 7.765625 9.28125 18.015625 
L 9.28125 47.703125 
L 2.6875 47.703125 
L 2.6875 54.6875 
L 9.28125 54.6875 
L 9.28125 70.21875 
z
" id="DejaVuSans-116"/>
      <path id="DejaVuSans-32"/>
      <path d="M 64.40625 67.28125 
L 64.40625 56.890625 
Q 59.421875 61.53125 53.78125 63.8125 
Q 48.140625 66.109375 41.796875 66.109375 
Q 29.296875 66.109375 22.65625 58.46875 
Q 16.015625 50.828125 16.015625 36.375 
Q 16.015625 21.96875 22.65625 14.328125 
Q 29.296875 6.6875 41.796875 6.6875 
Q 48.140625 6.6875 53.78125 8.984375 
Q 59.421875 11.28125 64.40625 15.921875 
L 64.40625 5.609375 
Q 59.234375 2.09375 53.4375 0.328125 
Q 47.65625 -1.421875 41.21875 -1.421875 
Q 24.65625 -1.421875 15.125 8.703125 
Q 5.609375 18.84375 5.609375 36.375 
Q 5.609375 53.953125 15.125 64.078125 
Q 24.65625 74.21875 41.21875 74.21875 
Q 47.75 74.21875 53.53125 72.484375 
Q 59.328125 70.75 64.40625 67.28125 
z
" id="DejaVuSans-67"/>
      <path d="M 54.890625 33.015625 
L 54.890625 0 
L 45.90625 0 
L 45.90625 32.71875 
Q 45.90625 40.484375 42.875 44.328125 
Q 39.84375 48.1875 33.796875 48.1875 
Q 26.515625 48.1875 22.3125 43.546875 
Q 18.109375 38.921875 18.109375 30.90625 
L 18.109375 0 
L 9.078125 0 
L 9.078125 54.6875 
L 18.109375 54.6875 
L 18.109375 46.1875 
Q 21.34375 51.125 25.703125 53.5625 
Q 30.078125 56 35.796875 56 
Q 45.21875 56 50.046875 50.171875 
Q 54.890625 44.34375 54.890625 33.015625 
z
" id="DejaVuSans-110"/>
      <path d="M 25.390625 72.90625 
L 33.6875 72.90625 
L 8.296875 -9.28125 
L 0 -9.28125 
z
" id="DejaVuSans-47"/>
      <path d="M 52 44.1875 
Q 55.375 50.25 60.0625 53.125 
Q 64.75 56 71.09375 56 
Q 79.640625 56 84.28125 50.015625 
Q 88.921875 44.046875 88.921875 33.015625 
L 88.921875 0 
L 79.890625 0 
L 79.890625 32.71875 
Q 79.890625 40.578125 77.09375 44.375 
Q 74.3125 48.1875 68.609375 48.1875 
Q 61.625 48.1875 57.5625 43.546875 
Q 53.515625 38.921875 53.515625 30.90625 
L 53.515625 0 
L 44.484375 0 
L 44.484375 32.71875 
Q 44.484375 40.625 41.703125 44.40625 
Q 38.921875 48.1875 33.109375 48.1875 
Q 26.21875 48.1875 22.15625 43.53125 
Q 18.109375 38.875 18.109375 30.90625 
L 18.109375 0 
L 9.078125 0 
L 9.078125 54.6875 
L 18.109375 54.6875 
L 18.109375 46.1875 
Q 21.1875 51.21875 25.484375 53.609375 
Q 29.78125 56 35.6875 56 
Q 41.65625 56 45.828125 52.96875 
Q 50 49.953125 52 44.1875 
z
" id="DejaVuSans-109"/>
      <path d="M 9.421875 75.984375 
L 18.40625 75.984375 
L 18.40625 0 
L 9.421875 0 
z
" id="DejaVuSans-108"/>
     </defs>
     <g style="fill:#555555;" transform="translate(22.179375 322.308)rotate(-90)scale(0.16 -0.16)">
      <use xlink:href="#DejaVuSans-80"/>
      <use x="60.240234" xlink:href="#DejaVuSans-97"/>
      <use x="121.519531" xlink:href="#DejaVuSans-114"/>
      <use x="162.632812" xlink:href="#DejaVuSans-97"/>
      <use x="223.912109" xlink:href="#DejaVuSans-115"/>
      <use x="276.011719" xlink:href="#DejaVuSans-105"/>
      <use x="303.794922" xlink:href="#DejaVuSans-116"/>
      <use x="343.003906" xlink:href="#DejaVuSans-101"/>
      <use x="404.527344" xlink:href="#DejaVuSans-32"/>
      <use x="436.314453" xlink:href="#DejaVuSans-67"/>
      <use x="506.138672" xlink:href="#DejaVuSans-111"/>
      <use x="567.320312" xlink:href="#DejaVuSans-117"/>
      <use x="630.699219" xlink:href="#DejaVuSans-110"/>
      <use x="694.078125" xlink:href="#DejaVuSans-116"/>
      <use x="733.287109" xlink:href="#DejaVuSans-47"/>
      <use x="766.978516" xlink:href="#DejaVuSans-32"/>
      <use x="798.765625" xlink:href="#DejaVuSans-109"/>
      <use x="896.177734" xlink:href="#DejaVuSans-108"/>
      <use x="923.960938" xlink:href="#DejaVuSans-32"/>
      <use x="955.748047" xlink:href="#DejaVuSans-67"/>
      <use x="1025.572266" xlink:href="#DejaVuSans-117"/>
      <use x="1088.951172" xlink:href="#DejaVuSans-108"/>
      <use x="1116.734375" xlink:href="#DejaVuSans-116"/>
      <use x="1155.943359" xlink:href="#DejaVuSans-117"/>
      <use x="1219.322266" xlink:href="#DejaVuSans-114"/>
      <use x="1260.404297" xlink:href="#DejaVuSans-101"/>
     </g>
    </g>
   </g>
   <g id="PathCollection_1">
    <defs>
     <path d="M 0 1.118034 
C 0.296506 1.118034 0.580908 1.000231 0.790569 0.790569 
C 1.000231 0.580908 1.118034 0.296506 1.118034 0 
C 1.118034 -0.296506 1.000231 -0.580908 0.790569 -0.790569 
C 0.580908 -1.000231 0.296506 -1.118034 0 -1.118034 
C -0.296506 -1.118034 -0.580908 -1.000231 -0.790569 -0.790569 
C -1.000231 -0.580908 -1.118034 -0.296506 -1.118034 0 
C -1.118034 0.296506 -1.000231 0.580908 -0.790569 0.790569 
C -0.580908 1.000231 -0.296506 1.118034 0 1.118034 
z
" id="me7727d61bc" style="stroke:#e24a33;stroke-width:0.5;"/>
    </defs>
    <g clip-path="url(#p40c6bcc3bb)">
     <use style="fill:#e24a33;stroke:#e24a33;stroke-width:0.5;" x="168.236381" xlink:href="#me7727d61bc" y="325.909628"/>
     <use style="fill:#e24a33;stroke:#e24a33;stroke-width:0.5;" x="229.684693" xlink:href="#me7727d61bc" y="303.060644"/>
     <use style="fill:#e24a33;stroke:#e24a33;stroke-width:0.5;" x="352.581318" xlink:href="#me7727d61bc" y="219.281036"/>
     <use style="fill:#e24a33;stroke:#e24a33;stroke-width:0.5;" x="475.477942" xlink:href="#me7727d61bc" y="66.954476"/>
    </g>
   </g>
   <g id="PathCollection_2">
    <g clip-path="url(#p40c6bcc3bb)">
     <use style="fill:#e24a33;stroke:#e24a33;stroke-width:0.5;" x="168.236381" xlink:href="#me7727d61bc" y="325.909628"/>
     <use style="fill:#e24a33;stroke:#e24a33;stroke-width:0.5;" x="229.684693" xlink:href="#me7727d61bc" y="303.060644"/>
     <use style="fill:#e24a33;stroke:#e24a33;stroke-width:0.5;" x="352.581318" xlink:href="#me7727d61bc" y="219.281036"/>
     <use style="fill:#e24a33;stroke:#e24a33;stroke-width:0.5;" x="475.477942" xlink:href="#me7727d61bc" y="105.036116"/>
    </g>
   </g>
   <g id="PathCollection_3">
    <g clip-path="url(#p40c6bcc3bb)">
     <use style="fill:#e24a33;stroke:#e24a33;stroke-width:0.5;" x="168.236381" xlink:href="#me7727d61bc" y="325.909628"/>
     <use style="fill:#e24a33;stroke:#e24a33;stroke-width:0.5;" x="229.684693" xlink:href="#me7727d61bc" y="303.060644"/>
     <use style="fill:#e24a33;stroke:#e24a33;stroke-width:0.5;" x="352.581318" xlink:href="#me7727d61bc" y="215.472872"/>
     <use style="fill:#e24a33;stroke:#e24a33;stroke-width:0.5;" x="475.477942" xlink:href="#me7727d61bc" y="66.954476"/>
    </g>
   </g>
   <g id="line2d_33">
    <path clip-path="url(#p40c6bcc3bb)" d="M 106.788068 367.141636 
L 109.860484 365.681006 
L 112.932899 364.209427 
L 116.005315 362.726819 
L 119.077731 361.233099 
L 122.150146 359.728182 
L 125.222562 358.211986 
L 128.294978 356.684425 
L 131.367393 355.145415 
L 134.439809 353.59487 
L 137.512224 352.032703 
L 140.58464 350.458827 
L 143.657056 348.873155 
L 146.729471 347.275598 
L 149.801887 345.666066 
L 152.874302 344.044471 
L 155.946718 342.410721 
L 159.019134 340.764726 
L 162.091549 339.106394 
L 165.163965 337.435633 
L 168.236381 335.752348 
L 171.308796 334.056447 
L 174.381212 332.347835 
L 177.453627 330.626416 
L 180.526043 328.892095 
L 183.598459 327.144774 
L 186.670874 325.384357 
L 189.74329 323.610745 
L 192.815705 321.82384 
L 195.888121 320.023541 
L 198.960537 318.209749 
L 202.032952 316.382361 
L 205.105368 314.541277 
L 208.177784 312.686394 
L 211.250199 310.817608 
L 214.322615 308.934815 
L 217.39503 307.037909 
L 220.467446 305.126786 
L 223.539862 303.201339 
L 226.612277 301.26146 
L 229.684693 299.307041 
L 232.757109 297.337973 
L 235.829524 295.354147 
L 238.90194 293.355451 
L 241.974355 291.341775 
L 245.046771 289.313005 
L 248.119187 287.26903 
L 251.191602 285.209734 
L 254.264018 283.135003 
L 257.336433 281.044722 
L 260.408849 278.938774 
L 263.481265 276.81704 
L 266.55368 274.679404 
L 269.626096 272.525746 
L 272.698512 270.355946 
L 275.770927 268.169883 
L 278.843343 265.967434 
L 281.915758 263.748478 
L 284.988174 261.512889 
L 288.06059 259.260545 
L 291.133005 256.991319 
L 294.205421 254.705084 
L 297.277836 252.401713 
L 300.350252 250.081078 
L 303.422668 247.74305 
L 306.495083 245.387497 
L 309.567499 243.014289 
L 312.639915 240.623293 
L 315.71233 238.214375 
L 318.784746 235.787403 
L 321.857161 233.342239 
L 324.929577 230.878749 
L 328.001993 228.396794 
L 331.074408 225.896236 
L 334.146824 223.376936 
L 337.21924 220.838753 
L 340.291655 218.281546 
L 343.364071 215.705172 
L 346.436486 213.109487 
L 349.508902 210.494347 
L 352.581318 207.859606 
L 355.653733 205.205117 
L 358.726149 202.530731 
L 361.798564 199.836301 
L 364.87098 197.121675 
L 367.943396 194.386702 
L 371.015811 191.63123 
L 374.088227 188.855106 
L 377.160643 186.058173 
L 380.233058 183.240276 
L 383.305474 180.401259 
L 386.377889 177.540963 
L 389.450305 174.659228 
L 392.522721 171.755894 
L 395.595136 168.830798 
L 398.667552 165.883778 
L 401.739967 162.91467 
L 404.812383 159.923307 
L 407.884799 156.909523 
L 410.957214 153.87315 
L 414.02963 150.814019 
L 417.102046 147.731959 
L 420.174461 144.626798 
L 423.246877 141.498363 
L 426.319292 138.34648 
L 429.391708 135.170972 
L 432.464124 131.971664 
L 435.536539 128.748376 
L 438.608955 125.500928 
L 441.681371 122.22914 
L 444.753786 118.932829 
L 447.826202 115.611811 
L 450.898617 112.265902 
L 453.971033 108.894914 
L 457.043449 105.49866 
L 460.115864 102.076949 
L 463.18828 98.629593 
L 466.260695 95.156397 
L 469.333111 91.657169 
L 472.405527 88.131714 
" style="fill:none;stroke:#e24a33;stroke-linecap:square;stroke-width:1.5;"/>
   </g>
   <g id="patch_3">
    <path d="M 88.3 382.2 
L 88.3 50.916 
" style="fill:none;stroke:#ffffff;stroke-linecap:square;stroke-linejoin:miter;"/>
   </g>
   <g id="patch_4">
    <path d="M 495.0375 382.2 
L 495.0375 50.916 
" style="fill:none;stroke:#ffffff;stroke-linecap:square;stroke-linejoin:miter;"/>
   </g>
   <g id="patch_5">
    <path d="M 88.3 382.2 
L 495.0375 382.2 
" style="fill:none;stroke:#ffffff;stroke-linecap:square;stroke-linejoin:miter;"/>
   </g>
   <g id="patch_6">
    <path d="M 88.3 50.916 
L 495.0375 50.916 
" style="fill:none;stroke:#ffffff;stroke-linecap:square;stroke-linejoin:miter;"/>
   </g>
   <g id="text_19">
    <!-- A) -->
    <defs>
     <path d="M 34.1875 63.1875 
L 20.796875 26.90625 
L 47.609375 26.90625 
z
M 28.609375 72.90625 
L 39.796875 72.90625 
L 67.578125 0 
L 57.328125 0 
L 50.6875 18.703125 
L 17.828125 18.703125 
L 11.1875 0 
L 0.78125 0 
z
" id="DejaVuSans-65"/>
     <path d="M 8.015625 75.875 
L 15.828125 75.875 
Q 23.140625 64.359375 26.78125 53.3125 
Q 30.421875 42.28125 30.421875 31.390625 
Q 30.421875 20.453125 26.78125 9.375 
Q 23.140625 -1.703125 15.828125 -13.1875 
L 8.015625 -13.1875 
Q 14.5 -2 17.703125 9.0625 
Q 20.90625 20.125 20.90625 31.390625 
Q 20.90625 42.671875 17.703125 53.65625 
Q 14.5 64.65625 8.015625 75.875 
z
" id="DejaVuSans-41"/>
    </defs>
    <g transform="translate(39.0325 22.2026)scale(0.16 -0.16)">
     <use xlink:href="#DejaVuSans-65"/>
     <use x="68.408203" xlink:href="#DejaVuSans-41"/>
    </g>
   </g>
   <g id="text_20">
    <!-- Doubling Time: 11.85 Hours -->
    <defs>
     <path d="M 19.671875 64.796875 
L 19.671875 8.109375 
L 31.59375 8.109375 
Q 46.6875 8.109375 53.6875 14.9375 
Q 60.6875 21.78125 60.6875 36.53125 
Q 60.6875 51.171875 53.6875 57.984375 
Q 46.6875 64.796875 31.59375 64.796875 
z
M 9.8125 72.90625 
L 30.078125 72.90625 
Q 51.265625 72.90625 61.171875 64.09375 
Q 71.09375 55.28125 71.09375 36.53125 
Q 71.09375 17.671875 61.125 8.828125 
Q 51.171875 0 30.078125 0 
L 9.8125 0 
z
" id="DejaVuSans-68"/>
     <path d="M 48.6875 27.296875 
Q 48.6875 37.203125 44.609375 42.84375 
Q 40.53125 48.484375 33.40625 48.484375 
Q 26.265625 48.484375 22.1875 42.84375 
Q 18.109375 37.203125 18.109375 27.296875 
Q 18.109375 17.390625 22.1875 11.75 
Q 26.265625 6.109375 33.40625 6.109375 
Q 40.53125 6.109375 44.609375 11.75 
Q 48.6875 17.390625 48.6875 27.296875 
z
M 18.109375 46.390625 
Q 20.953125 51.265625 25.265625 53.625 
Q 29.59375 56 35.59375 56 
Q 45.5625 56 51.78125 48.09375 
Q 58.015625 40.1875 58.015625 27.296875 
Q 58.015625 14.40625 51.78125 6.484375 
Q 45.5625 -1.421875 35.59375 -1.421875 
Q 29.59375 -1.421875 25.265625 0.953125 
Q 20.953125 3.328125 18.109375 8.203125 
L 18.109375 0 
L 9.078125 0 
L 9.078125 75.984375 
L 18.109375 75.984375 
z
" id="DejaVuSans-98"/>
     <path d="M 45.40625 27.984375 
Q 45.40625 37.75 41.375 43.109375 
Q 37.359375 48.484375 30.078125 48.484375 
Q 22.859375 48.484375 18.828125 43.109375 
Q 14.796875 37.75 14.796875 27.984375 
Q 14.796875 18.265625 18.828125 12.890625 
Q 22.859375 7.515625 30.078125 7.515625 
Q 37.359375 7.515625 41.375 12.890625 
Q 45.40625 18.265625 45.40625 27.984375 
z
M 54.390625 6.78125 
Q 54.390625 -7.171875 48.1875 -13.984375 
Q 42 -20.796875 29.203125 -20.796875 
Q 24.46875 -20.796875 20.265625 -20.09375 
Q 16.0625 -19.390625 12.109375 -17.921875 
L 12.109375 -9.1875 
Q 16.0625 -11.328125 19.921875 -12.34375 
Q 23.78125 -13.375 27.78125 -13.375 
Q 36.625 -13.375 41.015625 -8.765625 
Q 45.40625 -4.15625 45.40625 5.171875 
L 45.40625 9.625 
Q 42.625 4.78125 38.28125 2.390625 
Q 33.9375 0 27.875 0 
Q 17.828125 0 11.671875 7.65625 
Q 5.515625 15.328125 5.515625 27.984375 
Q 5.515625 40.671875 11.671875 48.328125 
Q 17.828125 56 27.875 56 
Q 33.9375 56 38.28125 53.609375 
Q 42.625 51.21875 45.40625 46.390625 
L 45.40625 54.6875 
L 54.390625 54.6875 
z
" id="DejaVuSans-103"/>
     <path d="M -0.296875 72.90625 
L 61.375 72.90625 
L 61.375 64.59375 
L 35.5 64.59375 
L 35.5 0 
L 25.59375 0 
L 25.59375 64.59375 
L -0.296875 64.59375 
z
" id="DejaVuSans-84"/>
     <path d="M 11.71875 12.40625 
L 22.015625 12.40625 
L 22.015625 0 
L 11.71875 0 
z
M 11.71875 51.703125 
L 22.015625 51.703125 
L 22.015625 39.3125 
L 11.71875 39.3125 
z
" id="DejaVuSans-58"/>
    </defs>
    <g transform="translate(126.11125 186.74085)scale(0.12 -0.12)">
     <use xlink:href="#DejaVuSans-68"/>
     <use x="77.001953" xlink:href="#DejaVuSans-111"/>
     <use x="138.183594" xlink:href="#DejaVuSans-117"/>
     <use x="201.5625" xlink:href="#DejaVuSans-98"/>
     <use x="265.039062" xlink:href="#DejaVuSans-108"/>
     <use x="292.822266" xlink:href="#DejaVuSans-105"/>
     <use x="320.605469" xlink:href="#DejaVuSans-110"/>
     <use x="383.984375" xlink:href="#DejaVuSans-103"/>
     <use x="447.460938" xlink:href="#DejaVuSans-32"/>
     <use x="479.248047" xlink:href="#DejaVuSans-84"/>
     <use x="540.285156" xlink:href="#DejaVuSans-105"/>
     <use x="568.068359" xlink:href="#DejaVuSans-109"/>
     <use x="665.480469" xlink:href="#DejaVuSans-101"/>
     <use x="727.003906" xlink:href="#DejaVuSans-58"/>
     <use x="760.695312" xlink:href="#DejaVuSans-32"/>
     <use x="792.482422" xlink:href="#DejaVuSans-49"/>
     <use x="856.105469" xlink:href="#DejaVuSans-49"/>
     <use x="919.728516" xlink:href="#DejaVuSans-46"/>
     <use x="951.515625" xlink:href="#DejaVuSans-56"/>
     <use x="1015.138672" xlink:href="#DejaVuSans-53"/>
     <use x="1078.761719" xlink:href="#DejaVuSans-32"/>
     <use x="1110.548828" xlink:href="#DejaVuSans-72"/>
     <use x="1185.744141" xlink:href="#DejaVuSans-111"/>
     <use x="1246.925781" xlink:href="#DejaVuSans-117"/>
     <use x="1310.304688" xlink:href="#DejaVuSans-114"/>
     <use x="1351.417969" xlink:href="#DejaVuSans-115"/>
    </g>
   </g>
   <g id="text_21">
    <!-- BSF -->
    <defs>
     <path d="M 19.671875 34.8125 
L 19.671875 8.109375 
L 35.5 8.109375 
Q 43.453125 8.109375 47.28125 11.40625 
Q 51.125 14.703125 51.125 21.484375 
Q 51.125 28.328125 47.28125 31.5625 
Q 43.453125 34.8125 35.5 34.8125 
z
M 19.671875 64.796875 
L 19.671875 42.828125 
L 34.28125 42.828125 
Q 41.5 42.828125 45.03125 45.53125 
Q 48.578125 48.25 48.578125 53.8125 
Q 48.578125 59.328125 45.03125 62.0625 
Q 41.5 64.796875 34.28125 64.796875 
z
M 9.8125 72.90625 
L 35.015625 72.90625 
Q 46.296875 72.90625 52.390625 68.21875 
Q 58.5 63.53125 58.5 54.890625 
Q 58.5 48.1875 55.375 44.234375 
Q 52.25 40.28125 46.1875 39.3125 
Q 53.46875 37.75 57.5 32.78125 
Q 61.53125 27.828125 61.53125 20.40625 
Q 61.53125 10.640625 54.890625 5.3125 
Q 48.25 0 35.984375 0 
L 9.8125 0 
z
" id="DejaVuSans-66"/>
     <path d="M 53.515625 70.515625 
L 53.515625 60.890625 
Q 47.90625 63.578125 42.921875 64.890625 
Q 37.9375 66.21875 33.296875 66.21875 
Q 25.25 66.21875 20.875 63.09375 
Q 16.5 59.96875 16.5 54.203125 
Q 16.5 49.359375 19.40625 46.890625 
Q 22.3125 44.4375 30.421875 42.921875 
L 36.375 41.703125 
Q 47.40625 39.59375 52.65625 34.296875 
Q 57.90625 29 57.90625 20.125 
Q 57.90625 9.515625 50.796875 4.046875 
Q 43.703125 -1.421875 29.984375 -1.421875 
Q 24.8125 -1.421875 18.96875 -0.25 
Q 13.140625 0.921875 6.890625 3.21875 
L 6.890625 13.375 
Q 12.890625 10.015625 18.65625 8.296875 
Q 24.421875 6.59375 29.984375 6.59375 
Q 38.421875 6.59375 43.015625 9.90625 
Q 47.609375 13.234375 47.609375 19.390625 
Q 47.609375 24.75 44.3125 27.78125 
Q 41.015625 30.8125 33.5 32.328125 
L 27.484375 33.5 
Q 16.453125 35.6875 11.515625 40.375 
Q 6.59375 45.0625 6.59375 53.421875 
Q 6.59375 63.09375 13.40625 68.65625 
Q 20.21875 74.21875 32.171875 74.21875 
Q 37.3125 74.21875 42.625 73.28125 
Q 47.953125 72.359375 53.515625 70.515625 
z
" id="DejaVuSans-83"/>
     <path d="M 9.8125 72.90625 
L 51.703125 72.90625 
L 51.703125 64.59375 
L 19.671875 64.59375 
L 19.671875 43.109375 
L 48.578125 43.109375 
L 48.578125 34.8125 
L 19.671875 34.8125 
L 19.671875 0 
L 9.8125 0 
z
" id="DejaVuSans-70"/>
    </defs>
    <g transform="translate(276.50125 44.916)scale(0.16 -0.16)">
     <use xlink:href="#DejaVuSans-66"/>
     <use x="68.587891" xlink:href="#DejaVuSans-83"/>
     <use x="132.064453" xlink:href="#DejaVuSans-70"/>
    </g>
   </g>
  </g>
  <g id="axes_2">
   <g id="patch_7">
    <path d="M 586.9625 382.2 
L 993.7 382.2 
L 993.7 50.916 
L 586.9625 50.916 
z
" style="fill:#e5e5e5;"/>
   </g>
   <g id="matplotlib.axis_3">
    <g id="xtick_8">
     <g id="line2d_34">
      <path clip-path="url(#p4e67bac59b)" d="M 605.450568 382.2 
L 605.450568 50.916 
" style="fill:none;stroke:#ffffff;stroke-linecap:square;stroke-width:0.8;"/>
     </g>
     <g id="line2d_35">
      <g>
       <use style="fill:#555555;stroke:#555555;stroke-width:0.8;" x="605.450568" xlink:href="#m328bb19669" y="382.2"/>
      </g>
     </g>
     <g id="text_22">
      <!-- 0 -->
      <g style="fill:#555555;" transform="translate(601.633068 398.318125)scale(0.12 -0.12)">
       <use xlink:href="#DejaVuSans-48"/>
      </g>
     </g>
    </g>
    <g id="xtick_9">
     <g id="line2d_36">
      <path clip-path="url(#p4e67bac59b)" d="M 671.282596 382.2 
L 671.282596 50.916 
" style="fill:none;stroke:#ffffff;stroke-linecap:square;stroke-width:0.8;"/>
     </g>
     <g id="line2d_37">
      <g>
       <use style="fill:#555555;stroke:#555555;stroke-width:0.8;" x="671.282596" xlink:href="#m328bb19669" y="382.2"/>
      </g>
     </g>
     <g id="text_23">
      <!-- 5 -->
      <g style="fill:#555555;" transform="translate(667.465096 398.318125)scale(0.12 -0.12)">
       <use xlink:href="#DejaVuSans-53"/>
      </g>
     </g>
    </g>
    <g id="xtick_10">
     <g id="line2d_38">
      <path clip-path="url(#p4e67bac59b)" d="M 737.114623 382.2 
L 737.114623 50.916 
" style="fill:none;stroke:#ffffff;stroke-linecap:square;stroke-width:0.8;"/>
     </g>
     <g id="line2d_39">
      <g>
       <use style="fill:#555555;stroke:#555555;stroke-width:0.8;" x="737.114623" xlink:href="#m328bb19669" y="382.2"/>
      </g>
     </g>
     <g id="text_24">
      <!-- 10 -->
      <g style="fill:#555555;" transform="translate(729.479623 398.318125)scale(0.12 -0.12)">
       <use xlink:href="#DejaVuSans-49"/>
       <use x="63.623047" xlink:href="#DejaVuSans-48"/>
      </g>
     </g>
    </g>
    <g id="xtick_11">
     <g id="line2d_40">
      <path clip-path="url(#p4e67bac59b)" d="M 802.946651 382.2 
L 802.946651 50.916 
" style="fill:none;stroke:#ffffff;stroke-linecap:square;stroke-width:0.8;"/>
     </g>
     <g id="line2d_41">
      <g>
       <use style="fill:#555555;stroke:#555555;stroke-width:0.8;" x="802.946651" xlink:href="#m328bb19669" y="382.2"/>
      </g>
     </g>
     <g id="text_25">
      <!-- 15 -->
      <g style="fill:#555555;" transform="translate(795.311651 398.318125)scale(0.12 -0.12)">
       <use xlink:href="#DejaVuSans-49"/>
       <use x="63.623047" xlink:href="#DejaVuSans-53"/>
      </g>
     </g>
    </g>
    <g id="xtick_12">
     <g id="line2d_42">
      <path clip-path="url(#p4e67bac59b)" d="M 868.778678 382.2 
L 868.778678 50.916 
" style="fill:none;stroke:#ffffff;stroke-linecap:square;stroke-width:0.8;"/>
     </g>
     <g id="line2d_43">
      <g>
       <use style="fill:#555555;stroke:#555555;stroke-width:0.8;" x="868.778678" xlink:href="#m328bb19669" y="382.2"/>
      </g>
     </g>
     <g id="text_26">
      <!-- 20 -->
      <g style="fill:#555555;" transform="translate(861.143678 398.318125)scale(0.12 -0.12)">
       <use xlink:href="#DejaVuSans-50"/>
       <use x="63.623047" xlink:href="#DejaVuSans-48"/>
      </g>
     </g>
    </g>
    <g id="xtick_13">
     <g id="line2d_44">
      <path clip-path="url(#p4e67bac59b)" d="M 934.610706 382.2 
L 934.610706 50.916 
" style="fill:none;stroke:#ffffff;stroke-linecap:square;stroke-width:0.8;"/>
     </g>
     <g id="line2d_45">
      <g>
       <use style="fill:#555555;stroke:#555555;stroke-width:0.8;" x="934.610706" xlink:href="#m328bb19669" y="382.2"/>
      </g>
     </g>
     <g id="text_27">
      <!-- 25 -->
      <g style="fill:#555555;" transform="translate(926.975706 398.318125)scale(0.12 -0.12)">
       <use xlink:href="#DejaVuSans-50"/>
       <use x="63.623047" xlink:href="#DejaVuSans-53"/>
      </g>
     </g>
    </g>
    <g id="text_28">
     <!-- Hours -->
     <g style="fill:#555555;" transform="translate(766.89375 416.97125)scale(0.16 -0.16)">
      <use xlink:href="#DejaVuSans-72"/>
      <use x="75.195312" xlink:href="#DejaVuSans-111"/>
      <use x="136.376953" xlink:href="#DejaVuSans-117"/>
      <use x="199.755859" xlink:href="#DejaVuSans-114"/>
      <use x="240.869141" xlink:href="#DejaVuSans-115"/>
     </g>
    </g>
   </g>
   <g id="matplotlib.axis_4">
    <g id="ytick_10">
     <g id="line2d_46">
      <path clip-path="url(#p4e67bac59b)" d="M 586.9625 363.017096 
L 993.7 363.017096 
" style="fill:none;stroke:#ffffff;stroke-linecap:square;stroke-width:0.8;"/>
     </g>
     <g id="line2d_47">
      <g>
       <use style="fill:#555555;stroke:#555555;stroke-width:0.8;" x="586.9625" xlink:href="#m22a4ff953b" y="363.017096"/>
      </g>
     </g>
     <g id="text_29">
      <!-- 1.0e+07 -->
      <g style="fill:#555555;" transform="translate(528.169375 367.576159)scale(0.12 -0.12)">
       <use xlink:href="#DejaVuSans-49"/>
       <use x="63.623047" xlink:href="#DejaVuSans-46"/>
       <use x="95.410156" xlink:href="#DejaVuSans-48"/>
       <use x="159.033203" xlink:href="#DejaVuSans-101"/>
       <use x="220.556641" xlink:href="#DejaVuSans-43"/>
       <use x="304.345703" xlink:href="#DejaVuSans-48"/>
       <use x="367.96875" xlink:href="#DejaVuSans-55"/>
      </g>
     </g>
    </g>
    <g id="ytick_11">
     <g id="line2d_48">
      <path clip-path="url(#p4e67bac59b)" d="M 586.9625 323.540405 
L 993.7 323.540405 
" style="fill:none;stroke:#ffffff;stroke-linecap:square;stroke-width:0.8;"/>
     </g>
     <g id="line2d_49">
      <g>
       <use style="fill:#555555;stroke:#555555;stroke-width:0.8;" x="586.9625" xlink:href="#m22a4ff953b" y="323.540405"/>
      </g>
     </g>
     <g id="text_30">
      <!-- 1.2e+07 -->
      <g style="fill:#555555;" transform="translate(528.169375 328.099467)scale(0.12 -0.12)">
       <use xlink:href="#DejaVuSans-49"/>
       <use x="63.623047" xlink:href="#DejaVuSans-46"/>
       <use x="95.410156" xlink:href="#DejaVuSans-50"/>
       <use x="159.033203" xlink:href="#DejaVuSans-101"/>
       <use x="220.556641" xlink:href="#DejaVuSans-43"/>
       <use x="304.345703" xlink:href="#DejaVuSans-48"/>
       <use x="367.96875" xlink:href="#DejaVuSans-55"/>
      </g>
     </g>
    </g>
    <g id="ytick_12">
     <g id="line2d_50">
      <path clip-path="url(#p4e67bac59b)" d="M 586.9625 284.063713 
L 993.7 284.063713 
" style="fill:none;stroke:#ffffff;stroke-linecap:square;stroke-width:0.8;"/>
     </g>
     <g id="line2d_51">
      <g>
       <use style="fill:#555555;stroke:#555555;stroke-width:0.8;" x="586.9625" xlink:href="#m22a4ff953b" y="284.063713"/>
      </g>
     </g>
     <g id="text_31">
      <!-- 1.4e+07 -->
      <g style="fill:#555555;" transform="translate(528.169375 288.622775)scale(0.12 -0.12)">
       <use xlink:href="#DejaVuSans-49"/>
       <use x="63.623047" xlink:href="#DejaVuSans-46"/>
       <use x="95.410156" xlink:href="#DejaVuSans-52"/>
       <use x="159.033203" xlink:href="#DejaVuSans-101"/>
       <use x="220.556641" xlink:href="#DejaVuSans-43"/>
       <use x="304.345703" xlink:href="#DejaVuSans-48"/>
       <use x="367.96875" xlink:href="#DejaVuSans-55"/>
      </g>
     </g>
    </g>
    <g id="ytick_13">
     <g id="line2d_52">
      <path clip-path="url(#p4e67bac59b)" d="M 586.9625 244.587021 
L 993.7 244.587021 
" style="fill:none;stroke:#ffffff;stroke-linecap:square;stroke-width:0.8;"/>
     </g>
     <g id="line2d_53">
      <g>
       <use style="fill:#555555;stroke:#555555;stroke-width:0.8;" x="586.9625" xlink:href="#m22a4ff953b" y="244.587021"/>
      </g>
     </g>
     <g id="text_32">
      <!-- 1.6e+07 -->
      <g style="fill:#555555;" transform="translate(528.169375 249.146084)scale(0.12 -0.12)">
       <use xlink:href="#DejaVuSans-49"/>
       <use x="63.623047" xlink:href="#DejaVuSans-46"/>
       <use x="95.410156" xlink:href="#DejaVuSans-54"/>
       <use x="159.033203" xlink:href="#DejaVuSans-101"/>
       <use x="220.556641" xlink:href="#DejaVuSans-43"/>
       <use x="304.345703" xlink:href="#DejaVuSans-48"/>
       <use x="367.96875" xlink:href="#DejaVuSans-55"/>
      </g>
     </g>
    </g>
    <g id="ytick_14">
     <g id="line2d_54">
      <path clip-path="url(#p4e67bac59b)" d="M 586.9625 205.110329 
L 993.7 205.110329 
" style="fill:none;stroke:#ffffff;stroke-linecap:square;stroke-width:0.8;"/>
     </g>
     <g id="line2d_55">
      <g>
       <use style="fill:#555555;stroke:#555555;stroke-width:0.8;" x="586.9625" xlink:href="#m22a4ff953b" y="205.110329"/>
      </g>
     </g>
     <g id="text_33">
      <!-- 1.8e+07 -->
      <g style="fill:#555555;" transform="translate(528.169375 209.669392)scale(0.12 -0.12)">
       <use xlink:href="#DejaVuSans-49"/>
       <use x="63.623047" xlink:href="#DejaVuSans-46"/>
       <use x="95.410156" xlink:href="#DejaVuSans-56"/>
       <use x="159.033203" xlink:href="#DejaVuSans-101"/>
       <use x="220.556641" xlink:href="#DejaVuSans-43"/>
       <use x="304.345703" xlink:href="#DejaVuSans-48"/>
       <use x="367.96875" xlink:href="#DejaVuSans-55"/>
      </g>
     </g>
    </g>
    <g id="ytick_15">
     <g id="line2d_56">
      <path clip-path="url(#p4e67bac59b)" d="M 586.9625 165.633638 
L 993.7 165.633638 
" style="fill:none;stroke:#ffffff;stroke-linecap:square;stroke-width:0.8;"/>
     </g>
     <g id="line2d_57">
      <g>
       <use style="fill:#555555;stroke:#555555;stroke-width:0.8;" x="586.9625" xlink:href="#m22a4ff953b" y="165.633638"/>
      </g>
     </g>
     <g id="text_34">
      <!-- 2.0e+07 -->
      <g style="fill:#555555;" transform="translate(528.169375 170.1927)scale(0.12 -0.12)">
       <use xlink:href="#DejaVuSans-50"/>
       <use x="63.623047" xlink:href="#DejaVuSans-46"/>
       <use x="95.410156" xlink:href="#DejaVuSans-48"/>
       <use x="159.033203" xlink:href="#DejaVuSans-101"/>
       <use x="220.556641" xlink:href="#DejaVuSans-43"/>
       <use x="304.345703" xlink:href="#DejaVuSans-48"/>
       <use x="367.96875" xlink:href="#DejaVuSans-55"/>
      </g>
     </g>
    </g>
    <g id="ytick_16">
     <g id="line2d_58">
      <path clip-path="url(#p4e67bac59b)" d="M 586.9625 126.156946 
L 993.7 126.156946 
" style="fill:none;stroke:#ffffff;stroke-linecap:square;stroke-width:0.8;"/>
     </g>
     <g id="line2d_59">
      <g>
       <use style="fill:#555555;stroke:#555555;stroke-width:0.8;" x="586.9625" xlink:href="#m22a4ff953b" y="126.156946"/>
      </g>
     </g>
     <g id="text_35">
      <!-- 2.2e+07 -->
      <g style="fill:#555555;" transform="translate(528.169375 130.716009)scale(0.12 -0.12)">
       <use xlink:href="#DejaVuSans-50"/>
       <use x="63.623047" xlink:href="#DejaVuSans-46"/>
       <use x="95.410156" xlink:href="#DejaVuSans-50"/>
       <use x="159.033203" xlink:href="#DejaVuSans-101"/>
       <use x="220.556641" xlink:href="#DejaVuSans-43"/>
       <use x="304.345703" xlink:href="#DejaVuSans-48"/>
       <use x="367.96875" xlink:href="#DejaVuSans-55"/>
      </g>
     </g>
    </g>
    <g id="ytick_17">
     <g id="line2d_60">
      <path clip-path="url(#p4e67bac59b)" d="M 586.9625 86.680254 
L 993.7 86.680254 
" style="fill:none;stroke:#ffffff;stroke-linecap:square;stroke-width:0.8;"/>
     </g>
     <g id="line2d_61">
      <g>
       <use style="fill:#555555;stroke:#555555;stroke-width:0.8;" x="586.9625" xlink:href="#m22a4ff953b" y="86.680254"/>
      </g>
     </g>
     <g id="text_36">
      <!-- 2.4e+07 -->
      <g style="fill:#555555;" transform="translate(528.169375 91.239317)scale(0.12 -0.12)">
       <use xlink:href="#DejaVuSans-50"/>
       <use x="63.623047" xlink:href="#DejaVuSans-46"/>
       <use x="95.410156" xlink:href="#DejaVuSans-52"/>
       <use x="159.033203" xlink:href="#DejaVuSans-101"/>
       <use x="220.556641" xlink:href="#DejaVuSans-43"/>
       <use x="304.345703" xlink:href="#DejaVuSans-48"/>
       <use x="367.96875" xlink:href="#DejaVuSans-55"/>
      </g>
     </g>
    </g>
    <g id="text_37">
     <!-- Parasite Count/ ml Culture -->
     <g style="fill:#555555;" transform="translate(520.841875 322.308)rotate(-90)scale(0.16 -0.16)">
      <use xlink:href="#DejaVuSans-80"/>
      <use x="60.240234" xlink:href="#DejaVuSans-97"/>
      <use x="121.519531" xlink:href="#DejaVuSans-114"/>
      <use x="162.632812" xlink:href="#DejaVuSans-97"/>
      <use x="223.912109" xlink:href="#DejaVuSans-115"/>
      <use x="276.011719" xlink:href="#DejaVuSans-105"/>
      <use x="303.794922" xlink:href="#DejaVuSans-116"/>
      <use x="343.003906" xlink:href="#DejaVuSans-101"/>
      <use x="404.527344" xlink:href="#DejaVuSans-32"/>
      <use x="436.314453" xlink:href="#DejaVuSans-67"/>
      <use x="506.138672" xlink:href="#DejaVuSans-111"/>
      <use x="567.320312" xlink:href="#DejaVuSans-117"/>
      <use x="630.699219" xlink:href="#DejaVuSans-110"/>
      <use x="694.078125" xlink:href="#DejaVuSans-116"/>
      <use x="733.287109" xlink:href="#DejaVuSans-47"/>
      <use x="766.978516" xlink:href="#DejaVuSans-32"/>
      <use x="798.765625" xlink:href="#DejaVuSans-109"/>
      <use x="896.177734" xlink:href="#DejaVuSans-108"/>
      <use x="923.960938" xlink:href="#DejaVuSans-32"/>
      <use x="955.748047" xlink:href="#DejaVuSans-67"/>
      <use x="1025.572266" xlink:href="#DejaVuSans-117"/>
      <use x="1088.951172" xlink:href="#DejaVuSans-108"/>
      <use x="1116.734375" xlink:href="#DejaVuSans-116"/>
      <use x="1155.943359" xlink:href="#DejaVuSans-117"/>
      <use x="1219.322266" xlink:href="#DejaVuSans-114"/>
      <use x="1260.404297" xlink:href="#DejaVuSans-101"/>
     </g>
    </g>
   </g>
   <g id="PathCollection_4">
    <defs>
     <path d="M 0 1.118034 
C 0.296506 1.118034 0.580908 1.000231 0.790569 0.790569 
C 1.000231 0.580908 1.118034 0.296506 1.118034 0 
C 1.118034 -0.296506 1.000231 -0.580908 0.790569 -0.790569 
C 0.580908 -1.000231 0.296506 -1.118034 0 -1.118034 
C -0.296506 -1.118034 -0.580908 -1.000231 -0.790569 -0.790569 
C -1.000231 -0.580908 -1.118034 -0.296506 -1.118034 0 
C -1.118034 0.296506 -1.000231 0.580908 -0.790569 0.790569 
C -0.580908 1.000231 -0.296506 1.118034 0 1.118034 
z
" id="m842679106e" style="stroke:#348abd;stroke-width:0.5;"/>
    </defs>
    <g clip-path="url(#p4e67bac59b)">
     <use style="fill:#348abd;stroke:#348abd;stroke-width:0.5;" x="658.11619" xlink:href="#m842679106e" y="343.27875"/>
     <use style="fill:#348abd;stroke:#348abd;stroke-width:0.5;" x="684.449001" xlink:href="#m842679106e" y="323.540405"/>
     <use style="fill:#348abd;stroke:#348abd;stroke-width:0.5;" x="868.778678" xlink:href="#m842679106e" y="205.110329"/>
     <use style="fill:#348abd;stroke:#348abd;stroke-width:0.5;" x="974.109922" xlink:href="#m842679106e" y="86.680254"/>
    </g>
   </g>
   <g id="PathCollection_5">
    <g clip-path="url(#p4e67bac59b)">
     <use style="fill:#348abd;stroke:#348abd;stroke-width:0.5;" x="658.11619" xlink:href="#m842679106e" y="343.27875"/>
     <use style="fill:#348abd;stroke:#348abd;stroke-width:0.5;" x="684.449001" xlink:href="#m842679106e" y="323.540405"/>
     <use style="fill:#348abd;stroke:#348abd;stroke-width:0.5;" x="868.778678" xlink:href="#m842679106e" y="205.110329"/>
     <use style="fill:#348abd;stroke:#348abd;stroke-width:0.5;" x="974.109922" xlink:href="#m842679106e" y="66.941908"/>
    </g>
   </g>
   <g id="PathCollection_6">
    <g clip-path="url(#p4e67bac59b)">
     <use style="fill:#348abd;stroke:#348abd;stroke-width:0.5;" x="658.11619" xlink:href="#m842679106e" y="323.540405"/>
     <use style="fill:#348abd;stroke:#348abd;stroke-width:0.5;" x="684.449001" xlink:href="#m842679106e" y="323.540405"/>
     <use style="fill:#348abd;stroke:#348abd;stroke-width:0.5;" x="868.778678" xlink:href="#m842679106e" y="205.110329"/>
     <use style="fill:#348abd;stroke:#348abd;stroke-width:0.5;" x="974.109922" xlink:href="#m842679106e" y="86.680254"/>
    </g>
   </g>
   <g id="line2d_62">
    <path clip-path="url(#p4e67bac59b)" d="M 605.450568 367.141636 
L 619.933614 360.202595 
L 634.41666 353.014404 
L 648.899706 345.568118 
L 663.382752 337.85447 
L 676.549158 330.601983 
L 689.715563 323.113148 
L 702.881969 315.38026 
L 716.048374 307.395368 
L 729.21478 299.150259 
L 742.381185 290.636452 
L 755.547591 281.845192 
L 768.713996 272.767436 
L 781.880402 263.393847 
L 793.730167 254.69672 
L 805.579932 245.744917 
L 817.429697 236.530983 
L 829.279462 227.047241 
L 841.129227 217.28579 
L 852.978992 207.238498 
L 864.828757 196.896996 
L 876.678522 186.252668 
L 888.528287 175.296646 
L 900.378052 164.019803 
L 912.227816 152.412745 
L 924.077581 140.465803 
L 935.927346 128.169022 
L 946.460471 116.936585 
L 956.993595 105.41225 
L 967.52672 93.588431 
L 972.793282 87.561791 
L 972.793282 87.561791 
" style="fill:none;stroke:#348abd;stroke-linecap:square;stroke-width:1.5;"/>
   </g>
   <g id="patch_8">
    <path d="M 586.9625 382.2 
L 586.9625 50.916 
" style="fill:none;stroke:#ffffff;stroke-linecap:square;stroke-linejoin:miter;"/>
   </g>
   <g id="patch_9">
    <path d="M 993.7 382.2 
L 993.7 50.916 
" style="fill:none;stroke:#ffffff;stroke-linecap:square;stroke-linejoin:miter;"/>
   </g>
   <g id="patch_10">
    <path d="M 586.9625 382.2 
L 993.7 382.2 
" style="fill:none;stroke:#ffffff;stroke-linecap:square;stroke-linejoin:miter;"/>
   </g>
   <g id="patch_11">
    <path d="M 586.9625 50.916 
L 993.7 50.916 
" style="fill:none;stroke:#ffffff;stroke-linecap:square;stroke-linejoin:miter;"/>
   </g>
   <g id="text_38">
    <!-- Doubling Time: 22.27 Hours -->
    <g transform="translate(624.77375 186.74085)scale(0.12 -0.12)">
     <use xlink:href="#DejaVuSans-68"/>
     <use x="77.001953" xlink:href="#DejaVuSans-111"/>
     <use x="138.183594" xlink:href="#DejaVuSans-117"/>
     <use x="201.5625" xlink:href="#DejaVuSans-98"/>
     <use x="265.039062" xlink:href="#DejaVuSans-108"/>
     <use x="292.822266" xlink:href="#DejaVuSans-105"/>
     <use x="320.605469" xlink:href="#DejaVuSans-110"/>
     <use x="383.984375" xlink:href="#DejaVuSans-103"/>
     <use x="447.460938" xlink:href="#DejaVuSans-32"/>
     <use x="479.248047" xlink:href="#DejaVuSans-84"/>
     <use x="540.285156" xlink:href="#DejaVuSans-105"/>
     <use x="568.068359" xlink:href="#DejaVuSans-109"/>
     <use x="665.480469" xlink:href="#DejaVuSans-101"/>
     <use x="727.003906" xlink:href="#DejaVuSans-58"/>
     <use x="760.695312" xlink:href="#DejaVuSans-32"/>
     <use x="792.482422" xlink:href="#DejaVuSans-50"/>
     <use x="856.105469" xlink:href="#DejaVuSans-50"/>
     <use x="919.728516" xlink:href="#DejaVuSans-46"/>
     <use x="951.515625" xlink:href="#DejaVuSans-50"/>
     <use x="1015.138672" xlink:href="#DejaVuSans-55"/>
     <use x="1078.761719" xlink:href="#DejaVuSans-32"/>
     <use x="1110.548828" xlink:href="#DejaVuSans-72"/>
     <use x="1185.744141" xlink:href="#DejaVuSans-111"/>
     <use x="1246.925781" xlink:href="#DejaVuSans-117"/>
     <use x="1310.304688" xlink:href="#DejaVuSans-114"/>
     <use x="1351.417969" xlink:href="#DejaVuSans-115"/>
    </g>
   </g>
   <g id="text_39">
    <!-- B) -->
    <g transform="translate(537.67875 22.2026)scale(0.16 -0.16)">
     <use xlink:href="#DejaVuSans-66"/>
     <use x="68.603516" xlink:href="#DejaVuSans-41"/>
    </g>
   </g>
   <g id="text_40">
    <!-- PCF -->
    <g transform="translate(775.32 44.916)scale(0.16 -0.16)">
     <use xlink:href="#DejaVuSans-80"/>
     <use x="60.302734" xlink:href="#DejaVuSans-67"/>
     <use x="130.126953" xlink:href="#DejaVuSans-70"/>
    </g>
   </g>
  </g>
 </g>
 <defs>
  <clipPath id="p40c6bcc3bb">
   <rect height="331.284" width="406.7375" x="88.3" y="50.916"/>
  </clipPath>
  <clipPath id="p4e67bac59b">
   <rect height="331.284" width="406.7375" x="586.9625" y="50.916"/>
  </clipPath>
 </defs>
</svg>
